<svg width="140" height="140" viewBox="0 0 140 140" fill="none" xmlns="http://www.w3.org/2000/svg">
<g opacity="0.5">
<rect x="4.7002" y="13.0996" width="106.1" height="89.3" rx="2.5" stroke="#43AE44"/>
<rect x="31.2998" y="39" width="51.5" height="43.8" rx="2.5" stroke="#43AE44"/>
<rect x="66.2998" y="51.5996" width="20.7" height="17.2" rx="2.5" fill="white" stroke="#43AE44"/>
<path d="M138.1 104.299C138.1 118.714 126.415 130.399 112 130.399C97.5858 130.399 85.9004 118.714 85.9004 104.299C85.9004 89.8846 97.5858 78.1992 112 78.1992C126.415 78.1992 138.1 89.8846 138.1 104.299Z" fill="white" stroke="#43AE44"/>
<path d="M81.4002 60.1996C81.4002 61.0833 80.6838 61.7996 79.8002 61.7996C78.9165 61.7996 78.2002 61.0833 78.2002 60.1996C78.2002 59.316 78.9165 58.5996 79.8002 58.5996C80.6838 58.5996 81.4002 59.316 81.4002 60.1996Z" fill="white" stroke="#43AE44"/>
<path d="M120.867 97.6504L108.675 109.842L103.134 104.3" stroke="#43AE44" stroke-linecap="round" stroke-linejoin="round"/>
<path d="M11.2002 19.5996H16.8002" stroke="#43AE44"/>
<path d="M20.2998 19.5996H25.8998" stroke="#43AE44"/>
<path d="M29.4004 19.5996H35.0004" stroke="#43AE44"/>
</g>
</svg>
