<svg width="154" height="228" viewBox="0 0 154 228" fill="none" xmlns="http://www.w3.org/2000/svg">
<path d="M25.5899 212.519L8.97346 168H0L23.0422 227.373H28.0526L30.0059 222.363L25.5899 212.519ZM42.2063 168L29.9634 200.838L34.6766 210.242L51.0241 168H42.2063Z" fill="#742D80"/>
<path d="M58.4458 168V227.373H66.7952V168H58.4458Z" fill="#742D80"/>
<path d="M72.3613 168V175.936H83.8031V227.373H92.4912V175.936H103.903V168H72.3613Z" fill="#742D80"/>
<path d="M131.865 168H124.198L102.048 227.373H111.029L117.498 209.889H131.071L128.76 201.94H120.501L127.981 179.225H128.14L135.561 201.94L138.449 209.889L144.903 227.373H154L131.865 168Z" fill="#742D80"/>
<path fill-rule="evenodd" clip-rule="evenodd" d="M77 154C119.526 154 154 119.526 154 77C154 53.0543 143.069 31.6615 125.926 17.539L126.101 79.5971C126.095 89.4565 123.214 99.0929 117.82 107.289C112.426 115.486 104.763 121.875 95.7972 125.649C86.8317 129.424 76.9662 130.414 67.4468 128.496C57.9273 126.578 49.181 121.837 42.3122 114.871C35.4435 107.906 30.7605 99.0295 28.8547 89.3621C26.9488 79.6947 27.9057 69.6704 31.6043 60.5551C35.3029 51.4398 41.5775 43.6425 49.6355 38.1478C57.6936 32.6531 67.1736 29.7075 76.8785 29.6831C82.1351 29.6648 87.3592 30.5199 92.3442 32.2144L93.2253 32.523V50.5192L91.3415 49.5623C86.8441 47.305 81.8948 46.1325 76.8785 46.1359C70.3689 46.1298 64.0038 48.0853 58.5883 51.755C53.1729 55.4246 48.9505 60.6436 46.4552 66.7516C43.9599 72.8597 43.3039 79.5824 44.5702 86.0693C45.8364 92.5562 48.9681 98.5157 53.5689 103.194C58.1698 107.873 64.0331 111.06 70.4172 112.352C76.8012 113.644 83.4192 112.984 89.4338 110.455C95.4484 107.925 100.59 103.641 104.207 98.1424C107.824 92.6441 109.755 86.1795 109.755 79.5663V7.29387C99.8153 2.61532 88.7131 0 77 0C34.4741 0 0 34.4741 0 77C0 119.526 34.4741 154 77 154Z" fill="#03C202"/>
</svg>
