<svg width="66" height="65" viewBox="0 0 66 65" fill="none" xmlns="http://www.w3.org/2000/svg">
<g opacity="0.2">
<path d="M2.28361 35.1328C2.85305 42.3969 6.01303 49.2196 11.1936 54.3702L9.63601 55.9131C4.08566 50.3955 0.700813 43.0858 0.0924072 35.3035L2.28361 35.1328Z" fill="#252525"/>
<path d="M64.7592 24.3718C66.2244 29.9125 66.2033 35.7387 64.6977 41.2687C63.1922 46.7987 60.2549 51.8392 56.1792 55.887L54.6348 54.344C58.4279 50.5537 61.1596 45.8432 62.5592 40.6792C63.9588 35.5153 63.9778 30.0771 62.6142 24.9036L64.7592 24.3718Z" fill="#252525"/>
<path d="M44.2002 1.97632L43.4544 4.01824C38.4412 2.21366 33.0436 1.73205 27.7876 2.62036C22.5317 3.50867 17.5968 5.73659 13.464 9.08693C12.6715 9.72952 11.9136 10.4133 11.1936 11.1354L9.63599 9.59248C10.4096 8.82268 11.2225 8.09293 12.0714 7.40611C16.5297 3.76502 21.8755 1.35969 27.5682 0.433387C33.1537 -0.474144 38.8797 0.0570589 44.2002 1.97632Z" fill="#252525"/>
<path d="M6.61982 16.9196C4.76814 19.9651 3.46594 23.3092 2.77201 26.8009L0.627014 26.3807C1.36564 22.6389 2.76204 19.056 4.75201 15.7969L6.61982 16.9196Z" fill="#252525"/>
<path d="M2.24399 30.8914C2.20439 31.6268 2.18459 32.3753 2.19119 33.1172H0.0065918C0.0065918 32.3227 0.0065919 31.5217 0.0659919 30.7273L2.24399 30.8914Z" fill="#252525"/>
<path d="M22.3872 60.6077C29.2214 63.2295 36.7723 63.3366 43.6788 60.9097L44.4048 62.9647C37.0077 65.5777 28.9133 65.4612 21.5952 62.6365L22.3872 60.6077Z" fill="#252525"/>
<path d="M60.0996 28.2126C60.716 31.8743 60.5791 35.6223 59.697 39.2298C58.769 43.0863 57.0003 46.6928 54.516 49.794C53.8559 50.6071 53.1508 51.383 52.404 52.1182C48.6803 55.8229 43.9672 58.3882 38.8231 59.5101C33.679 60.6321 28.3193 60.2638 23.3791 58.4487C18.439 56.6337 14.1253 53.448 10.9491 49.2692C7.77292 45.0903 5.86737 40.0933 5.45819 34.8702L7.63619 34.7061C8.01363 39.5147 9.7686 44.1149 12.6932 47.9619C15.6179 51.8088 19.5896 54.7413 24.138 56.4119C28.6863 58.0825 33.6207 58.4212 38.3566 57.3879C43.0925 56.3547 47.4315 53.9927 50.8596 50.5818C54.1466 47.3078 56.4681 43.1997 57.5718 38.7046C58.3867 35.3834 58.5124 31.9318 57.9414 28.5606L60.0996 28.2126Z" fill="#252525"/>
<path d="M52.404 13.3809C55.3491 16.2975 57.5881 19.8428 58.9512 23.748L56.8854 24.4637C56.1794 22.4386 55.2145 20.5121 54.0144 18.7319C53.0889 17.3621 52.0323 16.0847 50.8596 14.9172L52.404 13.3809Z" fill="#252525"/>
<path d="M52.041 13.0132L50.523 14.5824C48.8098 12.9327 46.8699 11.5334 44.7612 10.4264C44.187 10.1243 43.593 9.84202 42.999 9.58596C42.5436 9.39555 42.0816 9.21171 41.613 9.04101C37.0738 7.39704 32.1572 7.07609 27.4409 8.11585C22.7246 9.15561 18.4047 11.5129 14.9886 14.9107L13.4442 13.3809C14.0899 12.7362 14.7684 12.1248 15.477 11.5491C19.176 8.53596 23.5994 6.53206 28.3125 5.73432C33.0256 4.93658 37.8663 5.37244 42.3588 6.99909C42.867 7.18293 43.3752 7.38646 43.8702 7.59657C44.5302 7.87889 45.1572 8.18091 45.7776 8.50919C46.8444 9.06755 47.8719 9.6971 48.8532 10.3935C49.9801 11.1863 51.0457 12.062 52.041 13.0132Z" fill="#252525"/>
<path d="M53.3412 24.7197C54.1444 26.7472 54.6382 28.8828 54.8064 31.0556L53.064 31.1869C52.9071 29.1894 52.4511 27.2265 51.711 25.3632L53.3412 24.7197Z" fill="#252525"/>
<path d="M48.444 17.3203C50.0371 18.9068 51.3731 20.7297 52.404 22.7238L50.853 23.5249C49.8977 21.6877 48.662 20.0089 47.19 18.5481L48.444 17.3203Z" fill="#252525"/>
<path d="M54.8724 32.4935C54.8724 33.0188 54.8724 33.5572 54.8328 34.0824C54.7737 35.0615 54.648 36.0354 54.4566 36.9976C53.9587 39.4906 53.0297 41.8787 51.711 44.0557C50.7827 45.5618 49.6747 46.9507 48.411 48.192C47.8975 48.7052 47.3578 49.1917 46.794 49.6496C43.8193 52.0758 40.2544 53.6791 36.4584 54.2981C32.7372 54.9016 28.9227 54.549 25.377 53.2738C24.9744 53.1228 24.5652 52.9653 24.1758 52.7946C23.661 52.5779 23.1462 52.3284 22.6512 52.0723C21.8032 51.6244 20.9852 51.1222 20.2026 50.5688C19.2031 49.8529 18.2668 49.0534 17.4042 48.1789C14.6642 45.4534 12.6969 42.0558 11.7018 38.3304C10.7207 34.6382 10.731 30.7546 11.7317 27.0676C12.7324 23.3806 14.6884 20.0195 17.4042 17.3203L18.645 18.5481C16.145 21.0364 14.3424 24.1317 13.4163 27.527C12.4901 30.9223 12.4724 34.4995 13.365 37.9037C13.9287 40.0513 14.8525 42.0889 16.0974 43.9309C17.9729 46.7089 20.516 48.977 23.496 50.5294C23.9514 50.7723 24.42 50.9956 24.8952 51.186C25.2582 51.3435 25.6278 51.488 25.9974 51.6259C29.2932 52.8111 32.8414 53.1268 36.2963 52.5423C39.7512 51.9577 42.995 50.4929 45.7116 48.2905C46.2264 47.8703 46.728 47.4173 47.2032 46.9774C48.3547 45.833 49.363 44.5543 50.2062 43.1693C50.9481 41.9451 51.5586 40.6467 52.0278 39.2956C52.3197 38.4362 52.5556 37.5589 52.734 36.6693C52.9112 35.7832 53.0259 34.8859 53.0772 33.984C53.0772 33.4981 53.1234 33.0057 53.1168 32.5198L54.8724 32.4935Z" fill="#252525"/>
<path opacity="0.5" d="M4.47481 34.9622C4.69142 37.7857 5.33214 40.5609 6.37561 43.1955L4.35601 43.9965C3.23263 41.1599 2.54082 38.1725 2.30341 35.1329L4.47481 34.9622Z" fill="#252525"/>
<path d="M7.57022 45.802C8.92261 48.3939 10.6678 50.7634 12.7446 52.8273L11.2002 54.3636C8.96049 52.1449 7.08124 49.5932 5.62982 46.8L7.57022 45.802Z" fill="#252525"/>
<path d="M54.6546 11.1419C56.073 12.5472 57.3506 14.0865 58.4694 15.7379C60.3632 18.5493 61.7709 21.6562 62.634 24.9298C64.0099 30.1005 63.9971 35.5399 62.5968 40.7041C61.1965 45.8682 58.4578 50.5762 54.6546 54.3571L53.1036 52.8207C57.7779 48.178 60.6872 42.0651 61.3347 35.5259C61.9823 28.9866 60.3281 22.4265 56.6544 16.9657C55.6174 15.4204 54.4279 13.9819 53.1036 12.6717C51.9669 11.5389 50.7372 10.5023 49.4274 9.57273C48.4109 8.84513 47.3458 8.18705 46.2396 7.60303C45.5796 7.26161 44.9196 6.94646 44.2596 6.65757C43.7514 6.43434 43.2234 6.23081 42.702 6.04041C38.0457 4.36566 33.0326 3.91962 28.1514 4.74579C23.2703 5.57196 18.6876 7.64215 14.85 10.7545C14.124 11.352 13.4178 11.9889 12.7446 12.6586C11.1197 14.2764 9.69503 16.0817 8.5008 18.0359C7.44871 19.7621 6.58578 21.5957 5.92681 23.5051C5.09624 25.9269 4.59677 28.4488 4.44181 31.003C4.39561 31.6596 4.38241 32.3818 4.389 33.0712H2.20441C2.20441 32.3293 2.20441 31.5808 2.25721 30.8455C2.33718 29.4736 2.51361 28.109 2.7852 26.7616C3.47743 23.2798 4.77987 19.9461 6.63301 16.9131C7.91594 14.8093 9.44943 12.8671 11.2002 11.1288C11.9196 10.4066 12.6852 9.72374 13.464 9.0803C17.5927 5.72474 22.5266 3.49343 27.7827 2.60491C33.0387 1.71639 38.4367 2.20111 43.4478 4.01161C44.0154 4.21515 44.5764 4.44495 45.1308 4.66818C45.8502 4.97677 46.5696 5.32475 47.2626 5.6793C48.4497 6.30752 49.5959 7.00923 50.6946 7.7803C52.1061 8.78952 53.4307 9.91395 54.6546 11.1419Z" fill="#252525"/>
<path d="M49.698 16.0662C53.6911 20.0461 56.1272 25.3118 56.5686 30.9177L54.813 31.049C54.4012 25.8656 52.1454 20.998 48.4506 17.3202L49.698 16.0662Z" fill="#252525"/>
<path opacity="0.47" d="M16.1568 16.0661L17.4042 17.3136C14.6974 20.0187 12.7475 23.3801 11.7473 27.065C10.7472 30.75 10.7315 34.6308 11.7018 38.3237L9.99241 38.7701C8.93022 34.7771 8.94054 30.5767 10.0223 26.5888C11.1041 22.601 13.2195 18.9657 16.1568 16.0464V16.0661Z" fill="#252525"/>
<path d="M14.6718 44.896C16.1688 47.1059 18.0535 49.0296 20.2356 50.5753L19.2126 52.0066C18.1214 51.2378 17.099 50.3767 16.1568 49.4329C15.0577 48.3441 14.0695 47.1499 13.2066 45.8677L14.6718 44.896Z" fill="#252525"/>
<path d="M24.2022 52.7748L23.496 54.4096C22.9416 54.1733 22.3872 53.9107 21.8526 53.6283L22.6776 52.0723C23.1792 52.3349 23.694 52.5778 24.2022 52.7748Z" fill="#252525"/>
<path d="M48.4506 48.1787L49.698 49.4196C49.137 49.9777 48.5496 50.5095 47.949 51.0019C44.7645 53.597 40.9569 55.3244 36.8993 56.015C32.8417 56.7056 28.6734 56.3356 24.8028 54.9413L25.4034 53.2868C28.9843 54.576 32.8399 54.9205 36.5944 54.2864C40.3489 53.6524 43.8743 52.0617 46.827 49.6691C47.388 49.1964 47.916 48.704 48.4506 48.1787Z" fill="#252525"/>
<path opacity="0.5" d="M56.1924 37.3388C55.6615 40.036 54.6561 42.6187 53.2224 44.9681L51.711 44.062C53.0331 41.8907 53.9644 39.5067 54.4632 37.0171L56.1924 37.3388Z" fill="#252525"/>
<path d="M56.6412 32.4736C56.6412 33.0448 56.6412 33.6226 56.6016 34.1873L54.8394 34.0822C54.8394 33.557 54.879 33.0186 54.879 32.4933L56.6412 32.4736Z" fill="#252525"/>
<path d="M46.8468 18.9026C50.1584 22.2052 52.1759 26.5754 52.536 31.2264L50.7936 31.3643C50.5278 27.9626 49.2873 24.7081 47.2192 21.9864C45.151 19.2646 42.3419 17.1897 39.1246 16.0074C35.9074 14.8252 32.4169 14.5853 29.0668 15.316C25.7166 16.0467 22.6473 17.7175 20.2224 20.1304C17.8921 22.4441 16.2479 25.3519 15.4704 28.5345C14.9046 30.8838 14.8237 33.3229 15.2328 35.7042L13.5036 35.9865C13.0619 33.3681 13.1584 30.6879 13.7874 28.1077C14.4625 25.3671 15.7306 22.806 17.5032 20.6031C17.969 20.0162 18.4693 19.4571 19.0014 18.9289C20.8296 17.1098 23.0002 15.6669 25.3891 14.6824C27.7779 13.6979 30.3384 13.1912 32.9241 13.1912C35.5099 13.1912 38.0703 13.6979 40.4592 14.6824C42.8481 15.6669 45.0186 17.1098 46.8468 18.9289V18.9026Z" fill="#252525"/>
<path d="M15.9786 38.6191C16.4795 40.0512 17.1603 41.4145 18.0048 42.6767C18.6635 43.6443 19.4127 44.5478 20.2422 45.3752L19.0014 46.603C18.0909 45.6971 17.2708 44.7054 16.5528 43.6419C15.6221 42.2584 14.8724 40.7625 14.322 39.1903L15.9786 38.6191Z" fill="#252525"/>
<path d="M45.6126 45.3752L46.8468 46.603C46.3848 47.0626 45.8964 47.5025 45.3948 47.9162C42.749 50.0659 39.5873 51.495 36.2193 52.0636C32.8514 52.6321 29.3927 52.3206 26.1822 51.1596C25.8192 51.0283 25.4562 50.8838 25.1064 50.7328C24.6444 50.5359 24.1824 50.3192 23.7402 50.0763C22.9707 49.6777 22.2278 49.2303 21.516 48.7369C20.7181 48.1721 19.9657 47.5465 19.2654 46.8657L20.4798 45.6116C21.1258 46.2344 21.8186 46.8072 22.5522 47.3252C23.1862 47.7746 23.8474 48.1846 24.5322 48.553C24.9414 48.7631 25.3572 48.9601 25.7796 49.1439C26.103 49.2818 26.4396 49.4131 26.763 49.5313C29.6886 50.584 32.8385 50.8652 35.9058 50.3474C38.9731 49.8296 41.8534 48.5306 44.2662 46.5768C44.7414 46.2091 45.1902 45.7889 45.6126 45.3752Z" fill="#252525"/>
<path d="M32.8944 17.4187C29.8605 17.4174 26.8943 18.3112 24.371 19.987C21.8478 21.6629 19.8808 24.0455 18.7188 26.8335C17.5569 29.6216 17.2522 32.6898 17.8433 35.6501C18.4344 38.6104 19.8947 41.3298 22.0396 43.4644C24.1844 45.599 26.9174 47.0529 29.893 47.6422C32.8685 48.2315 35.9529 47.9297 38.756 46.775C41.5591 45.6203 43.955 43.6646 45.6407 41.1552C47.3264 38.6458 48.2262 35.6954 48.2262 32.6773C48.227 30.6738 47.8311 28.6898 47.061 26.8386C46.2909 24.9874 45.1617 23.3052 43.7379 21.8882C42.3142 20.4713 40.6237 19.3472 38.7631 18.5803C36.9026 17.8134 34.9083 17.4187 32.8944 17.4187ZM32.8944 43.6813C30.7141 43.6761 28.5842 43.0285 26.7735 41.8203C24.9628 40.6121 23.5525 38.8973 22.7206 36.8925C21.8886 34.8876 21.6723 32.6825 22.0989 30.5555C22.5256 28.4285 23.576 26.4748 25.1177 24.9411C26.6595 23.4074 28.6233 22.3624 30.7615 21.938C32.8996 21.5136 35.1163 21.7288 37.1316 22.5564C39.1469 23.384 40.8707 24.787 42.0852 26.5883C43.2998 28.3895 43.9508 30.5083 43.956 32.6773C43.9551 34.1209 43.6682 35.5501 43.1117 36.8834C42.5552 38.2166 41.7399 39.4276 40.7126 40.4471C39.6852 41.4667 38.466 42.2748 37.1245 42.8252C35.7829 43.3757 34.3455 43.6577 32.8944 43.6551V43.6813Z" fill="#252525"/>
<path d="M32.8944 21.6995C30.713 21.7047 28.5821 22.3529 26.7708 23.5623C24.9596 24.7717 23.5493 26.488 22.7181 28.4944C21.8869 30.5008 21.6721 32.7072 22.1009 34.835C22.5297 36.9627 23.5827 38.9163 25.1271 40.449C26.6714 41.9816 28.6378 43.0245 30.7777 43.446C32.9176 43.8675 35.135 43.6485 37.1499 42.8169C39.1648 41.9852 40.8867 40.5782 42.0981 38.7735C43.3095 36.9687 43.956 34.8474 43.956 32.6773C43.956 31.2334 43.6697 29.8038 43.1135 28.4702C42.5573 27.1366 41.7421 25.9252 40.7146 24.9055C39.687 23.8858 38.4674 23.0777 37.1255 22.5276C35.7836 21.9774 34.3458 21.696 32.8944 21.6995ZM32.8944 40.0833C31.4243 40.0833 29.9872 39.6496 28.765 38.8369C27.5427 38.0243 26.5902 36.8693 26.0279 35.518C25.4656 34.1668 25.3188 32.68 25.6061 31.2457C25.8934 29.8114 26.6018 28.4942 27.6418 27.4605C28.6818 26.4268 30.0066 25.7232 31.4486 25.4387C32.8907 25.1542 34.3851 25.3016 35.7429 25.8621C37.1008 26.4227 38.261 27.3713 39.0768 28.5879C39.8926 29.8045 40.3273 31.2345 40.326 32.697C40.319 34.6531 39.533 36.5268 38.14 37.9076C36.7471 39.2884 34.8608 40.0636 32.8944 40.0636V40.0833Z" fill="#252525"/>
</g>
</svg>
