<svg width="68" height="35" viewBox="0 0 68 35" fill="none" xmlns="http://www.w3.org/2000/svg">
<path d="M6.44893 27.5516H61.5511C63.2556 27.5516 64.8909 26.8768 66.0994 25.6747C67.3078 24.4726 67.9911 22.841 68 21.1365C67.9911 19.4289 67.3089 17.7937 66.1014 16.5862C64.8939 15.3787 63.2587 14.6965 61.5511 14.6876H6.44893C4.74131 14.6965 3.10612 15.3787 1.89864 16.5862C0.691162 17.7937 0.00892639 19.4289 5.34058e-05 21.1365C0.0089798 22.841 0.692375 24.4726 1.9008 25.6747C3.10924 26.8768 4.74442 27.5516 6.44893 27.5516Z" fill="white"/>
<path d="M15.4281 20.4946H47.1322C48.8367 20.4856 50.4684 19.8022 51.6705 18.5938C52.8726 17.3854 53.5473 15.7502 53.5473 14.0457C53.5384 12.347 52.8596 10.7205 51.6585 9.51931C50.4574 8.31816 48.8309 7.63949 47.1322 7.63062H15.4281C13.7267 7.63062 12.095 8.30646 10.8919 9.50952C9.68887 10.7126 9.01303 12.3443 9.01303 14.0457C9.013 15.7502 9.68777 17.3854 10.8899 18.5938C12.092 19.8022 13.7236 20.4856 15.4281 20.4946Z" fill="white"/>
<path d="M23.2091 12.8639H28.9152C30.6197 12.864 32.2549 12.1892 33.4633 10.9871C34.6717 9.785 35.355 8.15336 35.364 6.44887C35.3551 4.74126 34.6728 3.10617 33.4654 1.89869C32.2579 0.691213 30.6228 0.00887087 28.9152 0H23.2091C21.5015 0.00887087 19.8663 0.691213 18.6588 1.89869C17.4514 3.10617 16.7691 4.74126 16.7602 6.44887C16.7692 8.15336 17.4525 9.785 18.6609 10.9871C19.8693 12.1892 21.5046 12.864 23.2091 12.8639Z" fill="white"/>
<path d="M35.4837 34.642H47.1322C48.8367 34.6331 50.4684 33.9497 51.6705 32.7413C52.8726 31.5328 53.5473 29.8977 53.5473 28.1932C53.5384 26.4945 52.8596 24.8679 51.6585 23.6668C50.4574 22.4656 48.8309 21.7869 47.1322 21.7781H35.4837C33.7792 21.7781 32.144 22.4528 30.9356 23.6549C29.7272 24.857 29.0438 26.4887 29.0349 28.1932C29.0437 29.9008 29.7261 31.5359 30.9335 32.7433C32.141 33.9508 33.7761 34.6331 35.4837 34.642Z" fill="white"/>
</svg>
