<svg width="202" height="116" viewBox="0 0 202 116" fill="none" xmlns="http://www.w3.org/2000/svg">
<path d="M44.3705 23.8261H7.46345C5.48735 23.8153 3.59515 23.0255 2.19781 21.6282C0.800477 20.2308 0.0107692 18.3387 8.3777e-10 16.3626C-2.96093e-05 14.3794 0.784924 12.4769 2.18342 11.0707C3.58192 9.66455 5.48027 8.86911 7.46345 8.85828H44.3705C46.3608 8.85828 48.2695 9.64886 49.6769 11.0562C51.0843 12.4636 51.8748 14.3724 51.8748 16.3626C51.864 18.3458 51.0686 20.2441 49.6624 21.6426C48.2562 23.041 46.3537 23.8261 44.3705 23.8261Z" fill="white"/>
<path d="M33.9953 14.9678H27.352C25.3617 14.9678 23.4529 14.1772 22.0455 12.7699C20.6382 11.3625 19.8476 9.45375 19.8476 7.46345C19.8584 5.48027 20.6539 3.58192 22.06 2.18342C23.4662 0.784924 25.3688 -2.96093e-05 27.352 8.37537e-10H33.9953C35.9785 -2.96093e-05 37.8811 0.784924 39.2873 2.18342C40.6934 3.58192 41.4889 5.48027 41.4997 7.46345C41.4997 9.45375 40.7091 11.3625 39.3018 12.7699C37.8944 14.1772 35.9856 14.9678 33.9953 14.9678Z" fill="white"/>
<path d="M193.945 106.435H127.02C124.95 106.435 122.964 105.615 121.496 104.155C120.028 102.695 119.198 100.714 119.188 98.6435C119.198 96.5695 120.027 94.5835 121.493 93.1169C122.96 91.6504 124.946 90.8217 127.02 90.811H193.945C196.019 90.8217 198.005 91.6504 199.471 93.1169C200.938 94.5835 201.766 96.5695 201.777 98.6435C201.766 100.714 200.936 102.695 199.469 104.155C198.001 105.615 196.015 106.435 193.945 106.435Z" fill="white"/>
<path d="M180.412 97.864H141.906C139.836 97.8532 137.854 97.0231 136.394 95.5554C134.934 94.0877 134.114 92.1017 134.114 90.0315C134.125 87.9684 134.95 85.9928 136.408 84.534C137.867 83.0751 139.843 82.2508 141.906 82.2401H180.412C182.479 82.2401 184.46 83.0609 185.922 84.5221C187.383 85.9833 188.204 87.9651 188.204 90.0315C188.204 92.1017 187.384 94.0877 185.924 95.5554C184.464 97.0231 182.482 97.8532 180.412 97.864Z" fill="white"/>
<path d="M169.586 88.5961H162.655C160.585 88.5962 158.599 87.7766 157.131 86.3166C155.664 84.8566 154.834 82.8749 154.823 80.8047C154.834 78.7307 155.662 76.7448 157.129 75.2782C158.595 73.8117 160.581 72.9829 162.655 72.9722H169.586C171.66 72.9829 173.646 73.8117 175.112 75.2782C176.579 76.7448 177.407 78.7307 177.418 80.8047C177.407 82.8749 176.577 84.8566 175.11 86.3166C173.642 87.7766 171.656 88.5962 169.586 88.5961Z" fill="white"/>
<path d="M156.054 115.047H141.906C139.836 115.036 137.854 114.206 136.394 112.738C134.934 111.271 134.114 109.285 134.114 107.214C134.125 105.151 134.95 103.176 136.408 101.717C137.867 100.258 139.843 99.4337 141.906 99.4229H156.054C158.124 99.4229 160.11 100.242 161.578 101.702C163.045 103.162 163.875 105.144 163.886 107.214C163.875 109.288 163.047 111.274 161.58 112.741C160.113 114.207 158.128 115.036 156.054 115.047Z" fill="white"/>
</svg>
