<svg width="84" height="84" viewBox="0 0 84 84" fill="none" xmlns="http://www.w3.org/2000/svg">
<g clip-path="url(#clip0_713_3995)">
<path d="M28.8567 33.4341V59.3861C28.8567 60.2529 29.5848 60.9463 30.4863 60.9463H55.1034C56.0049 60.9463 56.733 60.2355 56.733 59.3861V27.1238C56.733 26.257 56.0049 25.5635 55.1034 25.5635H37.438L28.8567 33.4341Z" fill="#43AE44"/>
<path d="M27.2444 30.9204V57.8779C27.2444 58.7793 27.9726 59.5074 28.874 59.5074H53.4911C54.3926 59.5074 55.1207 58.7793 55.1207 57.8779V24.3674C55.1207 23.4659 54.3926 22.7378 53.4911 22.7378H35.8258L27.2444 30.9204Z" fill="#742D80"/>
<path d="M27.2444 30.9204L35.8258 22.7378V29.3081C35.8258 30.2096 35.0977 30.9377 34.1962 30.9377H27.2444V30.9204Z" fill="#43AE44"/>
<path d="M41.8587 50.042C37.7154 50.042 34.3002 48.7418 33.7974 47.0775V49.4352C33.7974 51.3075 37.4206 52.8331 41.8587 52.8331C46.314 52.8331 49.9199 51.3075 49.9199 49.4352V47.0775C49.4345 48.7418 46.0193 50.042 41.8587 50.042Z" fill="#43AE44"/>
<path d="M41.8587 45.3613C37.7154 45.3613 34.3002 44.0611 33.7974 42.3969V44.7545C33.7974 46.6268 37.4206 48.1524 41.8587 48.1524C46.314 48.1524 49.9199 46.6268 49.9199 44.7545V42.3969C49.4345 44.0784 46.002 45.3613 41.8587 45.3613Z" fill="#43AE44"/>
<path d="M33.7801 37.2827V40.0738C33.7801 41.9461 37.4033 43.4717 41.8413 43.4717C46.2967 43.4717 49.9026 41.9461 49.9026 40.0738V37.2827H33.7801Z" fill="#43AE44"/>
<path d="M41.8587 40.6805C46.3108 40.6805 49.9199 39.1593 49.9199 37.2827C49.9199 35.4061 46.3108 33.8848 41.8587 33.8848C37.4066 33.8848 33.7974 35.4061 33.7974 37.2827C33.7974 39.1593 37.4066 40.6805 41.8587 40.6805Z" fill="#43AE44"/>
<path d="M41.8587 39.415C45.1618 39.415 47.8396 38.4604 47.8396 37.2827C47.8396 36.1051 45.1618 35.1504 41.8587 35.1504C38.5555 35.1504 35.8777 36.1051 35.8777 37.2827C35.8777 38.4604 38.5555 39.415 41.8587 39.415Z" fill="white"/>
<path opacity="0.2" d="M41.9774 1.69173C52.7368 1.69173 62.8646 5.88722 70.4887 13.4887C78.1128 21.0902 82.2857 31.218 82.2857 42C82.2857 52.7594 78.0902 62.8872 70.4887 70.5113C62.8646 78.1353 52.7594 82.3083 41.9774 82.3083C31.218 82.3083 21.0902 78.1128 13.4661 70.5113C5.86463 62.8872 1.66915 52.7594 1.66915 42C1.66915 31.2406 5.86463 21.1128 13.4661 13.4887C21.0902 5.88722 31.218 1.69173 41.9774 1.69173ZM41.9774 0C18.7894 0 -0.022583 18.812 -0.022583 42C-0.022583 65.188 18.7894 84 41.9774 84C65.1654 84 83.9774 65.188 83.9774 42C83.9774 18.812 65.1654 0 41.9774 0Z" fill="#742D80"/>
</g>
<defs>
<clipPath id="clip0_713_3995">
<rect width="84" height="84" fill="white"/>
</clipPath>
</defs>
</svg>
