<svg width="84" height="84" viewBox="0 0 84 84" fill="none" xmlns="http://www.w3.org/2000/svg">
<path d="M60.2689 57.1728H23.7311C22.8929 57.1728 22.1916 56.4715 22.1916 55.6333V28.3668C22.1916 27.5286 22.8929 26.8273 23.7311 26.8273H60.2689C61.1071 26.8273 61.8084 27.5286 61.8084 28.3668V55.6333C61.8084 56.4715 61.1071 57.1728 60.2689 57.1728Z" fill="#43AE44"/>
<path d="M60.2689 57.1728H23.7311C22.8929 57.1728 22.1916 56.4714 22.1916 55.6333V32.0958C22.1916 31.2576 22.8929 30.5563 23.7311 30.5563H60.2689C61.1071 30.5563 61.8084 31.2576 61.8084 32.0958V55.6162C61.8084 56.4714 61.1071 57.1728 60.2689 57.1728Z" fill="#742D80"/>
<path d="M52.0068 45.8317V42.0855L50.1081 41.7605C49.8857 40.8539 49.5265 40.0158 49.0647 39.246L50.1594 37.6723L47.508 35.0209L45.9343 36.1156C45.1817 35.6709 44.3093 35.2946 43.4198 35.0722L43.0948 33.1735H39.3144L38.9894 35.0722C38.0828 35.2946 37.2446 35.6538 36.4748 36.1156L34.9011 35.0209L32.2497 37.6723L33.3445 39.246C32.8998 39.9986 32.5234 40.871 32.301 41.7605L30.4023 42.0855V45.8317L32.301 46.1567C32.5234 47.0633 32.8826 47.9015 33.3445 48.6712L32.2497 50.245L34.9011 52.8964L36.4748 51.8016C37.2275 52.2463 38.0999 52.6227 38.9894 52.845L39.3144 54.7438H43.0606L43.3856 52.845C44.2922 52.6227 45.1303 52.2635 45.9001 51.8016L47.4738 52.8964L50.1252 50.245L49.0305 48.6712C49.4752 47.9186 49.8515 47.0462 50.0739 46.1567L52.0068 45.8317Z" fill="#43AE44"/>
<path d="M39.246 49.7832C39.7763 51.0148 40.4605 51.7503 41.0934 51.853C41.1276 51.853 41.1961 51.853 41.2303 51.853C41.2645 51.853 41.3329 51.853 41.3671 51.853C42.0171 51.7503 42.6843 50.9977 43.2145 49.7832C43.5053 49.0819 43.7448 48.295 43.933 47.4226H38.5447C38.6986 48.295 38.9381 49.099 39.246 49.7832Z" fill="#742D80"/>
<path d="M44.5316 37.6039C44.9079 38.4592 45.1987 39.4513 45.3869 40.529H48.3462C47.4738 38.6816 45.883 37.2276 43.9671 36.5262C44.2066 36.8513 44.3777 37.2105 44.5316 37.6039Z" fill="white"/>
<path d="M44.2409 43.9672C44.2409 43.2829 44.2066 42.6158 44.1211 41.9829H38.3052C38.2196 42.6329 38.1854 43.3 38.1854 43.9672C38.1854 44.6514 38.2196 45.3185 38.3052 45.9514H44.1211C44.2238 45.3356 44.2409 44.6685 44.2409 43.9672Z" fill="white"/>
<path d="M45.6948 43.9672C45.6948 44.6514 45.6606 45.3185 45.5921 45.9515H48.8593C49.0133 45.3014 49.1159 44.6172 49.1159 43.9159C49.1159 43.2316 49.0133 42.5816 48.8764 41.9658H45.575C45.6777 42.65 45.6948 43.3001 45.6948 43.9672Z" fill="white"/>
<path d="M33.5669 41.9829C33.4129 42.5987 33.3274 43.2658 33.3274 43.933C33.3274 44.6343 33.43 45.3014 33.584 45.9685H36.8512C36.7656 45.3185 36.7485 44.6514 36.7485 43.9843C36.7485 43.3172 36.7828 42.6329 36.8512 42L33.5669 41.9829Z" fill="white"/>
<path d="M37.9288 50.3648C37.5525 49.5095 37.2617 48.5174 37.0735 47.4397H34.1485C35.0209 49.2358 36.5604 50.6385 38.442 51.3569C38.2538 51.0319 38.0828 50.724 37.9288 50.3648Z" fill="white"/>
<path d="M45.404 47.4397C45.2159 48.5174 44.908 49.5095 44.5488 50.3648C44.3948 50.7411 44.2237 51.0661 44.0356 51.3569C45.9172 50.6385 47.4567 49.2358 48.3291 47.4397H45.404Z" fill="white"/>
<path d="M43.2145 38.1854C42.65 36.8854 41.8974 36.0985 41.2474 36.0985C40.5631 36.0985 39.8447 36.8854 39.2802 38.1854C38.9894 38.8867 38.7499 39.6736 38.5618 40.546H43.9501C43.7619 39.6736 43.5224 38.8867 43.2145 38.1854Z" fill="white"/>
<path d="M37.0736 40.529C37.2617 39.4513 37.5696 38.4592 37.9289 37.6039C38.0828 37.1934 38.3052 36.8684 38.4933 36.5262C36.5775 37.2447 35.0038 38.6816 34.1143 40.529H37.0736Z" fill="white"/>
<path d="M26.6391 29.5299H25.5956C25.1851 29.5299 24.8601 29.2049 24.8601 28.7944C24.8601 28.3838 25.1851 28.0588 25.5956 28.0588H26.6391C27.0496 28.0588 27.3746 28.3838 27.3746 28.7944C27.3575 29.2049 27.0325 29.5299 26.6391 29.5299Z" fill="white"/>
<path d="M30.1628 29.5299H29.1194C28.7088 29.5299 28.3838 29.2049 28.3838 28.7944C28.3838 28.3838 28.7088 28.0588 29.1194 28.0588H30.1628C30.5733 28.0588 30.8984 28.3838 30.8984 28.7944C30.8813 29.2049 30.5562 29.5299 30.1628 29.5299Z" fill="white"/>
<path opacity="0.2" d="M42 1.69173C52.7594 1.69173 62.8872 5.88722 70.5113 13.4887C78.1353 21.0902 82.3083 31.218 82.3083 42C82.3083 52.7594 78.1128 62.8872 70.5113 70.5113C62.8872 78.1353 52.782 82.3083 42 82.3083C31.2406 82.3083 21.1128 78.1128 13.4887 70.5113C5.88722 62.8872 1.69173 52.7594 1.69173 42C1.69173 31.2406 5.88722 21.1128 13.4887 13.4887C21.1128 5.88722 31.2406 1.69173 42 1.69173ZM42 0C18.812 0 0 18.812 0 42C0 65.188 18.812 84 42 84C65.188 84 84 65.188 84 42C84 18.812 65.188 0 42 0Z" fill="#742D80"/>
</svg>
