<svg width="84" height="84" viewBox="0 0 84 84" fill="none" xmlns="http://www.w3.org/2000/svg">
<g clip-path="url(#clip0_713_3992)">
<path d="M28.8566 33.4341V59.3861C28.8566 60.2529 29.5847 60.9464 30.4862 60.9464H55.1033C56.0047 60.9464 56.7329 60.2356 56.7329 59.3861V27.1238C56.7329 26.257 56.0047 25.5636 55.1033 25.5636H37.4379L28.8566 33.4341Z" fill="#43AE44"/>
<path d="M27.2444 30.9204V57.8779C27.2444 58.7793 27.9725 59.5074 28.874 59.5074H53.4911C54.3926 59.5074 55.1207 58.7793 55.1207 57.8779V24.3674C55.1207 23.4659 54.3926 22.7378 53.4911 22.7378H35.8257L27.2444 30.9204Z" fill="#742D80"/>
<path d="M27.2444 30.9204L35.8257 22.7378V29.3081C35.8257 30.2096 35.0976 30.9377 34.1961 30.9377H27.2444V30.9204Z" fill="#43AE44"/>
<path d="M41.8586 50.042C37.7153 50.042 34.3001 48.7418 33.7974 47.0775V49.4352C33.7974 51.3075 37.4206 52.8331 41.8586 52.8331C46.314 52.8331 49.9198 51.3075 49.9198 49.4352V47.0775C49.4344 48.7418 46.0192 50.042 41.8586 50.042Z" fill="#43AE44"/>
<path d="M41.8586 45.3613C37.7153 45.3613 34.3001 44.0611 33.7974 42.3969V44.7545C33.7974 46.6268 37.4206 48.1524 41.8586 48.1524C46.314 48.1524 49.9198 46.6268 49.9198 44.7545V42.3969C49.4344 44.0784 46.0019 45.3613 41.8586 45.3613Z" fill="white"/>
<path d="M33.78 37.2827V40.0738C33.78 41.9461 37.4033 43.4717 41.8413 43.4717C46.2966 43.4717 49.9025 41.9461 49.9025 40.0738V37.2827H33.78Z" fill="#03C202"/>
<path d="M41.8586 40.6806C46.3107 40.6806 49.9198 39.1593 49.9198 37.2827C49.9198 35.4062 46.3107 33.8849 41.8586 33.8849C37.4065 33.8849 33.7974 35.4062 33.7974 37.2827C33.7974 39.1593 37.4065 40.6806 41.8586 40.6806Z" fill="#03C202"/>
<path d="M41.8586 39.415C45.1618 39.415 47.8395 38.4604 47.8395 37.2827C47.8395 36.1051 45.1618 35.1504 41.8586 35.1504C38.5554 35.1504 35.8777 36.1051 35.8777 37.2827C35.8777 38.4604 38.5554 39.415 41.8586 39.415Z" fill="white"/>
<path opacity="0.2" d="M41.9774 1.69173C52.7368 1.69173 62.8646 5.88722 70.4887 13.4887C78.1128 21.0902 82.2857 31.218 82.2857 42C82.2857 52.7594 78.0902 62.8872 70.4887 70.5113C62.8646 78.1353 52.7594 82.3083 41.9774 82.3083C31.218 82.3083 21.0902 78.1128 13.4661 70.5113C5.86463 62.8872 1.66915 52.7594 1.66915 42C1.66915 31.2406 5.86463 21.1128 13.4661 13.4887C21.0902 5.88722 31.218 1.69173 41.9774 1.69173ZM41.9774 0C18.7894 0 -0.022583 18.812 -0.022583 42C-0.022583 65.188 18.7894 84 41.9774 84C65.1654 84 83.9774 65.188 83.9774 42C83.9774 18.812 65.1654 0 41.9774 0Z" fill="#742D80"/>
</g>
<defs>
<clipPath id="clip0_713_3992">
<rect width="84" height="84" fill="white"/>
</clipPath>
</defs>
</svg>
