<svg width="84" height="84" viewBox="0 0 84 84" fill="none" xmlns="http://www.w3.org/2000/svg">
<path d="M25.9362 54.0656V57.8382C25.9362 59.9203 33.0189 61.6109 41.7744 61.6109C50.5299 61.6109 57.6126 59.9203 57.6126 57.8382V54.0656H25.9362Z" fill="#03C202"/>
<path d="M41.7744 57.8382C50.5216 57.8382 57.6126 56.1491 57.6126 54.0655C57.6126 51.9819 50.5216 50.2928 41.7744 50.2928C33.0272 50.2928 25.9362 51.9819 25.9362 54.0655C25.9362 56.1491 33.0272 57.8382 41.7744 57.8382Z" fill="#742D80"/>
<path d="M41.7744 54.0655C50.5216 54.0655 57.6126 46.9745 57.6126 38.2273C57.6126 29.4802 50.5216 22.3892 41.7744 22.3892C33.0272 22.3892 25.9362 29.4802 25.9362 38.2273C25.9362 46.9745 33.0272 54.0655 41.7744 54.0655Z" fill="#03C202"/>
<path d="M41.7745 51.574C49.1457 51.574 55.1212 45.5985 55.1212 38.2273C55.1212 30.856 49.1457 24.8805 41.7745 24.8805C34.4032 24.8805 28.4277 30.856 28.4277 38.2273C28.4277 45.5985 34.4032 51.574 41.7745 51.574Z" fill="#742D80"/>
<path d="M41.7801 43.0995C44.4519 43.0995 46.6178 40.9336 46.6178 38.2618C46.6178 35.59 44.4519 33.4241 41.7801 33.4241C39.1084 33.4241 36.9424 35.59 36.9424 38.2618C36.9424 40.9336 39.1084 43.0995 41.7801 43.0995Z" fill="white"/>
<path opacity="0.2" d="M42 1.69173C52.7594 1.69173 62.8872 5.88722 70.5113 13.4887C78.1353 21.0902 82.3083 31.218 82.3083 42C82.3083 52.7594 78.1128 62.8872 70.5113 70.5113C62.8872 78.1353 52.782 82.3083 42 82.3083C31.2406 82.3083 21.1128 78.1128 13.4887 70.5113C5.88722 62.8872 1.69173 52.7594 1.69173 42C1.69173 31.2406 5.88722 21.1128 13.4887 13.4887C21.1128 5.88722 31.2406 1.69173 42 1.69173ZM42 0C18.812 0 0 18.812 0 42C0 65.188 18.812 84 42 84C65.188 84 84 65.188 84 42C84 18.812 65.188 0 42 0Z" fill="#742D80"/>
</svg>
