<svg width="84" height="84" viewBox="0 0 84 84" fill="none" xmlns="http://www.w3.org/2000/svg">
<g clip-path="url(#clip0_713_3996)">
<path d="M61.3279 25.9476H22.672C21.7852 25.9476 21.0432 26.6896 21.0432 27.5764V56.4236C21.0432 57.3104 21.7852 58.0523 22.672 58.0523H61.3279C62.2328 58.0523 62.9567 57.3104 62.9567 56.4236V27.5764C62.9567 26.6896 62.2147 25.9476 61.3279 25.9476ZM25.7485 28.807H24.6446C24.2103 28.807 23.8664 28.4632 23.8664 28.0288C23.8664 27.5945 24.2103 27.2506 24.6446 27.2506H25.7485C26.1829 27.2506 26.5267 27.5945 26.5267 28.0288C26.5267 28.4632 26.1829 28.807 25.7485 28.807ZM29.4947 28.807H28.3907C27.9564 28.807 27.6126 28.4632 27.6126 28.0288C27.6126 27.5945 27.9564 27.2506 28.3907 27.2506H29.4947C29.929 27.2506 30.2729 27.5945 30.2729 28.0288C30.2367 28.4632 29.8928 28.807 29.4947 28.807Z" fill="#03C202"/>
<path d="M61.3279 58.0523H22.672C21.7852 58.0523 21.0432 57.3103 21.0432 56.4236V31.5216C21.0432 30.6348 21.7852 29.8928 22.672 29.8928H61.3279C62.2147 29.8928 62.9567 30.6348 62.9567 31.5216V56.4055C62.9567 57.3103 62.2328 58.0523 61.3279 58.0523Z" fill="#742D80"/>
<path d="M58.0523 44.6422C56.8397 44.6965 56.7131 45.348 56.7131 45.8366C56.7131 46.2891 56.7673 46.7234 56.8035 47.212C56.8578 47.6826 56.9121 48.1531 56.9121 48.6055C56.9121 50.361 55.8082 50.9944 54.2518 50.9944H53.6184V49.5285H53.9261C54.7223 49.5104 55.0119 49.0399 55.0119 48.2617C55.0119 47.9721 54.9757 47.6283 54.9214 47.2663C54.8852 46.8863 54.8309 46.4881 54.8309 46.0357C54.8128 44.6965 55.3558 44.1898 56.333 44.0088V43.9545C55.3377 43.7554 54.8128 43.2306 54.8309 41.9276C54.8309 41.4571 54.8852 41.077 54.9214 40.7151C54.9757 40.335 55.0119 40.0274 55.0119 39.7016C55.0119 38.9234 54.7404 38.471 53.9261 38.4529H53.6184V36.9689H54.2337C55.8806 36.9689 56.894 37.6928 56.894 39.3397C56.894 39.7921 56.8397 40.2446 56.7854 40.7332C56.7492 41.2037 56.695 41.6742 56.695 42.1086C56.7131 42.6334 56.8397 43.2668 58.0342 43.3211V44.6422H58.0523Z" fill="#03C202"/>
<path d="M25.9657 43.303C27.1782 43.2487 27.3049 42.5972 27.3049 42.1086C27.3049 41.6561 27.2506 41.2218 27.2144 40.7332C27.1601 40.2626 27.1058 39.7921 27.1058 39.3397C27.1058 37.5842 28.2098 36.9508 29.7661 36.9508H30.3995V38.4167H30.0919C29.2956 38.4348 29.0061 38.9053 29.0061 39.6835C29.0061 39.9731 29.0422 40.3169 29.0965 40.6789C29.1327 41.0589 29.187 41.457 29.187 41.9095C29.2051 43.2487 28.6622 43.7554 27.6849 43.9364V43.9726C28.6803 44.1716 29.2051 44.6965 29.187 45.9995C29.187 46.47 29.1327 46.8501 29.0965 47.212C29.0422 47.592 29.0061 47.8997 29.0061 48.2255C29.0061 49.0036 29.2775 49.4561 30.0919 49.4742H30.3995V50.9582H29.7842C28.1374 50.9582 27.1239 50.2343 27.1239 48.5874C27.1239 48.135 27.1782 47.6825 27.2325 47.1939C27.2687 46.7234 27.323 46.2528 27.323 45.8185C27.3049 45.2937 27.1782 44.6603 25.9838 44.606V43.303H25.9657Z" fill="#03C202"/>
<path d="M51.5554 45.6195V42.3077L49.8723 42.0181C49.6733 41.2218 49.3656 40.4618 48.9494 39.7922L49.9266 38.3987L47.574 36.046L46.1805 37.0233C45.4928 36.607 44.7508 36.2813 43.9545 36.1003L43.6649 34.4172H40.335L40.0455 36.1003C39.2492 36.2994 38.4891 36.607 37.8195 37.0233L36.426 36.046L34.0733 38.3987L35.0506 39.7922C34.6344 40.4799 34.3086 41.2218 34.1276 42.0181L32.4446 42.3077V45.6195L34.1276 45.9091C34.3267 46.7053 34.6344 47.4654 35.0506 48.135L34.0733 49.5285L36.426 51.8812L37.8195 50.9039C38.5072 51.3202 39.2492 51.6459 40.0455 51.8269L40.335 53.51H43.6468L43.9364 51.8269C44.7327 51.6278 45.4928 51.3202 46.1624 50.9039L47.5559 51.8812L49.9085 49.5285L48.9313 48.135C49.3475 47.4473 49.6733 46.7053 49.8542 45.9091L51.5554 45.6195ZM42.0181 50.4153C38.4529 50.4153 35.5754 47.5197 35.5754 43.9726C35.5754 40.4256 38.471 37.53 42.0181 37.53C45.5652 37.53 48.4607 40.4256 48.4607 43.9726C48.4426 47.5197 45.5833 50.4153 42.0181 50.4153Z" fill="white"/>
<path opacity="0.2" d="M41.9324 1.69173C52.6918 1.69173 62.8196 5.88722 70.4436 13.4887C78.0677 21.0902 82.2406 31.218 82.2406 42C82.2406 52.7594 78.0451 62.8872 70.4436 70.5113C62.8196 78.1353 52.7143 82.3083 41.9324 82.3083C31.173 82.3083 21.0452 78.1128 13.4211 70.5113C5.81959 62.8872 1.6241 52.7594 1.6241 42C1.6241 31.2406 5.81959 21.1128 13.4211 13.4887C21.0452 5.88722 31.173 1.69173 41.9324 1.69173ZM41.9324 0C18.7444 0 -0.067627 18.812 -0.067627 42C-0.067627 65.188 18.7444 84 41.9324 84C65.1203 84 83.9324 65.188 83.9324 42C83.9324 18.812 65.1203 0 41.9324 0Z" fill="#742D80"/>
</g>
<defs>
<clipPath id="clip0_713_3996">
<rect width="84" height="84" fill="white"/>
</clipPath>
</defs>
</svg>
