<svg width="84" height="84" viewBox="0 0 84 84" fill="none" xmlns="http://www.w3.org/2000/svg">
<g clip-path="url(#clip0_713_3998)">
<path d="M40.8887 22.0367C35.7121 27.6957 27.8266 29.4398 24.8579 29.9408C24.1714 30.0521 23.6705 30.6458 23.6705 31.3323V42.0195C23.6705 54.0611 38.2355 60.9633 41.4082 62.3363C41.7979 62.5033 42.2246 62.5033 42.6142 62.3363C45.787 60.9633 60.352 54.0611 60.352 42.0195V31.4251C60.352 30.6829 59.8139 30.0336 59.0717 29.9222C56.0289 29.4213 48.2732 27.6401 43.1337 22.0367C42.54 21.3873 41.4824 21.3873 40.8887 22.0367Z" fill="#742D80"/>
<path d="M47.7538 40.5723H36.2502V49.7565H47.7538V40.5723Z" fill="white"/>
<path d="M49.7762 37.8448H48.6629V36.4533C48.6629 32.7796 45.6943 29.8109 42.0206 29.8109C38.3654 29.8109 35.3967 32.761 35.3782 36.4162V37.8448H34.5989C33.8753 37.8448 33.3001 38.4386 33.3001 39.1436V51.2966C33.3001 51.8347 33.7083 52.2428 34.2464 52.2428H49.7947C50.3328 52.2428 50.741 51.8347 50.741 51.2966V38.7911C50.741 38.253 50.2957 37.8448 49.7762 37.8448ZM38.3097 36.4162C38.3283 34.3752 39.9611 32.7425 42.002 32.7425C44.0615 32.7425 45.6943 34.3938 45.6943 36.4347V37.8263H38.2912L38.3097 36.4162ZM44.043 42.7988C44.043 43.912 43.1338 44.8583 41.9835 44.8583C40.8702 44.8583 39.9425 43.9492 39.9425 42.7988C39.9425 41.6855 40.8517 40.7393 41.9835 40.7393C43.1153 40.7393 44.043 41.667 44.043 42.7988ZM46.1767 48.3094H37.8273C37.6232 48.3094 37.4748 48.1053 37.549 47.9197C37.9201 46.8993 38.5695 46.0458 39.4044 45.4706C39.5158 45.3778 39.6642 45.3778 39.757 45.4891C40.3507 45.9716 41.1114 46.2499 41.9092 46.2499C42.7627 46.2499 43.5234 45.9344 44.1357 45.4149C44.2285 45.3222 44.3769 45.3222 44.4883 45.3964C45.3603 45.9901 46.0468 46.8807 46.4364 47.9383C46.5107 48.1053 46.3808 48.3094 46.1767 48.3094Z" fill="#03C202"/>
<path opacity="0.2" d="M42.0226 1.69173C52.782 1.69173 62.9098 5.88722 70.5338 13.4887C78.1579 21.0902 82.3308 31.2406 82.3308 42C82.3308 52.7594 78.1353 62.8872 70.5338 70.5113C62.9098 78.1353 52.8045 82.3083 42.0226 82.3083C31.2632 82.3083 21.1353 78.1128 13.5113 70.5113C5.90977 62.8872 1.71428 52.7594 1.71428 42C1.71428 31.2406 5.90977 21.1128 13.5113 13.4887C21.1353 5.88722 31.2406 1.69173 42.0226 1.69173ZM42.0226 0C18.812 0 0.0225525 18.812 0.0225525 42C0.0225525 65.188 18.8346 84 42.0226 84C65.2105 84 84.0226 65.188 84.0226 42C84.0226 18.812 65.2105 0 42.0226 0Z" fill="#742D80"/>
</g>
<defs>
<clipPath id="clip0_713_3998">
<rect width="84" height="84" fill="white"/>
</clipPath>
</defs>
</svg>
