<svg id="eRqTyWdpxDA1" xmlns="http://www.w3.org/2000/svg" xmlns:xlink="http://www.w3.org/1999/xlink" viewBox="0 0 62 42" shape-rendering="geometricPrecision" text-rendering="geometricPrecision"><style><![CDATA[#eRqTyWdpxDA2_ts {animation: eRqTyWdpxDA2_ts__ts 3000ms linear infinite normal forwards}@keyframes eRqTyWdpxDA2_ts__ts { 0% {transform: translate(24.990101px,41.07px) scale(1,1)} 10% {transform: translate(24.990101px,41.07px) scale(1,0.862435)} 20% {transform: translate(24.990101px,41.07px) scale(1,1)} 30% {transform: translate(24.990101px,41.07px) scale(1,0.862435)} 40% {transform: translate(24.990101px,41.07px) scale(1,1)} 50% {transform: translate(24.990101px,41.07px) scale(1,0.862435)} 60% {transform: translate(24.990101px,41.07px) scale(1,1)} 70% {transform: translate(24.990101px,41.07px) scale(1,0.862435)} 80% {transform: translate(24.990101px,41.07px) scale(1,1)} 90% {transform: translate(24.990101px,41.07px) scale(1,0.862435)} 100% {transform: translate(24.990101px,41.07px) scale(1,1)}} #eRqTyWdpxDA11_ts {animation: eRqTyWdpxDA11_ts__ts 3000ms linear infinite normal forwards}@keyframes eRqTyWdpxDA11_ts__ts { 0% {transform: translate(21.570139px,13.370051px) scale(1,1)} 10% {transform: translate(21.570139px,13.370051px) scale(1.090948,0.886725)} 20% {transform: translate(21.570139px,13.370051px) scale(1,1)} 30% {transform: translate(21.570139px,13.370051px) scale(1.090948,0.886725)} 40% {transform: translate(21.570139px,13.370051px) scale(1,1)} 50% {transform: translate(21.570139px,13.370051px) scale(1.090948,0.886725)} 60% {transform: translate(21.570139px,13.370051px) scale(1,1)} 70% {transform: translate(21.570139px,13.370051px) scale(1.090948,0.886725)} 80% {transform: translate(21.570139px,13.370051px) scale(1,1)} 90% {transform: translate(21.570139px,13.370051px) scale(1.090948,0.886725)} 100% {transform: translate(21.570139px,13.370051px) scale(1,1)}} #eRqTyWdpxDA16_to {animation: eRqTyWdpxDA16_to__to 3000ms linear infinite normal forwards}@keyframes eRqTyWdpxDA16_to__to { 0% {transform: translate(32.255184px,6.549942px)} 10% {transform: translate(36.782909px,6.549942px)} 20% {transform: translate(32.255184px,6.549942px)} 30% {transform: translate(36.782909px,6.549942px)} 40% {transform: translate(32.255184px,6.549942px)} 50% {transform: translate(36.782909px,6.549942px)} 60% {transform: translate(32.255184px,6.549942px)} 70% {transform: translate(36.782909px,6.549942px)} 80% {transform: translate(32.255184px,6.549942px)} 90% {transform: translate(36.782909px,6.549942px)} 100% {transform: translate(32.255184px,6.549942px)}} #eRqTyWdpxDA17_to {animation: eRqTyWdpxDA17_to__to 3000ms linear infinite normal forwards}@keyframes eRqTyWdpxDA17_to__to { 0% {transform: translate(27.55043px,6.564938px)} 10% {transform: translate(29.370099px,6.564938px)} 20% {transform: translate(27.55043px,6.564938px)} 30% {transform: translate(29.370099px,6.564938px)} 40% {transform: translate(27.55043px,6.564938px)} 50% {transform: translate(29.370099px,6.564938px)} 60% {transform: translate(27.55043px,6.564938px)} 70% {transform: translate(29.370099px,6.564938px)} 80% {transform: translate(27.55043px,6.564938px)} 90% {transform: translate(29.370099px,6.564938px)} 100% {transform: translate(27.55043px,6.564938px)}} #eRqTyWdpxDA20_ts {animation: eRqTyWdpxDA20_ts__ts 3000ms linear infinite normal forwards}@keyframes eRqTyWdpxDA20_ts__ts { 0% {transform: translate(48.5401px,24.37px) scale(1,1)} 10% {transform: translate(48.5401px,24.37px) scale(1.163565,0.871421)} 20% {transform: translate(48.5401px,24.37px) scale(1,1)} 30% {transform: translate(48.5401px,24.37px) scale(1.163565,0.871421)} 40% {transform: translate(48.5401px,24.37px) scale(1,1)} 50% {transform: translate(48.5401px,24.37px) scale(1.163565,0.871421)} 60% {transform: translate(48.5401px,24.37px) scale(1,1)} 70% {transform: translate(48.5401px,24.37px) scale(1.163565,0.871421)} 80% {transform: translate(48.5401px,24.37px) scale(1,1)} 90% {transform: translate(48.5401px,24.37px) scale(1.163565,0.871421)} 100% {transform: translate(48.5401px,24.37px) scale(1,1)}} #eRqTyWdpxDA24_ts {animation: eRqTyWdpxDA24_ts__ts 3000ms linear infinite normal forwards}@keyframes eRqTyWdpxDA24_ts__ts { 0% {transform: translate(10.410085px,25.215051px) scale(1,1)} 10% {transform: translate(10.410085px,25.215051px) scale(1,0.903208)} 20% {transform: translate(10.410085px,25.215051px) scale(1,1)} 30% {transform: translate(10.410085px,25.215051px) scale(1,0.903208)} 40% {transform: translate(10.410085px,25.215051px) scale(1,1)} 50% {transform: translate(10.410085px,25.215051px) scale(1,0.903208)} 60% {transform: translate(10.410085px,25.215051px) scale(1,1)} 70% {transform: translate(10.410085px,25.215051px) scale(1,0.903208)} 80% {transform: translate(10.410085px,25.215051px) scale(1,1)} 90% {transform: translate(10.410085px,25.215051px) scale(1,0.903208)} 100% {transform: translate(10.410085px,25.215051px) scale(1,1)}}]]></style><g id="eRqTyWdpxDA2_ts" transform="translate(24.990101,41.07) scale(1,1)"><g id="eRqTyWdpxDA2" transform="translate(-20.9901,-41.07)"><path id="eRqTyWdpxDA3" d="M35.0801,41.07C32.3794,41.07,30.1901,38.8807,30.1901,36.18C30.1901,33.4794,32.3794,31.29,35.0801,31.29C37.7808,31.29,39.9701,33.4794,39.9701,36.18C39.9701,38.8807,37.7808,41.07,35.0801,41.07Z" fill="rgb(156,173,175)" stroke="none" stroke-width="1"/><path id="eRqTyWdpxDA4" d="M35.1101,38.9001C33.6079,38.9001,32.3901,37.6823,32.3901,36.1801C32.3901,34.6779,33.6079,33.4601,35.1101,33.4601C36.6123,33.4601,37.8301,34.6779,37.8301,36.1801C37.8301,37.6823,36.6123,38.9001,35.1101,38.9001Z" fill="rgb(96,108,108)" stroke="none" stroke-width="1"/><path id="eRqTyWdpxDA5" d="M25.5901,41.07C22.8894,41.07,20.7001,38.8807,20.7001,36.18C20.7001,33.4794,22.8894,31.29,25.5901,31.29C28.2908,31.29,30.4801,33.4794,30.4801,36.18C30.4801,38.8807,28.2908,41.07,25.5901,41.07Z" fill="rgb(156,173,175)" stroke="none" stroke-width="1"/><path id="eRqTyWdpxDA6" d="M25.5501,38.9001C24.0479,38.9001,22.8301,37.6823,22.8301,36.1801C22.8301,34.6779,24.0479,33.4601,25.5501,33.4601C27.0524,33.4601,28.2701,34.6779,28.2701,36.1801C28.2701,37.6823,27.0524,38.9001,25.5501,38.9001Z" fill="rgb(96,108,108)" stroke="none" stroke-width="1"/><path id="eRqTyWdpxDA7" d="M16.1001,41.07C13.3994,41.07,11.2101,38.8807,11.2101,36.18C11.2101,33.4794,13.3994,31.29,16.1001,31.29C18.8008,31.29,20.9901,33.4794,20.9901,36.18C20.9901,38.8807,18.8008,41.07,16.1001,41.07Z" fill="rgb(156,173,175)" stroke="none" stroke-width="1"/><path id="eRqTyWdpxDA8" d="M16.0001,38.9001C14.4979,38.9001,13.2801,37.6823,13.2801,36.1801C13.2801,34.6779,14.4979,33.4601,16.0001,33.4601C17.5023,33.4601,18.7201,34.6779,18.7201,36.1801C18.7201,37.6823,17.5023,38.9001,16.0001,38.9001Z" fill="rgb(96,108,108)" stroke="none" stroke-width="1"/><path id="eRqTyWdpxDA9" d="M1.73013,36.1801C1.73013,37.1476,2.01719,38.0935,2.55496,38.8978C3.09272,39.7022,3.85701,40.329,4.75112,40.6988C5.64524,41.0686,6.62897,41.1648,7.57781,40.9754C8.52665,40.7859,9.39794,40.3191,10.0814,39.6343C10.7649,38.9494,11.2298,38.0771,11.4174,37.1279C11.6049,36.1787,11.5067,35.1952,11.135,34.3018C10.7634,33.4084,10.1351,32.6454,9.32958,32.1093C8.52411,31.5732,7.57771,31.2881,6.61013,31.29C5.96844,31.29,5.33304,31.4166,4.74032,31.6625C4.1476,31.9084,3.60919,32.2687,3.15591,32.7229C2.70263,33.1771,2.34337,33.7163,2.09872,34.3095C1.85406,34.9027,1.72881,35.5384,1.73013,36.1801Z" fill="rgb(156,173,175)" stroke="none" stroke-width="1"/><path id="eRqTyWdpxDA10" d="M6.44009,38.9001C4.93788,38.9001,3.72009,37.6823,3.72009,36.1801C3.72009,34.6779,4.93788,33.4601,6.44009,33.4601C7.94231,33.4601,9.1601,34.6779,9.1601,36.1801C9.1601,37.6823,7.94231,38.9001,6.44009,38.9001Z" fill="rgb(96,108,108)" stroke="none" stroke-width="1"/></g></g><g id="eRqTyWdpxDA11_ts" transform="translate(21.570139,13.370051) scale(1,1)"><g id="eRqTyWdpxDA11" transform="translate(-17.570139,-13.37005)"><path id="eRqTyWdpxDA12" d="M1.7501,26.7401L30.5301,26.7401C31.0031,26.7322,31.4538,26.5374,31.7835,26.1982C32.1133,25.8591,32.2955,25.4032,32.2901,24.9301C32.278,24.6938,32.1782,24.4706,32.0101,24.304C31.8421,24.1375,31.6179,24.0396,31.3815,24.0296C31.1452,24.0196,30.9135,24.0982,30.732,24.2499C30.5505,24.4017,30.4322,24.6157,30.4001,24.8501L1.89011,24.8501L1.89011,8.09014L16.9901,8.09014C17.1902,8.02438,17.3644,7.89711,17.4879,7.72652C17.6114,7.55593,17.6779,7.35072,17.6779,7.14012C17.6779,6.92953,17.6114,6.72429,17.4879,6.5537C17.3644,6.38311,17.1902,6.25587,16.9901,6.19011L1.14011,6.19011C0.992823,6.18335,0.84569,6.20655,0.707619,6.25829C0.569548,6.31003,0.443401,6.38924,0.33683,6.49114C0.230259,6.59304,0.14547,6.71551,0.087593,6.85112C0.029717,6.98674,-0.000057,7.13266,0.000099,7.28011L0.000099,22.5801C-0.009899,25.9301,0.7801,26.7401,1.7501,26.7401Z" fill="rgb(67,174,68)" stroke="none" stroke-width="1"/><path id="eRqTyWdpxDA13" d="M21.2301,7.59012L24.1801,7.53009C24.308,7.52899,24.4342,7.50184,24.5512,7.45029C24.6681,7.39874,24.7733,7.32389,24.8604,7.23029C24.9474,7.13669,25.0145,7.02634,25.0574,6.90595C25.1004,6.78556,25.1183,6.65765,25.1101,6.53009C25.0924,6.27719,24.9793,6.04048,24.7936,5.86783C24.608,5.69518,24.3637,5.59948,24.1101,5.6001L21.1701,5.65012C20.9701,5.71588,20.7959,5.84312,20.6724,6.01371C20.5489,6.18429,20.4824,6.3895,20.4824,6.6001C20.4824,6.8107,20.5489,7.01594,20.6724,7.18653C20.7959,7.35711,20.9701,7.48435,21.1701,7.55011L21.2301,7.59012Z" fill="rgb(67,174,68)" stroke="none" stroke-width="1"/><path id="eRqTyWdpxDA14" d="M15.6201,6.73001C15.6271,7.36802,15.7282,8.0015,15.9201,8.61002C15.9201,8.61002,15.9201,8.61001,15.9201,8.67001C16.3642,10.0141,17.225,11.1817,18.3776,12.0034C19.5302,12.8252,20.9146,13.2584,22.3301,13.24L22.3301,11.8L22.2401,6.62003L22.0701,0C20.3265,0.049742,18.6725,0.783587,17.4656,2.04291C16.2586,3.30223,15.5957,4.98589,15.6201,6.73001Z" fill="rgb(235,232,236)" stroke="none" stroke-width="1"/><path id="eRqTyWdpxDA15" d="M25.6301,6.4501C25.6261,6.19854,25.5474,5.95385,25.4041,5.74706C25.2608,5.54028,25.0593,5.3807,24.8252,5.2886C24.5911,5.19649,24.3349,5.17601,24.0891,5.22973C23.8433,5.28345,23.619,5.40898,23.4447,5.59036C23.2703,5.77174,23.1538,6.00078,23.1098,6.2485C23.0658,6.49621,23.0964,6.75142,23.1977,6.98171C23.299,7.21201,23.4664,7.40706,23.6787,7.54208C23.891,7.6771,24.1386,7.74602,24.3901,7.74011C24.7252,7.73223,25.0436,7.5922,25.2758,7.35055C25.5081,7.1089,25.6355,6.78524,25.6301,6.4501Z" fill="rgb(67,174,68)" stroke="none" stroke-width="1"/><g id="eRqTyWdpxDA16_to" transform="translate(32.255184,6.549942)"><path id="eRqTyWdpxDA16" d="M30.4201,11.2501C31.0452,11.2448,31.6631,11.1165,32.2386,10.8725C32.8141,10.6284,33.3359,10.2734,33.7742,9.82766C34.2125,9.38193,34.5588,8.85424,34.7931,8.27471C35.0275,7.69518,35.1454,7.07516,35.1401,6.45007C35.1308,5.82667,34.9979,5.2113,34.749,4.63967C34.5001,4.06804,34.1401,3.55154,33.6901,3.12008C32.7785,2.24778,31.5617,1.7668,30.3001,1.78005C30.0472,1.7978,29.8105,1.91096,29.6378,2.09661C29.4651,2.28226,29.3695,2.52653,29.3701,2.78005C29.3854,3.03473,29.4975,3.27394,29.6834,3.44869C29.8693,3.62344,30.115,3.72051,30.3701,3.72005C31.1153,3.71694,31.8326,4.00385,32.3701,4.52007C32.6406,4.77898,32.8569,5.08916,33.0063,5.43255C33.1556,5.77593,33.2351,6.14564,33.2401,6.52007C33.2508,7.27786,32.9614,8.00914,32.435,8.55431C31.9085,9.09949,31.1878,9.41431,30.4301,9.43008C30.1962,9.45417,29.9796,9.56412,29.8221,9.73867C29.6646,9.91322,29.5774,10.14,29.5774,10.3751C29.5774,10.6102,29.6646,10.8369,29.8221,11.0115C29.9796,11.186,30.1962,11.296,30.4301,11.3201L30.4201,11.2501Z" transform="translate(-32.255184,-6.549942)" fill="rgb(255,226,102)" stroke="none" stroke-width="1"/></g><g id="eRqTyWdpxDA17_to" transform="translate(27.55043,6.564938)"><path id="eRqTyWdpxDA17" d="M26.2301,10.3301C26.7261,10.3223,27.2157,10.2167,27.6707,10.0193C28.1258,9.822,28.5374,9.53681,28.8821,9.18008C29.2267,8.82336,29.4976,8.40212,29.6792,7.94052C29.8607,7.47892,29.9494,6.98604,29.9401,6.49011C29.9232,5.48635,29.5098,4.53006,28.7901,3.83011C28.0633,3.13737,27.0941,2.75687,26.0902,2.77011C25.8373,2.78786,25.6005,2.90099,25.4279,3.08664C25.2552,3.27229,25.1595,3.51659,25.1601,3.77011C25.1779,4.02301,25.291,4.25972,25.4767,4.43237C25.6623,4.60502,25.9066,4.70072,26.1601,4.7001C26.6572,4.69731,27.1356,4.88947,27.4927,5.23532C27.8498,5.58117,28.0571,6.05318,28.0701,6.55011C28.0767,6.79679,28.0341,7.04231,27.9448,7.27237C27.8555,7.50242,27.7214,7.71241,27.5502,7.8901C27.201,8.25177,26.7227,8.46032,26.2201,8.47009C25.9863,8.49418,25.7697,8.60413,25.6122,8.77869C25.4547,8.95324,25.3675,9.18,25.3675,9.4151C25.3675,9.6502,25.4547,9.87696,25.6122,10.0515C25.7697,10.2261,25.9863,10.336,26.2201,10.3601L26.2301,10.3301Z" transform="translate(-27.55043,-6.564938)" fill="rgb(255,226,102)" stroke="none" stroke-width="1"/></g><g id="eRqTyWdpxDA18" style="mix-blend-mode:multiply" opacity="0.5"><path id="eRqTyWdpxDA19" d="M15.9401,8.67004C16.3842,10.0141,17.245,11.1817,18.3976,12.0035C19.5502,12.8252,20.9347,13.2584,22.3501,13.2401L22.3501,11.8C20.7201,11.45,16.5401,10.17,15.9401,8.67004Z" fill="rgb(177,187,188)" stroke="none" stroke-width="1"/></g></g></g><g id="eRqTyWdpxDA20_ts" transform="translate(48.5401,24.37) scale(1,1)"><g id="eRqTyWdpxDA20" transform="translate(-44.5401,-24.37)"><path id="eRqTyWdpxDA21" d="M35.0801,23.3201L45.4701,23.3201L45.4701,25.7901L35.0801,25.7901L35.0801,23.3201Z" fill="rgb(67,174,68)" stroke="none" stroke-width="1"/><path id="eRqTyWdpxDA22" d="M44.7801,17.26L51.3001,17.26C52.7913,17.26,54.0001,18.4688,54.0001,19.96L54.0001,28.78C54.0001,30.2712,52.7913,31.48,51.3001,31.48L44.7801,31.48C43.289,31.48,42.0801,30.2712,42.0801,28.78L42.0801,19.96C42.0801,18.4688,43.289,17.26,44.7801,17.26Z" fill="rgb(156,173,175)" stroke="none" stroke-width="1"/><path id="eRqTyWdpxDA23" d="M44.6701,17.26L51.4101,17.26C52.8405,17.26,54.0001,18.4196,54.0001,19.85L54.0001,27.84C54.0001,29.2704,52.8405,30.43,51.4101,30.43L44.6701,30.43C43.2397,30.43,42.0801,29.2704,42.0801,27.84L42.0801,19.85C42.0801,18.4196,43.2397,17.26,44.6701,17.26Z" fill="rgb(235,232,236)" stroke="none" stroke-width="1"/></g></g><g id="eRqTyWdpxDA24_ts" transform="translate(10.410085,25.215051) scale(1,1)"><g id="eRqTyWdpxDA24" transform="translate(-6.410085,-25.215051)"><path id="eRqTyWdpxDA25" d="M1.7301,19.3701L1.7301,35.6501L39.9701,35.6501L39.9701,19.3701C39.9701,18.1544,39.4879,16.9885,38.6293,16.128C37.7706,15.2675,36.6057,14.7827,35.3901,14.78L6.31012,14.78C5.09451,14.7827,3.92958,15.2675,3.07095,16.128C2.21232,16.9885,1.7301,18.1544,1.7301,19.3701Z" fill="rgb(235,232,236)" stroke="none" stroke-width="1"/><path id="eRqTyWdpxDA26" d="M1.73007,19.3701L1.73007,35.6501L6.45007,35.6501C6.38007,31.2801,6.34007,25.9101,6.45007,22.1501C6.50159,20.6208,6.95831,19.1326,7.77356,17.8376C8.5888,16.5427,9.73333,15.4876,11.0901,14.78L6.32007,14.78C5.10272,14.78,3.93526,15.2636,3.07446,16.1244C2.21367,16.9852,1.73007,18.1527,1.73007,19.3701Z" fill="rgb(177,187,188)" stroke="none" stroke-width="1"/></g></g></svg>