<svg width="84" height="84" viewBox="0 0 84 84" fill="none" xmlns="http://www.w3.org/2000/svg">
<path d="M49.1383 57.319C49.579 58.4857 48.7328 59.7232 47.5166 59.7409L42.0168 59.7762L36.5171 59.8116C35.2832 59.8116 34.4194 58.5918 34.8601 57.4074L37.9449 49.2049L40.307 42.9292C40.871 41.409 43.0039 41.3913 43.5857 42.9116L46.0182 49.1695L49.1383 57.319Z" fill="#742D80"/>
<path d="M60.4038 52.7749H23.5959C22.7229 52.7749 21.9895 52.0342 21.9895 51.1524V26.2508C21.9895 25.369 22.7229 24.6283 23.5959 24.6283H60.4038C61.2768 24.6283 62.0102 25.369 62.0102 26.2508V51.1348C62.0276 52.0342 61.2943 52.7749 60.4038 52.7749Z" fill="#43AE44"/>
<path d="M58.9477 50.576H25.0524C24.3301 50.576 23.7487 50.0072 23.7487 49.3006V28.1026C23.7487 27.396 24.3301 26.8273 25.0524 26.8273H58.9477C59.67 26.8273 60.2513 27.396 60.2513 28.1026V49.3006C60.2513 50.0072 59.67 50.576 58.9477 50.576Z" fill="#742D80"/>
<path d="M35.9362 43.9791C35.7241 43.9791 35.4943 43.9091 35.3175 43.769L32.5774 41.6332L29.8549 39.4974C29.6251 39.3224 29.466 39.0073 29.466 38.7096C29.466 38.412 29.6074 38.1144 29.8549 37.9219L32.5774 35.7685L35.3175 33.6328C35.7594 33.3001 36.3959 33.3702 36.7317 33.8078C37.0676 34.2455 36.9969 34.8757 36.555 35.2083L33.8148 37.3441L32.0824 38.7096L33.8148 40.0576L36.555 42.1934C36.9969 42.5261 37.0676 43.1563 36.7317 43.594C36.5373 43.8566 36.2544 43.9791 35.9362 43.9791Z" fill="white"/>
<path d="M48.0727 43.9791C47.7717 43.9791 47.4885 43.8393 47.2761 43.5946C46.922 43.1577 47.0105 42.5285 47.4531 42.1964L50.1792 40.0641L51.9141 38.7009L50.1792 37.3551L47.4531 35.2054C47.0105 34.8558 46.9397 34.2441 47.2761 33.8072C47.6301 33.3702 48.2497 33.3003 48.6922 33.6324L51.4184 35.7821L54.1446 37.9144C54.3747 38.0892 54.534 38.4038 54.534 38.7009C54.534 38.998 54.3924 39.2951 54.1446 39.4874L51.4184 41.6371L48.6922 43.7694C48.5152 43.9092 48.3028 43.9791 48.0727 43.9791Z" fill="white"/>
<path d="M40.5165 47.0576C40.451 47.0576 40.369 47.0576 40.3198 47.0399C39.8281 46.916 39.5003 46.3849 39.5986 45.8362L42.5655 31.1433C42.6803 30.6123 43.172 30.2582 43.6802 30.3644C44.1719 30.4883 44.4998 31.0194 44.4014 31.5682L41.4345 46.261C41.3361 46.7213 40.9591 47.0576 40.5165 47.0576Z" fill="white"/>
<path opacity="0.2" d="M42 1.69173C52.7594 1.69173 62.8872 5.88722 70.5113 13.4887C78.1353 21.0902 82.3083 31.218 82.3083 42C82.3083 52.7594 78.1128 62.8872 70.5113 70.5113C62.8872 78.1353 52.782 82.3083 42 82.3083C31.2406 82.3083 21.1128 78.1128 13.4887 70.5113C5.88722 62.8872 1.69173 52.7594 1.69173 42C1.69173 31.2406 5.88722 21.1128 13.4887 13.4887C21.1128 5.88722 31.2406 1.69173 42 1.69173ZM42 0C18.812 0 0 18.812 0 42C0 65.188 18.812 84 42 84C65.188 84 84 65.188 84 42C84 18.812 65.188 0 42 0Z" fill="#742D80"/>
</svg>
