<svg width="85" height="84" viewBox="0 0 85 84" fill="none" xmlns="http://www.w3.org/2000/svg">
<g clip-path="url(#clip0_713_3994)">
<path d="M58.6402 35.3494C58.6934 34.9462 58.7112 34.5431 58.7112 34.1224C58.7112 27.9173 53.6029 22.8691 47.324 22.8691C42.5527 22.8691 38.4909 25.7613 36.7882 29.863C35.6707 29.2319 34.3582 28.8463 32.9924 28.8463C29.1612 28.8463 25.9863 31.6509 25.4542 35.3143C22.4566 35.8402 20.1508 38.4519 20.1508 41.5544C20.1508 45.0426 23.042 47.8997 26.5716 47.8997H57.31C60.8396 47.8997 63.7308 45.0426 63.7308 41.5544C63.6953 38.522 61.5314 35.9629 58.6402 35.3494Z" fill="#742D80"/>
<path d="M51.5099 44.4992H32.3362C31.4493 44.4992 30.7398 43.7805 30.7398 42.9216V39.153C30.7398 38.2766 31.4671 37.5754 32.3362 37.5754H51.5099C52.3968 37.5754 53.1063 38.2941 53.1063 39.153V42.9216C53.1063 43.7805 52.3968 44.4992 51.5099 44.4992Z" fill="#43AE44"/>
<path d="M41.9142 41.8173H49.2041C49.6476 41.8173 50.02 41.4492 50.02 41.011C50.02 40.5728 49.6476 40.2047 49.2041 40.2047H41.9142C41.4708 40.2047 41.0983 40.5728 41.0983 41.011C41.116 41.4668 41.4708 41.8173 41.9142 41.8173Z" fill="white"/>
<path d="M51.5099 53.0881H32.3362C31.4493 53.0881 30.7398 52.3694 30.7398 51.5105V47.7419C30.7398 46.8655 31.4671 46.1644 32.3362 46.1644H51.5099C52.3968 46.1644 53.1063 46.883 53.1063 47.7419V51.5105C53.1063 52.3694 52.3968 53.0881 51.5099 53.0881Z" fill="#43AE44"/>
<path d="M33.8084 50.4238H41.0983C41.5417 50.4238 41.9142 50.0557 41.9142 49.6175C41.9142 49.1793 41.5417 48.8112 41.0983 48.8112H33.8084C33.3649 48.8112 32.9925 49.1793 32.9925 49.6175C32.9925 50.0557 33.3649 50.4238 33.8084 50.4238Z" fill="white"/>
<path d="M51.5099 61.379H32.3362C31.4493 61.379 30.7398 60.6604 30.7398 59.8015V56.0154C30.7398 55.1389 31.4671 54.4378 32.3362 54.4378H51.5099C52.3968 54.4378 53.1063 55.1565 53.1063 56.0154V59.784C53.1063 60.6604 52.3968 61.379 51.5099 61.379Z" fill="#43AE44"/>
<path d="M41.9142 58.6972H49.2041C49.6476 58.6972 50.02 58.3291 50.02 57.8909C50.02 57.4527 49.6476 57.0846 49.2041 57.0846H41.9142C41.4708 57.0846 41.0983 57.4527 41.0983 57.8909C41.116 58.3466 41.4708 58.6972 41.9142 58.6972Z" fill="white"/>
<path opacity="0.2" d="M42.5 1.73683C53.3875 1.73683 63.6359 5.93232 71.3507 13.5338C79.0655 21.1353 83.2881 31.2632 83.2881 42.0451C83.2881 52.8045 79.0427 62.9323 71.3507 70.5564C63.6359 78.1579 53.4103 82.3308 42.5 82.3308C31.6125 82.3308 21.3641 78.1353 13.6493 70.5338C5.9573 62.9323 1.71187 52.8045 1.71187 42.0226C1.71187 31.2632 5.9573 21.1353 13.6493 13.5113C21.3641 5.90977 31.6125 1.73683 42.5 1.73683ZM42.5 0.045105C19.036 0.045105 0 18.8346 0 42.0226C0 65.2105 19.036 84.0226 42.5 84.0226C65.964 84.0226 85 65.2105 85 42.0226C85 18.8346 65.9868 0.045105 42.5 0.045105Z" fill="#742D80"/>
</g>
<defs>
<clipPath id="clip0_713_3994">
<rect width="85" height="84" fill="white"/>
</clipPath>
</defs>
</svg>
