<svg width="82" height="87" viewBox="0 0 82 87" fill="none" xmlns="http://www.w3.org/2000/svg">
<circle cx="41" cy="45.3573" r="41" fill="#36163C"/>
<g clip-path="url(#clip0_169_2851)">
<path d="M36.8059 6.16635L39.9748 0.3573L43.1623 6.16635L48.9594 9.33154L43.1623 12.4967L39.9748 18.3058L36.8059 12.4967L30.9901 9.33154L36.8059 6.16635Z" fill="white"/>
<path d="M18.2215 24.8968L20.2906 21.0986L22.3783 24.8968L26.1809 26.9821L22.3783 29.0488L20.2906 32.847L18.2215 29.0488L14.4189 26.9821L18.2215 24.8968Z" fill="white"/>
<path d="M58.2434 75.7662L59.9211 72.7128L61.58 75.7662L64.6371 77.4419L61.58 79.099L59.9211 82.1525L58.2434 79.099L55.1864 77.4419L58.2434 75.7662Z" fill="white"/>
<path d="M31.2139 77.5507C30.906 77.9009 30.5692 78.2248 30.2072 78.5188C24.6151 83.1921 9.33 86.3573 9.33 86.3573C9.33 86.3573 10.1502 70.8107 13.9342 64.5734C14.1729 64.1696 14.4408 63.7838 14.7357 63.419C15.0713 63.0467 15.4068 62.6929 15.7609 62.3577L16.3016 61.8737C20.7566 58.1499 27.0011 57.5914 31.0647 61.0731C35.1283 64.5548 35.6129 70.7734 32.4999 75.7819C32.387 75.9915 32.2561 76.1908 32.1086 76.3777C31.8313 76.7842 31.5327 77.1757 31.2139 77.5507Z" fill="#F96480"/>
<path d="M32.7238 75.7818L32.6305 75.8935C32.4746 76.0733 32.2996 76.2357 32.1086 76.3776C31.3471 77.0249 30.508 77.5753 29.6107 78.0161C23.5153 81.0695 12.5735 82.5963 12.5735 82.5963C12.5735 82.5963 12.4244 71.5554 14.5308 65.076C14.8288 64.1234 15.2419 63.2105 15.761 62.3577C15.878 62.1463 16.0154 61.9467 16.1711 61.7619C18.0448 59.5793 20.7097 58.2296 23.5797 58.0096C26.4497 57.7896 29.2896 58.7174 31.4748 60.5889C33.6599 62.4604 35.0113 65.1223 35.2315 67.989C35.4517 70.8557 34.5228 73.6923 32.6491 75.8749L32.7238 75.7818Z" fill="#FFE266"/>
<path d="M57.0681 13.8559L71.7567 10.5231C72.1628 10.4319 72.5846 10.4369 72.9885 10.5378C73.3923 10.6386 73.7668 10.8326 74.082 11.1041C74.3973 11.3756 74.6446 11.717 74.804 12.1011C74.9634 12.4852 75.0306 12.9013 75.0001 13.3159L73.8629 28.3226L57.0681 13.8559Z" fill="white"/>
<path d="M70.6008 36.1053L54.2347 55.2082C51.9722 57.8398 48.7947 59.5166 45.3432 59.9001C45.0204 59.9191 44.6968 59.9191 44.374 59.9001C41.7074 60.0045 39.0681 59.3298 36.7796 57.9587C34.4911 56.5876 32.6526 54.5796 31.4893 52.1807C30.326 49.7817 29.8885 47.0959 30.2302 44.4523C30.572 41.8087 31.6782 39.3221 33.4134 37.2969L49.7796 18.2686C51.5497 16.217 53.888 14.7344 56.5 14.0077C59.112 13.2809 61.8809 13.3425 64.458 14.1846C67.035 15.0267 69.3051 16.6116 70.982 18.7399C72.6589 20.8681 73.6677 23.4444 73.8816 26.1443C73.9004 26.5102 73.9004 26.8769 73.8816 27.2428C73.8827 30.4935 72.7189 33.6373 70.6008 36.1053Z" fill="white"/>
<path d="M64.0209 43.739L47.6546 62.786C45.2866 65.5414 41.9197 67.2443 38.2946 67.5202C34.6695 67.796 31.0832 66.6222 28.3246 64.2569C25.566 61.8916 23.8611 58.5285 23.585 54.9077C23.3088 51.2868 24.484 47.7046 26.852 44.9492L43.2742 25.9022C45.0467 23.8562 47.3853 22.3793 49.9958 21.6572C52.6064 20.935 55.3724 20.9998 57.9462 21.8435C60.52 22.6872 62.7867 24.272 64.4612 26.3988C66.1357 28.5256 67.1433 31.0994 67.3575 33.7966C67.3575 34.0014 67.3575 34.2062 67.3575 34.4296C67.466 37.8429 66.2735 41.17 64.0209 43.739Z" fill="white"/>
<path d="M40.9068 82.9874L7.85751 54.6682C7.51304 54.3774 7.25314 53.9995 7.10502 53.574C6.9569 53.1484 6.92605 52.691 7.0156 52.2495C7.10515 51.8079 7.31179 51.3985 7.61404 51.0641C7.91629 50.7298 8.30292 50.4826 8.73355 50.3487L27.3739 44.3907L48.1953 62.2274L45.1382 81.4606C45.0832 81.9237 44.9003 82.3623 44.61 82.7275C44.3196 83.0926 43.9333 83.3699 43.4942 83.5284C43.0551 83.6868 42.5807 83.7201 42.1237 83.6245C41.6668 83.529 41.2454 83.3084 40.9068 82.9874Z" fill="white"/>
<path opacity="0.1" fill-rule="evenodd" clip-rule="evenodd" d="M48.1603 62.1975L64.0209 43.739C66.2735 41.17 67.466 37.8429 67.3575 34.4296V33.7966C67.1433 31.0994 66.1357 28.5256 64.4612 26.3988C62.7867 24.272 60.52 22.6872 57.9462 21.8435C55.3724 20.9998 52.6064 20.935 49.9958 21.6572C47.3853 22.3793 45.0467 23.8562 43.2742 25.9022L27.3183 44.4085L8.73355 50.3487C8.30292 50.4826 7.91629 50.7298 7.61404 51.0641C7.31179 51.3985 7.10515 51.8079 7.0156 52.2495C6.92605 52.691 6.9569 53.1484 7.10502 53.574C7.25314 53.9995 7.51304 54.3774 7.85751 54.6682L40.9068 82.9874C41.2454 83.3084 41.6668 83.529 42.1237 83.6245C42.5807 83.7201 43.0551 83.6868 43.4942 83.5284C43.9333 83.3699 44.3196 83.0926 44.61 82.7275C44.9003 82.3623 45.0832 81.9237 45.1382 81.4606L48.1953 62.2274L48.1603 62.1975Z" fill="black"/>
<path opacity="0.1" d="M57.0681 13.8559L71.7567 10.5231C72.1628 10.4319 72.5846 10.4369 72.9885 10.5378C73.3923 10.6386 73.7668 10.8326 74.082 11.1041C74.3973 11.3756 74.6446 11.717 74.804 12.1011C74.9634 12.4852 75.0306 12.9013 75.0001 13.3159L73.8629 28.3226L57.0681 13.8559Z" fill="black"/>
<path opacity="0.1" d="M40.9068 82.9874L7.85751 54.6682C7.51304 54.3774 7.25314 53.9995 7.10502 53.574C6.9569 53.1484 6.92605 52.691 7.0156 52.2494C7.10515 51.8079 7.31179 51.3985 7.61404 51.0641C7.91629 50.7298 8.30292 50.4826 8.73355 50.3487L27.3739 44.3907L48.1953 62.2274L45.1382 81.4606C45.0832 81.9237 44.9003 82.3623 44.61 82.7275C44.3196 83.0926 43.9333 83.3699 43.4942 83.5284C43.0551 83.6868 42.5807 83.7201 42.1237 83.6245C41.6668 83.529 41.2454 83.3084 40.9068 82.9874Z" fill="black"/>
<path d="M56.449 43.8944C55.3538 45.17 53.905 46.0921 52.2857 46.5442C50.6664 46.9963 48.9493 46.958 47.3517 46.4342C45.7541 45.9104 44.3478 44.9246 43.3105 43.6014C42.2733 42.2783 41.6517 40.6773 41.5244 39.0008C41.3971 37.3244 41.7698 35.6479 42.5954 34.1833C43.421 32.7187 44.6625 31.5318 46.1627 30.7728C47.6628 30.0138 49.3543 29.7167 51.0234 29.9191C52.6924 30.1216 54.264 30.8144 55.5392 31.91C57.2487 33.3788 58.305 35.4664 58.4756 37.7138C58.6462 39.9612 57.9172 42.1843 56.449 43.8944Z" fill="url(#paint0_linear_169_2851)" stroke="white"/>
<path d="M55.6381 36.8344C55.4448 37.0595 55.1891 37.2223 54.9034 37.3021C54.6176 37.3818 54.3146 37.3751 54.0327 37.2826C53.7507 37.1902 53.5025 37.0162 53.3195 36.7827C53.1365 36.5492 53.0268 36.2667 53.0043 35.9709C52.9818 35.675 53.0476 35.3792 53.1933 35.1207C53.339 34.8623 53.5581 34.6528 53.8228 34.5189C54.0876 34.3849 54.3861 34.3325 54.6806 34.3682C54.9751 34.4039 55.2525 34.5262 55.4775 34.7195C55.7792 34.9787 55.9656 35.3471 55.9957 35.7437C56.0258 36.1403 55.8972 36.5327 55.6381 36.8344Z" fill="white"/>
<g style="mix-blend-mode:multiply" opacity="0.5">
<path d="M32.0899 76.3776C31.8126 76.7842 31.514 77.1757 31.1952 77.5506C30.8874 77.9009 30.5506 78.2247 30.1886 78.5188L13.9342 64.5175C14.1729 64.1137 14.4408 63.7279 14.7358 63.3631C15.0713 62.9907 15.4068 62.637 15.761 62.3019C15.878 62.0904 16.0154 61.8909 16.1711 61.7061L32.6304 75.8377C32.4719 76.0381 32.2906 76.2193 32.0899 76.3776Z" fill="#B1BBBC"/>
</g>
<g style="mix-blend-mode:multiply" opacity="0.5">
<path d="M70.6008 36.1053L64.0208 43.739C66.26 41.1645 67.439 37.8379 67.3202 34.4296C69.8367 31.6182 72.1107 29.1605 73.9002 27.2428C73.8961 30.4959 72.7256 33.6399 70.6008 36.1053Z" fill="#B1BBBC"/>
</g>
<g style="mix-blend-mode:multiply" opacity="0.5">
<path d="M40.9068 82.9873L19.9364 65.0016C24.9506 68.6323 32.0899 72.1326 37.011 67.571C38.6513 66.0443 41.2796 63.3073 44.4671 59.9187C44.6318 59.7666 44.7874 59.6049 44.9331 59.4346C51.625 52.1547 60.5165 42.1192 67.4134 34.4482C67.5322 37.8565 66.3532 41.1831 64.114 43.7576L48.2324 62.246L45.1382 81.4606C45.0831 81.9236 44.9002 82.3623 44.6099 82.7274C44.3196 83.0926 43.9332 83.3699 43.4942 83.5283C43.0551 83.6868 42.5806 83.7201 42.1237 83.6245C41.6667 83.529 41.2454 83.3083 40.9068 82.9873Z" fill="#B1BBBC"/>
</g>
</g>
<defs>
<linearGradient id="paint0_linear_169_2851" x1="41.0077" y1="38.3573" x2="59" y2="38.3573" gradientUnits="userSpaceOnUse">
<stop stop-color="#43AE44"/>
<stop offset="1" stop-color="#B9D577"/>
</linearGradient>
<clipPath id="clip0_169_2851">
<rect width="68" height="86" fill="white" transform="translate(7 0.3573)"/>
</clipPath>
</defs>
</svg>
