<svg width="798" height="521" viewBox="0 0 798 521" fill="none" xmlns="http://www.w3.org/2000/svg">
<path d="M598.272 84.3279C598.27 85.0327 598.229 85.7361 598.149 86.4307C597.001 97.3082 587.554 116.089 587.554 116.089C587.554 116.089 577.962 97.5548 576.719 86.6895C576.634 85.9924 576.582 85.2868 576.565 84.5782C576.573 83.8207 576.594 83.0845 576.641 82.3509L576.731 81.2625C577.645 72.596 581.987 65.7607 587.338 65.6953C592.689 65.6299 597.139 72.2367 598.08 81.0353C598.133 81.3862 598.165 81.7434 598.177 82.1029C598.234 82.8414 598.266 83.5841 598.272 84.3279Z" fill="#F96480"/>
<path d="M598.249 80.8132L598.252 81.0331C598.253 81.3928 598.227 81.7514 598.177 82.1029C598.027 83.5966 597.756 85.0568 597.369 86.4499C594.778 95.9807 587.529 108.582 587.529 108.582C587.529 108.582 580.166 96.1463 577.499 86.6704C577.098 85.2888 576.81 83.8383 576.641 82.351C576.59 81.9938 576.563 81.63 576.559 81.2647C576.539 76.9172 577.662 72.7334 579.681 69.6338C581.701 66.5341 584.452 64.7726 587.329 64.7366C590.206 64.7006 592.973 66.393 595.022 69.4418C597.071 72.4905 598.233 76.6458 598.254 80.9934L598.249 80.8132Z" fill="#FFE266"/>
<path d="M575.936 15.318L584.824 3.15789C585.071 2.82235 585.392 2.54908 585.763 2.35994C586.134 2.1708 586.543 2.07113 586.959 2.06878C587.375 2.06644 587.786 2.16151 588.159 2.34646C588.531 2.53142 588.855 2.80106 589.104 3.1338L598.103 15.1972L575.936 15.318Z" fill="white"/>
<path d="M600.754 23.2085L600.958 48.3626C600.981 51.833 599.686 55.1843 597.335 57.7403C597.104 57.9667 596.86 58.1792 596.604 58.3769C594.662 60.2069 592.228 61.4315 589.602 61.9006C586.976 62.3697 584.271 62.0629 581.818 61.0178C579.365 59.9728 577.271 58.2348 575.793 56.0168C574.314 53.7989 573.515 51.1971 573.494 48.5304L573.338 23.4324C573.326 20.7228 574.115 18.0691 575.608 15.8056C577.1 13.5421 579.229 11.77 581.725 10.7125C584.221 9.65499 586.974 9.35937 589.637 9.86292C592.299 10.3665 594.752 11.6467 596.686 13.5422C596.941 13.8058 597.181 14.0823 597.407 14.3706C599.543 16.8212 600.73 19.9563 600.754 23.2085Z" fill="white"/>
<path d="M600.806 33.2865L600.973 58.3985C600.997 62.0316 599.577 65.527 597.024 68.1158C594.472 70.7047 590.996 72.1749 587.363 72.2029C583.729 72.231 580.235 70.8147 577.648 68.2655C575.062 65.7164 573.595 62.2433 573.572 58.6102L573.446 33.4615C573.439 30.7545 574.233 28.1049 575.727 25.8458C577.221 23.5867 579.35 21.8189 581.845 20.7648C584.34 19.7106 587.09 19.4171 589.749 19.9211C592.409 20.4251 594.859 21.7042 596.792 23.5976C596.926 23.752 597.061 23.9065 597.208 24.0749C599.531 26.5776 600.817 29.8698 600.806 33.2865Z" fill="white"/>
<path d="M609.152 78.064L565.631 78.4142C565.18 78.4211 564.736 78.3068 564.345 78.0832C563.954 77.8596 563.63 77.5349 563.407 77.1431C563.185 76.7514 563.072 76.3069 563.08 75.8563C563.089 75.4056 563.218 74.9653 563.455 74.5815L573.598 57.8463L601.014 57.6222L611.34 74.1337C611.603 74.519 611.753 74.9699 611.774 75.4359C611.795 75.902 611.686 76.3648 611.459 76.7727C611.232 77.1805 610.896 77.5172 610.488 77.7453C610.081 77.9734 609.618 78.0837 609.152 78.064Z" fill="white"/>
<path opacity="0.1" fill-rule="evenodd" clip-rule="evenodd" d="M600.968 57.6228L600.806 33.2867C600.817 29.87 599.531 26.5778 597.208 24.0752L596.792 23.5978C594.859 21.7045 592.409 20.4253 589.749 19.9213C587.09 19.4173 584.34 19.7108 581.845 20.765C579.35 21.8192 577.221 23.5869 575.727 25.846C574.233 28.1051 573.439 30.7547 573.446 33.4617L573.568 57.8965L563.455 74.5817C563.218 74.9655 563.089 75.4058 563.08 75.8565C563.072 76.3072 563.185 76.7516 563.408 77.1434C563.63 77.5351 563.954 77.8598 564.345 78.0834C564.736 78.307 565.18 78.4214 565.631 78.4144L609.152 78.0642C609.618 78.0839 610.081 77.9736 610.488 77.7455C610.896 77.5175 611.232 77.1807 611.459 76.7729C611.686 76.3651 611.795 75.9022 611.774 75.4362C611.753 74.9701 611.603 74.5192 611.34 74.1339L601.014 57.6225L600.968 57.6228Z" fill="black"/>
<path opacity="0.03" d="M575.936 15.3183L584.824 3.15813C585.071 2.82259 585.392 2.54931 585.763 2.36017C586.134 2.17103 586.543 2.07136 586.959 2.06902C587.375 2.06667 587.786 2.16174 588.159 2.3467C588.531 2.53165 588.855 2.80129 589.104 3.13403L598.103 15.1974L575.936 15.3183Z" fill="black"/>
<path opacity="0.1" d="M609.152 78.0642L565.631 78.4144C565.18 78.4214 564.736 78.307 564.345 78.0834C563.954 77.8598 563.63 77.5351 563.407 77.1434C563.185 76.7516 563.072 76.3072 563.08 75.8565C563.089 75.4058 563.218 74.9655 563.455 74.5817L573.598 57.8465L601.014 57.6225L611.34 74.1339C611.603 74.5192 611.753 74.9701 611.774 75.4362C611.795 75.9022 611.686 76.3651 611.459 76.7729C611.232 77.1807 610.896 77.5175 610.488 77.7455C610.081 77.9736 609.618 78.0839 609.152 78.0642Z" fill="black"/>
<path d="M595.198 38.3768C595.21 40.058 594.723 41.705 593.798 43.1094C592.874 44.5138 591.554 45.6127 590.006 46.2669C588.457 46.9211 586.749 47.1013 585.098 46.7848C583.446 46.4682 581.926 45.6691 580.729 44.4885C579.532 43.3079 578.712 41.7989 578.373 40.1522C578.034 38.5056 578.19 36.7952 578.823 35.2376C579.456 33.68 580.536 32.345 581.928 31.4015C583.319 30.458 584.96 29.9483 586.641 29.937C588.895 29.9218 591.062 30.8024 592.667 32.3851C594.271 33.9677 595.182 36.123 595.198 38.3768Z" fill="url(#paint0_linear_277_3170)" stroke="white"/>
<path d="M589.949 33.5855C589.952 33.8822 589.866 34.1728 589.703 34.4206C589.539 34.6685 589.307 34.8624 589.033 34.9779C588.76 35.0933 588.459 35.1251 588.167 35.0692C587.876 35.0134 587.607 34.8724 587.396 34.664C587.185 34.4557 587.04 34.1894 586.98 33.8988C586.921 33.6082 586.948 33.3064 587.06 33.0315C587.172 32.7566 587.362 32.5211 587.608 32.3546C587.853 32.1881 588.143 32.0981 588.439 32.0961C588.837 32.0934 589.22 32.2488 589.503 32.5281C589.786 32.8074 589.947 33.1878 589.949 33.5855Z" fill="white"/>
<g style="mix-blend-mode:multiply" opacity="0.5">
<path d="M598.162 78.8704C598.22 79.3591 598.252 79.8505 598.258 80.3426C598.256 80.8089 598.215 81.2743 598.135 81.7338L576.682 81.8507C576.597 81.3895 576.545 80.9226 576.528 80.4538C576.537 79.9526 576.557 79.4655 576.604 78.9802C576.554 78.7439 576.526 78.5032 576.522 78.2615L598.215 78.1082C598.227 78.3635 598.21 78.6192 598.162 78.8704Z" fill="#B1BBBC"/>
</g>
<g style="mix-blend-mode:multiply" opacity="0.5">
<path d="M600.754 23.2086L600.806 33.2867C600.803 29.8746 599.508 26.5917 597.18 24.0996C597.231 20.3268 597.332 16.9799 597.422 14.3585C599.555 16.8143 600.737 19.954 600.754 23.2086Z" fill="#B1BBBC"/>
</g>
<g style="mix-blend-mode:multiply" opacity="0.5">
<path d="M609.152 78.064L581.526 78.2736C587.692 77.7183 595.374 75.669 596.089 68.9972C596.324 66.7686 596.508 62.9785 596.686 58.3297C596.711 58.1068 596.722 57.8827 596.72 57.6586C596.985 47.7738 597.099 34.3665 597.262 24.0522C599.59 26.5444 600.886 29.8273 600.888 33.2393L601.054 57.6118L611.34 74.1337C611.603 74.519 611.753 74.9699 611.774 75.4359C611.795 75.902 611.686 76.3648 611.459 76.7727C611.232 77.1805 610.896 77.5172 610.488 77.7453C610.081 77.9733 609.618 78.0837 609.152 78.064Z" fill="#B1BBBC"/>
</g>
<path fill-rule="evenodd" clip-rule="evenodd" d="M376 521C482.672 520.882 571.128 392.041 587.611 223.35C604.031 391.397 691.875 519.898 798 520.993V521H376Z" fill="white"/>
<path fill-rule="evenodd" clip-rule="evenodd" d="M556.285 342C511.248 445.648 375.031 520.98 213.985 520.98C210.646 520.98 207.317 520.948 204 520.884C204.068 520.922 204.137 520.961 204.205 520.999H345.679C442.322 494.744 524.635 426.184 556.285 342Z" fill="white"/>
<path fill-rule="evenodd" clip-rule="evenodd" d="M451.002 448.998C393.346 490.689 218.959 520.991 12.784 520.991C8.50874 520.991 4.24716 520.978 0 520.952C0.088012 520.968 0.17602 520.983 0.264024 520.999H181.379C305.105 510.438 410.485 482.861 451.002 448.998Z" fill="white"/>
<defs>
<linearGradient id="paint0_linear_277_3170" x1="579.917" y1="44.3426" x2="593.485" y2="32.5259" gradientUnits="userSpaceOnUse">
<stop stop-color="#43AE44"/>
<stop offset="1" stop-color="#B9D577"/>
</linearGradient>
</defs>
</svg>
