<svg width="82" height="99" viewBox="0 0 82 99" fill="none" xmlns="http://www.w3.org/2000/svg">
<circle cx="41" cy="50.3573" r="41" fill="#36163C"/>
<path d="M58.015 31.1327L25.1562 30.9013C24.1486 30.8942 23.326 31.7053 23.3189 32.713L23.0458 71.4887C23.0387 72.4963 23.8498 73.3189 24.8575 73.326L57.7162 73.5574C58.7239 73.5645 59.5465 72.7534 59.5536 71.7457L59.8266 32.9701C59.8337 31.9624 59.0226 31.1398 58.015 31.1327Z" fill="#AAAEB3"/>
<path d="M35.419 74.9542L29.2463 74.9107C28.3704 74.9045 27.6555 75.6095 27.6493 76.4853L27.5462 91.1328C27.54 92.0086 28.245 92.7236 29.1208 92.7298L35.2935 92.7732C36.1693 92.7794 36.8843 92.0744 36.8905 91.1986L36.9936 76.5511C36.9998 75.6753 36.2948 74.9603 35.419 74.9542Z" fill="white"/>
<path d="M32.2131 94.2283L26.0699 94.1838C26.1169 92.5744 26.7926 91.0475 27.9521 89.9305C29.1116 88.8134 30.6626 88.1951 32.2726 88.208C33.8826 88.221 35.4234 88.8641 36.5648 89.9997C37.7062 91.1352 38.3572 92.6728 38.3784 94.2827L32.2131 94.2283Z" fill="#B0C4C6"/>
<path d="M53.1755 75.092L47.0027 75.0485C46.1269 75.0424 45.4119 75.7474 45.4058 76.6232L45.3026 91.2706C45.2965 92.1464 46.0014 92.8614 46.8773 92.8676L53.05 92.9111C53.9258 92.9172 54.6408 92.2122 54.6469 91.3364L54.7501 76.689C54.7563 75.8132 54.0513 75.0982 53.1755 75.092Z" fill="white"/>
<path d="M49.9624 94.346L43.813 94.2856C43.8601 92.6762 44.5358 91.1493 45.6953 90.0323C46.8548 88.9152 48.4057 88.2969 50.0157 88.3098C51.6257 88.3228 53.1666 88.9659 54.308 90.1015C55.4493 91.2371 56.1004 92.7746 56.1216 94.3845L49.9624 94.346Z" fill="#B0C4C6"/>
<path d="M13.7415 55.4558C13.735 56.2209 13.5019 56.9669 13.0716 57.5996C12.6413 58.2323 12.0332 58.7233 11.324 59.0106C10.6149 59.2979 9.83649 59.3685 9.0872 59.2137C8.3379 59.0588 7.65131 58.6853 7.11416 58.1404C6.577 57.5955 6.21341 56.9036 6.06925 56.1522C5.92509 55.4008 6.00686 54.6235 6.30423 53.9185C6.60161 53.2135 7.10124 52.6125 7.74002 52.1913C8.3788 51.7701 9.1281 51.5477 9.89323 51.5522C10.9202 51.5626 11.9013 51.979 12.6223 52.7104C13.3433 53.4418 13.7457 54.4288 13.7415 55.4558Z" fill="#B0C4C6"/>
<path d="M23.95 40.3056L10.7544 50.0224C9.98848 50.5864 9.82476 51.6645 10.3888 52.4304L12.684 55.5474C13.248 56.3133 14.3261 56.477 15.0921 55.913L28.2876 46.1963C29.0535 45.6323 29.2172 44.5541 28.6532 43.7882L26.358 40.6712C25.794 39.9053 24.7159 39.7416 23.95 40.3056Z" fill="white"/>
<path d="M54.9646 38.9113L28.2104 38.7229C27.5606 38.7184 27.0301 39.2414 27.0255 39.8912L26.7872 73.7389C26.7826 74.3887 27.3057 74.9192 27.9555 74.9238L54.7097 75.1122C55.3595 75.1168 55.89 74.5937 55.8945 73.9439L56.1329 40.0962C56.1374 39.4464 55.6144 38.9159 54.9646 38.9113Z" fill="white"/>
<path d="M58.6214 21.9086C58.5971 25.2504 57.5825 28.51 55.7058 31.2752C53.8291 34.0405 51.1745 36.1871 48.0779 37.4439C44.9813 38.7006 41.5815 39.0109 38.3086 38.3356C35.0356 37.6603 32.0363 36.0297 29.6899 33.65C27.3435 31.2703 25.7555 28.2483 25.1265 24.9661C24.4975 21.6838 24.8558 18.2888 26.1562 15.2103C27.4565 12.1317 29.6405 9.50777 32.432 7.67031C35.2235 5.83285 38.497 4.86434 41.8389 4.88722C46.3205 4.92242 50.6049 6.73465 53.7514 9.926C56.898 13.1173 58.6495 17.427 58.6214 21.9086Z" fill="white"/>
<path d="M53.7955 21.8759C53.7779 24.2672 53.0515 26.5996 51.7082 28.5781C50.3649 30.5566 48.4651 32.0922 46.2489 32.9909C44.0328 33.8895 41.5999 34.1107 39.258 33.6265C36.9162 33.1423 34.7705 31.9745 33.0924 30.2708C31.4142 28.567 30.2791 26.4039 29.8305 24.0549C29.3819 21.706 29.64 19.2767 30.5721 17.0745C31.5042 14.8722 33.0685 12.9959 35.0671 11.6827C37.0657 10.3696 39.4089 9.67864 41.8002 9.6973C43.3881 9.70745 44.9583 10.0307 46.421 10.6486C47.8837 11.2665 49.2101 12.1668 50.3243 13.2981C51.4386 14.4294 52.3187 15.7693 52.9144 17.2412C53.51 18.7131 53.8094 20.2881 53.7955 21.8759Z" fill="#2E3F5B"/>
<path d="M53.7955 21.8759C53.7779 24.2672 53.0515 26.5996 51.7082 28.5781C50.3649 30.5566 48.4651 32.0922 46.2489 32.9909C44.0328 33.8895 41.5999 34.1107 39.258 33.6265C36.9162 33.1423 34.7705 31.9745 33.0924 30.2708C31.4142 28.567 30.2791 26.4039 29.8305 24.0549C29.3819 21.706 29.64 19.2767 30.5721 17.0745C31.5042 14.8722 33.0685 12.9959 35.0671 11.6827C37.0657 10.3696 39.4089 9.67864 41.8002 9.6973C43.3881 9.70745 44.9583 10.0307 46.421 10.6486C47.8837 11.2665 49.2101 12.1668 50.3243 13.2981C51.4386 14.4294 52.3187 15.7693 52.9144 17.2412C53.51 18.7131 53.8094 20.2881 53.7955 21.8759Z" fill="url(#paint0_linear_169_2852)"/>
<path d="M51.6537 35.8596L31.5327 35.7179C30.5533 35.711 29.7537 36.4993 29.7468 37.4788L29.7427 38.0585C29.7358 39.0379 30.5242 39.8375 31.5036 39.8444L51.6247 39.9861C52.6041 39.993 53.4036 39.2046 53.4105 38.2252L53.4146 37.6454C53.4215 36.666 52.6331 35.8665 51.6537 35.8596Z" fill="white"/>
<path d="M36.7847 77.4551L28.0289 77.3968C27.4839 77.3913 26.9633 77.1704 26.5807 76.7823C26.1981 76.3943 25.9845 75.8706 25.9866 75.3256C25.9951 74.7783 26.2189 74.2563 26.6096 73.8729C27.0003 73.4895 27.5264 73.2755 28.0738 73.2773L36.8137 73.3416C37.3586 73.3472 37.8792 73.5681 38.2619 73.9561C38.6445 74.3442 38.858 74.8678 38.8559 75.4128C38.8504 75.9577 38.6295 76.4783 38.2414 76.861C37.8534 77.2436 37.3297 77.4572 36.7847 77.4551Z" fill="white"/>
<path d="M54.4381 77.6091L45.6823 77.5508C45.1374 77.5453 44.6168 77.3244 44.2342 76.9363C43.8515 76.5482 43.6379 76.0246 43.64 75.4796C43.6485 74.9323 43.8723 74.4103 44.263 74.0269C44.6537 73.6435 45.1798 73.4295 45.7272 73.4313L54.4671 73.4956C55.012 73.5012 55.5327 73.7221 55.9153 74.1101C56.2979 74.4982 56.5115 75.0218 56.5093 75.5668C56.5038 76.1117 56.2829 76.6323 55.8948 77.015C55.5068 77.3976 54.9831 77.6112 54.4381 77.6091Z" fill="white"/>
<path d="M25.7548 51.163C25.1131 51.1536 24.501 50.8916 24.0512 50.4339C23.6014 49.9761 23.3502 49.3595 23.3521 48.7177L23.3959 41.0796C23.4083 40.4352 23.672 39.8211 24.1306 39.3682C24.5892 38.9153 25.2065 38.6593 25.8511 38.6549C26.4928 38.6644 27.1049 38.9264 27.5546 39.3841C28.0044 39.8419 28.2556 40.4585 28.2538 41.1002L28.2001 48.7603C28.1906 49.402 27.9287 50.0141 27.4709 50.4639C27.0131 50.9137 26.3965 51.1649 25.7548 51.163Z" fill="white"/>
<path d="M14.9599 57.0368C14.419 57.3827 13.7635 57.5013 13.1357 57.3669C12.5079 57.2325 11.9585 56.8559 11.6066 56.3189L9.35032 52.8154C9.00512 52.2739 8.8891 51.6175 9.02785 50.9905C9.16661 50.3635 9.54874 49.8173 10.0902 49.4721C10.6311 49.1262 11.2865 49.0076 11.9143 49.142C12.5421 49.2764 13.0915 49.653 13.4434 50.19L15.6937 53.6776C16.04 54.2209 16.1572 54.8791 16.0197 55.5086C15.8822 56.138 15.5012 56.6874 14.9599 57.0368Z" fill="white"/>
<path d="M69.1386 55.8521C69.1341 56.6172 69.3566 57.3665 69.7778 58.0053C70.1989 58.6441 70.8 59.1437 71.505 59.4411C72.2099 59.7385 72.9872 59.8202 73.7387 59.6761C74.4901 59.5319 75.1819 59.1683 75.7268 58.6311C76.2717 58.094 76.6452 57.4074 76.8001 56.6581C76.9549 55.9088 76.8843 55.1304 76.5971 54.4213C76.3098 53.7121 75.8188 53.104 75.1861 52.6737C74.5534 52.2435 73.8074 52.0104 73.0423 52.0039C72.0152 51.9997 71.0283 52.402 70.2969 53.123C69.5655 53.844 69.149 54.8251 69.1386 55.8521Z" fill="#B0C4C6"/>
<path d="M54.6618 46.3806L67.7209 56.2799C68.4789 56.8545 69.5592 56.7058 70.1338 55.9478L72.4722 52.8631C73.0468 52.1051 72.8981 51.0248 72.1401 50.4502L59.0809 40.5509C58.3229 39.9763 57.2426 40.1249 56.668 40.8829L54.3297 43.9677C53.7551 44.7257 53.9038 45.806 54.6618 46.3806Z" fill="white"/>
<path d="M57.1615 51.3793C57.48 51.3825 57.7959 51.3228 58.0912 51.2037C58.3865 51.0846 58.6554 50.9084 58.8826 50.6852C59.1097 50.462 59.2906 50.1962 59.4149 49.903C59.5391 49.6099 59.6044 49.2951 59.6068 48.9766L59.6605 41.3165C59.6624 40.6748 59.4112 40.0582 58.9614 39.6004C58.5117 39.1426 57.8995 38.8806 57.2578 38.8712C56.6144 38.871 55.997 39.1251 55.5401 39.5781C55.0831 40.0312 54.8238 40.6465 54.8186 41.2899L54.7589 48.934C54.757 49.5758 55.0082 50.1924 55.4579 50.6502C55.9077 51.1079 56.5199 51.3699 57.1615 51.3793Z" fill="white"/>
<path d="M67.8842 57.4029C68.1505 57.5837 68.4501 57.7095 68.7656 57.7732C69.081 57.8368 69.406 57.8369 69.7215 57.7735C70.037 57.7101 70.3367 57.5844 70.6031 57.4037C70.8695 57.2231 71.0972 56.9912 71.2729 56.7216L73.6051 53.2495C73.7836 52.9825 73.9076 52.6829 73.97 52.3678C74.0324 52.0528 74.0319 51.7285 73.9686 51.4136C73.9053 51.0987 73.7804 50.7995 73.6011 50.533C73.4218 50.2665 73.1916 50.0381 72.9238 49.8608C72.6568 49.6823 72.3572 49.5583 72.0421 49.4959C71.7271 49.4335 71.4027 49.434 71.0879 49.4973C70.773 49.5606 70.4737 49.6855 70.2072 49.8648C69.9407 50.0441 69.7123 50.2742 69.535 50.5421L67.2089 54.0301C67.0304 54.2954 66.9062 54.5935 66.8435 54.9071C66.7808 55.2207 66.7808 55.5436 66.8436 55.8572C66.9064 56.1708 67.0306 56.4689 67.2092 56.7342C67.3878 56.9995 67.6173 57.2267 67.8842 57.4029Z" fill="white"/>
<path d="M50.0264 47.2225L33.4351 47.1057C32.6346 47.1 31.9811 47.7444 31.9755 48.5449L31.8759 62.6978C31.8702 63.4983 32.5146 64.1518 33.3151 64.1574L49.9064 64.2742C50.7069 64.2799 51.3603 63.6355 51.366 62.8351L51.4656 48.6821C51.4713 47.8816 50.8269 47.2281 50.0264 47.2225Z" fill="white"/>
<path d="M48.9293 52.8004L44.4705 52.7746C44.2975 52.7738 44.1265 52.7384 43.9674 52.6704C43.8083 52.6025 43.6644 52.5034 43.5442 52.3789C43.4241 52.2545 43.33 52.1073 43.2676 51.9459C43.2052 51.7846 43.1758 51.6124 43.181 51.4394C43.182 51.2663 43.2172 51.095 43.2847 50.9355C43.3521 50.7761 43.4504 50.6315 43.574 50.5102C43.6975 50.3888 43.8438 50.2931 44.0045 50.2286C44.1651 50.164 44.337 50.1319 44.5101 50.134L48.9529 50.1659C49.3012 50.1723 49.6331 50.3152 49.8772 50.5637C50.1213 50.8122 50.2582 51.1466 50.2584 51.495C50.2574 51.6681 50.2222 51.8394 50.1547 51.9989C50.0873 52.1584 49.989 52.3029 49.8654 52.4243C49.7419 52.5456 49.5956 52.6413 49.4349 52.7059C49.2743 52.7704 49.1024 52.8026 48.9293 52.8004Z" fill="#742D80"/>
<path d="M48.8888 48.5803L44.4301 48.5545C44.0821 48.5483 43.7508 48.4042 43.509 48.1538C43.2672 47.9035 43.1346 47.5674 43.1405 47.2193C43.1415 47.0462 43.1767 46.8749 43.2442 46.7154C43.3116 46.556 43.4099 46.4114 43.5335 46.2901C43.657 46.1687 43.8033 46.073 43.964 46.0084C44.1246 45.9439 44.2965 45.9118 44.4696 45.9139L48.9125 45.9458C49.0856 45.9468 49.2568 45.982 49.4163 46.0494C49.5758 46.1169 49.7204 46.2152 49.8417 46.3387C49.9631 46.4622 50.0587 46.6085 50.1233 46.7692C50.1879 46.9299 50.22 47.1017 50.2179 47.2749C50.2169 47.448 50.1817 47.6192 50.1143 47.7787C50.0468 47.9382 49.9485 48.0828 49.825 48.2041C49.7015 48.3255 49.5551 48.4212 49.3945 48.4857C49.2338 48.5503 49.062 48.5825 48.8888 48.5803Z" fill="#43AE44"/>
<g opacity="0.5">
<path opacity="0.5" d="M48.3514 15.0573C48.3464 15.4473 48.2262 15.8271 48.0059 16.149C47.7856 16.4708 47.475 16.7204 47.1133 16.8663C46.7516 17.0122 46.3548 17.0478 45.9729 16.9688C45.5909 16.8898 45.2408 16.6997 44.9667 16.4223C44.6925 16.1448 44.5064 15.7926 44.4319 15.4097C44.3574 15.0269 44.3977 14.6305 44.5478 14.2705C44.6979 13.9105 44.9511 13.603 45.2756 13.3865C45.6 13.17 45.9812 13.0542 46.3713 13.0537C46.6334 13.0534 46.8929 13.1052 47.1348 13.2061C47.3767 13.307 47.5961 13.4549 47.7804 13.6413C47.9646 13.8277 48.11 14.0489 48.208 14.292C48.306 14.5351 48.3548 14.7952 48.3514 15.0573Z" fill="white"/>
</g>
<defs>
<linearGradient id="paint0_linear_169_2852" x1="30.4088" y1="26.064" x2="53.0173" y2="17.5044" gradientUnits="userSpaceOnUse">
<stop stop-color="#43AE44"/>
<stop offset="1" stop-color="#B9D577"/>
</linearGradient>
</defs>
</svg>
