<svg width="126" height="36" viewBox="0 0 126 36" fill="none" xmlns="http://www.w3.org/2000/svg">
<path d="M11.928 50.9599H113.846C116.999 50.96 120.023 49.7119 122.259 47.4885C124.494 45.265 125.758 42.2471 125.774 39.0945C125.758 35.936 124.496 32.9115 122.262 30.6782C120.029 28.4448 117.005 27.1829 113.846 27.1665H11.928C8.76955 27.1829 5.74505 28.4448 3.51168 30.6782C1.27831 32.9115 0.0164185 35.936 1.52588e-05 39.0945C0.0165176 42.2471 1.28054 45.265 3.51568 47.4885C5.75082 49.7119 8.77528 50.96 11.928 50.9599Z" fill="white"/>
<path d="M28.5361 37.9072H87.1767C90.3293 37.8907 93.3472 36.6266 95.5707 34.3915C97.7941 32.1564 99.0422 29.1319 99.0421 25.9792C99.0257 22.8374 97.7702 19.8288 95.5486 17.6071C93.3269 15.3855 90.3185 14.1302 87.1767 14.1138H28.5361C25.3892 14.1138 22.3711 15.3638 20.1459 17.589C17.9207 19.8142 16.6706 22.8323 16.6706 25.9792C16.6706 29.1319 17.9187 32.1564 20.1421 34.3915C22.3655 36.6266 25.3834 37.8907 28.5361 37.9072Z" fill="white"/>
<path d="M42.928 23.7934H53.482C56.6347 23.7934 59.6592 22.5454 61.8943 20.322C64.1294 18.0985 65.3933 15.0806 65.4098 11.928C65.3934 8.76953 64.1315 5.74523 61.8981 3.51185C59.6648 1.27848 56.6404 0.0164077 53.482 0H42.928C39.7695 0.0164077 36.7451 1.27848 34.5117 3.51185C32.2783 5.74523 31.0164 8.76953 31 11.928C31.0165 15.0806 32.2804 18.0985 34.5155 20.322C36.7506 22.5454 39.7753 23.7934 42.928 23.7934Z" fill="white"/>
</svg>
