<svg width="84" height="26" viewBox="0 0 84 26" fill="none" xmlns="http://www.w3.org/2000/svg">
<path d="M8.42477 33.4628H75.3493C77.4195 33.4628 79.4057 32.6433 80.8734 31.1833C82.3411 29.7233 83.171 27.7416 83.1818 25.6714C83.171 23.5974 82.3424 21.6113 80.8759 20.1448C79.4093 18.6783 77.4233 17.8496 75.3493 17.8389H8.42477C6.35079 17.8496 4.36475 18.6783 2.89821 20.1448C1.43166 21.6113 0.60305 23.5974 0.592278 25.6714C0.603111 27.7416 1.43314 29.7233 2.90084 31.1833C4.36854 32.6433 6.35455 33.4628 8.42477 33.4628Z" fill="white"/>
<path d="M19.3305 24.8918H57.8368C59.907 24.8809 61.8887 24.0509 63.3488 22.5832C64.8088 21.1155 65.6283 19.1295 65.6283 17.0593C65.6175 14.9962 64.7931 13.0206 63.3342 11.5617C61.8754 10.1029 59.9 9.2786 57.8368 9.26782H19.3305C17.2641 9.26782 15.2823 10.0887 13.8211 11.5499C12.3599 13.011 11.5391 14.9928 11.5391 17.0593C11.539 19.1295 12.3586 21.1155 13.8186 22.5832C15.2786 24.0509 17.2603 24.8809 19.3305 24.8918Z" fill="white"/>
<path d="M28.7809 15.6239H35.7113C37.7815 15.624 39.7675 14.8044 41.2352 13.3444C42.7029 11.8844 43.5328 9.90269 43.5436 7.8325C43.5329 5.75851 42.7043 3.77261 41.2377 2.30606C39.7712 0.839514 37.7853 0.0107741 35.7113 0H28.7809C26.707 0.0107741 24.7209 0.839514 23.2544 2.30606C21.7878 3.77261 20.9592 5.75851 20.9485 7.8325C20.9593 9.90269 21.7892 11.8844 23.2569 13.3444C24.7246 14.8044 26.7107 15.624 28.7809 15.6239Z" fill="white"/>
</svg>
