<svg width="270" height="214" viewBox="0 0 270 214" fill="none" xmlns="http://www.w3.org/2000/svg">
<path d="M104.261 1.89549L101.11 -13.3389L115.658 -7.76912L130.866 -10.9079L125.284 3.58196L128.4 18.8447L113.886 13.2466L98.645 16.4137L104.261 1.89549Z" fill="white"/>
<path d="M99.4159 63.7385L97.3509 53.7819L106.869 57.4182L116.859 55.3756L113.182 64.8632L115.214 74.8481L105.729 71.1834L95.7679 73.2594L99.4159 63.7385Z" fill="white"/>
<path d="M248.525 94.1012L246.89 86.0752L254.508 89.028L262.537 87.3846L259.575 95.004L261.243 103.002L253.592 100.077L245.591 101.754L248.525 94.1012Z" fill="white"/>
<path d="M5.73011 152.808L4.86861 148.578L8.88349 150.134L13.1155 149.268L11.5543 153.284L12.4334 157.499L8.40091 155.958L4.18383 156.842L5.73011 152.808Z" fill="white"/>
<path d="M170.336 205.01L169.475 200.78L173.49 202.336L177.721 201.47L176.16 205.486L177.039 209.701L173.007 208.16L168.79 209.043L170.336 205.01Z" fill="white"/>
</svg>
