<svg width="99" height="99" viewBox="0 0 99 99" fill="none" xmlns="http://www.w3.org/2000/svg">
<circle cx="49" cy="49.3573" r="41" fill="#36163C"/>
<circle opacity="0.1" cx="49" cy="49.3573" r="48.5" stroke="black"/>
<circle cx="49" cy="49.3573" r="33.5" stroke="white"/>
<circle cx="49" cy="49.3573" r="25.5" stroke="white"/>
<path d="M51 15.8432C51.0028 16.7339 50.7412 17.6052 50.2484 18.3471C49.7557 19.089 49.0538 19.668 48.2318 20.0107C47.4098 20.3535 46.5046 20.4446 45.6307 20.2725C44.7569 20.1005 43.9537 19.673 43.323 19.0443C42.6923 18.4155 42.2623 17.6137 42.0875 16.7404C41.9127 15.8671 42.001 14.9616 42.3412 14.1385C42.6814 13.3154 43.2581 12.6118 43.9985 12.1167C44.7388 11.6216 45.6094 11.3573 46.5 11.3573C47.691 11.3573 48.8335 11.8295 49.677 12.6703C50.5205 13.5112 50.9963 14.6522 51 15.8432Z" fill="url(#paint0_linear_169_2853)"/>
<path d="M41.8353 71.7696C41.8379 72.4475 41.6396 73.111 41.2656 73.6759C40.8916 74.2409 40.3587 74.6819 39.7344 74.9431C39.1102 75.2043 38.4226 75.274 37.7588 75.1433C37.095 75.0126 36.4848 74.6874 36.0056 74.2089C35.5263 73.7304 35.1995 73.1201 35.0666 72.4553C34.9337 71.7906 35.0006 71.1013 35.2589 70.4747C35.5172 69.848 35.9553 69.3124 36.5176 68.9354C37.0799 68.5585 37.7412 68.3573 38.4177 68.3573C39.3219 68.3573 40.1892 68.7164 40.8298 69.356C41.4704 69.9955 41.832 70.8634 41.8353 71.7696Z" fill="#BCAD87"/>
<path d="M99 58.8573C99 59.3518 98.8534 59.8351 98.5787 60.2462C98.304 60.6574 97.9135 60.9778 97.4567 61.167C96.9999 61.3562 96.4972 61.4057 96.0123 61.3093C95.5273 61.2128 95.0819 60.9747 94.7322 60.6251C94.3826 60.2754 94.1445 59.83 94.048 59.345C93.9516 58.8601 94.0011 58.3574 94.1903 57.9006C94.3795 57.4438 94.7 57.0533 95.1111 56.7786C95.5222 56.5039 96.0055 56.3573 96.5 56.3573C96.8283 56.3573 97.1534 56.422 97.4567 56.5476C97.76 56.6732 98.0356 56.8574 98.2678 57.0895C98.4999 57.3217 98.6841 57.5973 98.8097 57.9006C98.9353 58.2039 99 58.529 99 58.8573Z" fill="#FF2E00"/>
<path d="M44.3186 42.8405L44.8792 36.7586L48.9128 41.1551L44.3186 42.8405Z" fill="#FFE266"/>
<path d="M48.2913 41.3384L51.7034 36.2701L53.1292 42.0589L48.2913 41.3384Z" fill="#FFE266"/>
<path d="M52.0325 41.7536L57.2847 38.6516L56.1026 44.4892L52.0325 41.7536Z" fill="#FFE266"/>
<path d="M55.2373 43.7565L61.306 43.1947L57.7355 47.9698L55.2373 43.7565Z" fill="#FFE266"/>
<path d="M57.2847 46.9318L63 49.0445L57.7356 51.8046L57.2847 46.9318Z" fill="#FFE266"/>
<path d="M57.76 50.6811L62.0373 55.041L56.0905 55.2852L57.76 50.6811Z" fill="#FFE266"/>
<path d="M56.6023 54.2715L58.5887 60.048L53.1171 57.7032L56.6023 54.2715Z" fill="#FFE266"/>
<path d="M54.0066 57.0193L53.3242 63.089L49.3881 58.6192L54.0066 57.0193Z" fill="#FFE266"/>
<path d="M50.4848 58.3749L47.2799 63.5775L45.6226 57.8498L50.4848 58.3749Z" fill="#FFE266"/>
<path d="M46.7315 58.1062L41.6011 61.4158L42.5638 55.5294L46.7315 58.1062Z" fill="#FFE266"/>
<path d="M43.4534 56.2378L37.4091 57.0316L40.7846 52.1221L43.4534 56.2378Z" fill="#FFE266"/>
<path d="M41.2843 53.1357L35.4836 51.255L40.6384 48.2873L41.2843 53.1357Z" fill="#FFE266"/>
<path d="M40.6628 49.4109L36.2271 45.222L42.1495 44.7457L40.6628 49.4109Z" fill="#FFE266"/>
<path d="M41.6864 45.7715L39.4685 40.0804L45.0376 42.2054L41.6864 45.7715Z" fill="#FFE266"/>
<path d="M57.8086 49.8017C57.8086 51.5167 57.3012 53.1931 56.3505 54.619C55.3998 56.045 54.0485 57.1563 52.4675 57.8126C50.8865 58.4689 49.1468 58.6406 47.4685 58.306C45.7901 57.9715 44.2485 57.1456 43.0384 55.933C41.8284 54.7203 41.0044 53.1753 40.6705 51.4933C40.3367 49.8113 40.508 48.0679 41.1629 46.4835C41.8177 44.8991 42.9267 43.5448 44.3496 42.5921C45.7724 41.6393 47.4452 41.1307 49.1565 41.1307C51.4511 41.1307 53.6519 42.0443 55.2745 43.6704C56.8971 45.2965 57.8086 47.502 57.8086 49.8017Z" fill="#F2B816"/>
<defs>
<linearGradient id="paint0_linear_169_2853" x1="42.0039" y1="15.8573" x2="51" y2="15.8573" gradientUnits="userSpaceOnUse">
<stop stop-color="#43AE44"/>
<stop offset="1" stop-color="#B9D577"/>
</linearGradient>
</defs>
</svg>
