<svg width="501" height="154" viewBox="0 0 501 154" fill="none" xmlns="http://www.w3.org/2000/svg">
<path d="M234.162 107.477L199.642 16H181L228.869 138H239.278L243.336 127.705L234.162 107.477ZM268.682 16L243.247 83.4759L253.039 102.798L287 16H268.682Z" fill="#36163C"/>
<path d="M302 16V138H319V16H302Z" fill="#36163C"/>
<path d="M331 16V32.3069H354.578V138H372.482V32.3069H396V16H331Z" fill="#36163C"/>
<path d="M455.411 16H439.619L394 138H412.498L425.82 102.073H453.775L449.017 85.7402H432.006L447.411 39.0656H447.738L463.024 85.7402L468.971 102.073L482.265 138H501L455.411 16Z" fill="#36163C"/>
<path fill-rule="evenodd" clip-rule="evenodd" d="M101 154C143.526 154 178 119.526 178 77C178 53.0543 167.069 31.6615 149.926 17.539L150.101 79.5971C150.095 89.4565 147.214 99.0929 141.82 107.289C136.426 115.486 128.763 121.875 119.797 125.649C110.832 129.424 100.966 130.414 91.4468 128.496C81.9273 126.578 73.181 121.837 66.3122 114.871C59.4435 107.906 54.7605 99.0295 52.8547 89.3621C50.9488 79.6947 51.9057 69.6704 55.6043 60.5551C59.3029 51.4398 65.5775 43.6425 73.6355 38.1478C81.6936 32.6531 91.1736 29.7075 100.878 29.6831C106.135 29.6648 111.359 30.5199 116.344 32.2144L117.225 32.523V50.5192L115.341 49.5623C110.844 47.305 105.895 46.1325 100.878 46.1359C94.3689 46.1298 88.0038 48.0853 82.5883 51.755C77.1729 55.4246 72.9505 60.6436 70.4552 66.7516C67.9599 72.8597 67.3039 79.5824 68.5702 86.0693C69.8364 92.5562 72.9681 98.5157 77.5689 103.194C82.1698 107.873 88.0331 111.06 94.4172 112.352C100.801 113.644 107.419 112.984 113.434 110.455C119.448 107.925 124.59 103.641 128.207 98.1424C131.824 92.6441 133.755 86.1795 133.755 79.5663V7.29387C123.815 2.61532 112.713 0 101 0C58.4741 0 24 34.4741 24 77C24 119.526 58.4741 154 101 154Z" fill="#36163C"/>
</svg>
