<svg width="89" height="34" viewBox="0 0 89 34" fill="none" xmlns="http://www.w3.org/2000/svg">
<g clip-path="url(#clip0_125_1842)">
<path d="M1.18809 18.4237C1.48435 22.233 3.12839 25.8108 5.82368 28.5118L5.01331 29.3209C2.12564 26.4275 0.364608 22.5943 0.0480728 18.5132L1.18809 18.4237Z" fill="white"/>
<path d="M33.6922 12.7806C34.4545 15.6861 34.4435 18.7414 33.6602 21.6413C32.8769 24.5412 31.3488 27.1845 29.2283 29.3072L28.4248 28.498C30.3982 26.5104 31.8194 24.0402 32.5476 21.3322C33.2758 18.6242 33.2856 15.7724 32.5762 13.0595L33.6922 12.7806Z" fill="white"/>
<path d="M22.996 1.03636L22.608 2.10714C19.9998 1.16082 17.1915 0.908262 14.457 1.37409C11.7225 1.83992 9.15506 3.00825 7.0049 4.76517C6.59257 5.10214 6.19828 5.46072 5.82368 5.83939L5.01331 5.03028C5.4158 4.6266 5.83871 4.24391 6.28037 3.88374C8.5999 1.97435 11.3812 0.712994 14.3429 0.22724C17.2488 -0.248671 20.2279 0.0298927 22.996 1.03636Z" fill="white"/>
<path d="M3.44408 8.8727C2.48071 10.4698 1.80321 12.2234 1.44219 14.0545L0.32621 13.8341C0.710494 11.8719 1.437 9.99305 2.47232 8.28394L3.44408 8.8727Z" fill="white"/>
<path d="M1.16749 16.1995C1.14689 16.5851 1.13659 16.9776 1.14002 17.3667H0.00344086C0.00344086 16.9501 0.00344091 16.53 0.0343449 16.1134L1.16749 16.1995Z" fill="white"/>
<path d="M11.6474 31.7827C15.203 33.1576 19.1315 33.2137 22.7247 31.9411L23.1024 33.0187C19.2539 34.389 15.0427 34.3279 11.2353 32.8466L11.6474 31.7827Z" fill="white"/>
<path d="M31.268 14.7947C31.5887 16.7149 31.5174 18.6804 31.0585 20.5722C30.5757 22.5945 29.6555 24.4858 28.363 26.112C28.0195 26.5384 27.6527 26.9453 27.2642 27.3308C25.3269 29.2736 22.8748 30.6188 20.1985 31.2072C17.5221 31.7955 14.7337 31.6024 12.1634 30.6506C9.59322 29.6988 7.34894 28.0282 5.69648 25.8368C4.04401 23.6454 3.05261 21.025 2.83973 18.286L3.97288 18.1999C4.16924 20.7215 5.0823 23.1339 6.60389 25.1513C8.12549 27.1686 10.1919 28.7064 12.5582 29.5825C14.9246 30.4585 17.4918 30.6361 19.9558 30.0943C22.4197 29.5524 24.6771 28.3138 26.4607 26.5252C28.1708 24.8082 29.3786 22.654 29.9528 20.2967C30.3768 18.5551 30.4422 16.7451 30.1451 14.9772L31.268 14.7947Z" fill="white"/>
<path d="M27.2642 7.01691C28.7964 8.54638 29.9613 10.4055 30.6705 12.4535L29.5957 12.8288C29.2284 11.7668 28.7263 10.7566 28.102 9.82298C27.6205 9.1047 27.0708 8.43478 26.4607 7.82258L27.2642 7.01691Z" fill="white"/>
<path d="M27.0753 6.82408L26.2855 7.64696C25.3942 6.78187 24.3849 6.04806 23.2879 5.46752C22.9891 5.30914 22.6801 5.16109 22.371 5.02681C22.1341 4.92696 21.8937 4.83056 21.6499 4.74104C19.2883 3.87894 16.7304 3.71063 14.2766 4.25588C11.8229 4.80114 9.57537 6.0373 7.7981 7.81912L6.9946 7.01689C7.33054 6.67878 7.68354 6.35816 8.0522 6.05628C9.97666 4.47619 12.278 3.42534 14.7301 3.00701C17.1822 2.58867 19.7006 2.81724 22.038 3.67025C22.3024 3.76666 22.5668 3.87339 22.8243 3.98357C23.1677 4.13162 23.4939 4.29 23.8167 4.46215C24.3717 4.75496 24.9063 5.08509 25.4168 5.4503C26.0031 5.86602 26.5575 6.32524 27.0753 6.82408Z" fill="white"/>
<path d="M27.7518 12.963C28.1696 14.0262 28.4266 15.1461 28.5141 16.2855L27.6075 16.3544C27.5259 15.3069 27.2887 14.2776 26.9036 13.3004L27.7518 12.963Z" fill="white"/>
<path d="M25.2039 9.08273C26.0328 9.91468 26.7278 10.8706 27.2642 11.9164L26.4572 12.3364C25.9602 11.373 25.3173 10.4926 24.5515 9.72658L25.2039 9.08273Z" fill="white"/>
<path d="M28.5484 17.0396C28.5484 17.315 28.5484 17.5974 28.5278 17.8728C28.4971 18.3862 28.4317 18.897 28.3321 19.4015C28.073 20.7088 27.5897 21.9612 26.9036 23.1028C26.4207 23.8926 25.8442 24.6209 25.1867 25.2719C24.9196 25.541 24.6388 25.7961 24.3455 26.0363C22.7978 27.3085 20.9431 28.1493 18.9682 28.4739C17.0322 28.7904 15.0476 28.6055 13.2029 27.9368C12.9934 27.8576 12.7805 27.775 12.5779 27.6855C12.3101 27.5718 12.0422 27.441 11.7847 27.3067C11.3435 27.0718 10.918 26.8085 10.5108 26.5183C9.99076 26.1429 9.50367 25.7236 9.05486 25.265C7.62931 23.8357 6.60582 22.054 6.08808 20.1005C5.57766 18.1643 5.58303 16.1277 6.10365 14.1942C6.62428 12.2608 7.64192 10.4982 9.05486 9.08273L9.70042 9.72658C8.39974 11.0314 7.46194 12.6547 6.98007 14.4351C6.49819 16.2156 6.489 18.0915 6.9534 19.8767C7.24669 21.0029 7.72729 22.0714 8.37498 23.0374C9.35075 24.4941 10.6739 25.6835 12.2242 26.4976C12.4612 26.625 12.705 26.7421 12.9522 26.8419C13.1411 26.9246 13.3333 27.0003 13.5256 27.0726C15.2403 27.6941 17.0863 27.8597 18.8838 27.5532C20.6813 27.2466 22.3689 26.4785 23.7823 25.3235C24.0502 25.1032 24.3111 24.8656 24.5584 24.6349C25.1574 24.0348 25.682 23.3643 26.1207 22.638C26.5067 21.996 26.8243 21.3151 27.0684 20.6066C27.2203 20.1559 27.343 19.6959 27.4359 19.2294C27.528 18.7647 27.5877 18.2942 27.6144 17.8212C27.6144 17.5664 27.6385 17.3081 27.635 17.0534L28.5484 17.0396Z" fill="white"/>
<path opacity="0.5" d="M2.32809 18.3342C2.44079 19.8148 2.77413 21.2702 3.31702 22.6517L2.26628 23.0718C1.68183 21.5843 1.3219 20.0177 1.19838 18.4237L2.32809 18.3342Z" fill="white"/>
<path d="M3.93854 24.0186C4.64214 25.3778 5.55013 26.6204 6.63062 27.7027L5.82711 28.5083C4.66185 27.3448 3.68413 26.0067 2.92901 24.542L3.93854 24.0186Z" fill="white"/>
<path d="M28.4351 5.84284C29.173 6.57979 29.8377 7.38696 30.4198 8.25297C31.4051 9.7273 32.1375 11.3565 32.5865 13.0732C33.3024 15.7847 33.2957 18.6372 32.5672 21.3453C31.8386 24.0534 30.4138 26.5222 28.4351 28.5049L27.6281 27.6992C30.06 25.2646 31.5736 22.059 31.9106 18.6298C32.2475 15.2006 31.3868 11.7605 29.4755 8.89682C28.936 8.08648 28.3171 7.33216 27.6281 6.64507C27.0368 6.05102 26.397 5.50743 25.7155 5.01996C25.1867 4.6384 24.6325 4.2933 24.057 3.98704C23.7136 3.80801 23.3703 3.64274 23.0269 3.49125C22.7625 3.37418 22.4878 3.26745 22.2165 3.1676C19.794 2.28936 17.1858 2.05546 14.6463 2.48871C12.1068 2.92195 9.72256 4.00756 7.72599 5.6397C7.34828 5.95302 6.98086 6.28699 6.63062 6.63818C5.78524 7.48658 5.04402 8.43325 4.4227 9.45803C3.87533 10.3633 3.42637 11.3248 3.08353 12.3261C2.65141 13.5961 2.39155 14.9186 2.31093 16.258C2.28689 16.6023 2.28003 16.9811 2.28346 17.3426H1.14688C1.14688 16.9535 1.14688 16.561 1.17435 16.1754C1.21596 15.456 1.30775 14.7404 1.44905 14.0338C1.80919 12.2079 2.48681 10.4598 3.45094 8.86927C4.11841 7.766 4.91624 6.74753 5.82712 5.83596C6.2014 5.45722 6.59972 5.09915 7.0049 4.76173C9.15292 3.00207 11.7199 1.83197 14.4545 1.36603C17.189 0.900083 19.9974 1.15427 22.6045 2.1037C22.8998 2.21044 23.1917 2.33094 23.4801 2.44801C23.8544 2.60983 24.2287 2.79231 24.5893 2.97824C25.2069 3.30768 25.8032 3.67566 26.3748 4.08001C27.1092 4.60924 27.7983 5.19889 28.4351 5.84284Z" fill="white"/>
<path d="M25.8563 8.42514C27.9338 10.5122 29.2012 13.2736 29.4309 16.2133L28.5175 16.2822C28.3033 13.564 27.1296 11.0114 25.2073 9.08276L25.8563 8.42514Z" fill="white"/>
<path opacity="0.47" d="M8.40588 8.42512L9.05486 9.0793C7.64658 10.4979 6.6321 12.2606 6.11175 14.193C5.59141 16.1254 5.58325 18.1605 6.08808 20.097L5.19873 20.3312C4.64611 18.2372 4.65147 16.0345 5.2143 13.9433C5.77712 11.8521 6.87767 9.94568 8.40588 8.41479V8.42512Z" fill="white"/>
<path d="M7.63328 23.5435C8.41212 24.7024 9.39265 25.7112 10.5279 26.5217L9.99571 27.2723C9.428 26.8691 8.89607 26.4176 8.40587 25.9226C7.83404 25.3517 7.3199 24.7255 6.87098 24.0531L7.63328 23.5435Z" fill="white"/>
<path d="M12.5916 27.6751L12.2242 28.5325C11.9358 28.4085 11.6474 28.2708 11.3692 28.1227L11.7984 27.3067C12.0594 27.4445 12.3272 27.5718 12.5916 27.6751Z" fill="white"/>
<path d="M25.2073 25.265L25.8563 25.9157C25.5644 26.2084 25.2588 26.4873 24.9464 26.7455C23.2896 28.1064 21.3086 29.0122 19.1975 29.3744C17.0865 29.7365 14.9179 29.5425 12.9041 28.8113L13.2166 27.9437C15.0796 28.6198 17.0856 28.8004 19.0389 28.4679C20.9923 28.1354 22.8264 27.3012 24.3626 26.0466C24.6545 25.7987 24.9292 25.5405 25.2073 25.265Z" fill="white"/>
<path opacity="0.5" d="M29.2351 19.5805C28.9589 20.9949 28.4358 22.3493 27.69 23.5814L26.9036 23.1062C27.5914 21.9676 28.076 20.7174 28.3355 19.4118L29.2351 19.5805Z" fill="white"/>
<path d="M29.4687 17.0293C29.4687 17.3288 29.4687 17.6318 29.4481 17.9279L28.5312 17.8728C28.5312 17.5974 28.5518 17.315 28.5518 17.0396L29.4687 17.0293Z" fill="white"/>
<path d="M24.3729 9.91249C26.0959 11.6443 27.1455 13.9361 27.3328 16.3751L26.4263 16.4474C26.288 14.6636 25.6426 12.9569 24.5666 11.5296C23.4907 10.1023 22.0291 9.01421 20.3553 8.39425C18.6815 7.77429 16.8655 7.64845 15.1225 8.03165C13.3795 8.41485 11.7827 9.29102 10.5211 10.5563C9.30871 11.7696 8.45328 13.2945 8.04876 14.9634C7.75437 16.1954 7.71231 17.4745 7.92515 18.7232L7.0255 18.8713C6.79567 17.4982 6.8459 16.0927 7.17315 14.7396C7.52438 13.3024 8.18413 11.9594 9.10637 10.8042C9.34871 10.4964 9.60899 10.2033 9.88584 9.92626C10.837 8.97235 11.9663 8.21565 13.2091 7.69938C14.452 7.18311 15.7841 6.91739 17.1294 6.91739C18.4747 6.91739 19.8068 7.18311 21.0496 7.69938C22.2925 8.21565 23.4218 8.97235 24.3729 9.92626V9.91249Z" fill="white"/>
<path d="M8.31317 20.252C8.57376 21.0029 8.92796 21.7178 9.36734 22.3797C9.71005 22.8871 10.0998 23.361 10.5314 23.7948L9.88584 24.4387C9.4121 23.9636 8.98546 23.4436 8.61191 22.8859C8.12767 22.1604 7.73765 21.3759 7.45129 20.5515L8.31317 20.252Z" fill="white"/>
<path d="M23.7308 23.7948L24.3729 24.4387C24.1326 24.6797 23.8785 24.9104 23.6175 25.1273C22.241 26.2546 20.596 27.004 18.8438 27.3022C17.0916 27.6004 15.2921 27.437 13.6218 26.8281C13.4329 26.7593 13.2441 26.6835 13.0621 26.6044C12.8217 26.5011 12.5813 26.3874 12.3513 26.26C11.9509 26.051 11.5644 25.8164 11.1941 25.5577C10.779 25.2615 10.3875 24.9334 10.0232 24.5764L10.655 23.9188C10.9911 24.2454 11.3516 24.5458 11.7332 24.8174C12.0631 25.0531 12.4071 25.2681 12.7633 25.4613C12.9762 25.5714 13.1926 25.6747 13.4123 25.7711C13.5806 25.8434 13.7557 25.9123 13.924 25.9743C15.4461 26.5263 17.0848 26.6737 18.6807 26.4022C20.2765 26.1307 21.775 25.4495 23.0303 24.4249C23.2776 24.2321 23.5111 24.0117 23.7308 23.7948Z" fill="white"/>
<path d="M49.6283 10.0296H47.805V18.4065C47.805 19.1441 47.5868 19.8652 47.178 20.4785C46.7693 21.0917 46.1883 21.5697 45.5086 21.8518C44.8288 22.1339 44.0809 22.2075 43.3595 22.0634C42.638 21.9192 41.9754 21.5638 41.4554 21.0419C40.9355 20.5201 40.5816 19.8554 40.4385 19.1318C40.2954 18.4083 40.3695 17.6584 40.6515 16.9771C40.9335 16.2958 41.4107 15.7137 42.0227 15.3044C42.6347 14.8951 43.354 14.677 44.0897 14.6777C44.6566 14.6773 45.2159 14.8081 45.7241 15.0598L45.937 15.1666V13.1593L45.8375 13.1249C45.2741 12.9359 44.6837 12.8405 44.0897 12.8425C42.9929 12.8453 41.9216 13.1738 41.0109 13.7867C40.1003 14.3996 39.3912 15.2693 38.9732 16.286C38.5552 17.3027 38.4471 18.4208 38.6625 19.4991C38.8779 20.5774 39.4071 21.5675 40.1833 22.3444C40.9596 23.1213 41.948 23.6501 43.0238 23.8641C44.0996 24.078 45.2145 23.9675 46.2277 23.5466C47.2409 23.1256 48.107 22.4129 48.7165 21.4987C49.326 20.5845 49.6517 19.5096 49.6524 18.4099L49.6283 10.0296Z" fill="white"/>
<path d="M58.0205 20.462L53.9892 10.0296H51.8122L57.4024 23.9429H58.618L59.0918 22.7688L58.0205 20.462ZM62.0517 10.0296L59.0815 17.7248L60.225 19.9283L64.191 10.0296H62.0517Z" fill="white"/>
<path d="M65.822 10.0296V23.9429H67.8514V10.0296H65.822Z" fill="white"/>
<path d="M69.3622 10.0296V11.8888H72.0303V23.9394H74.0562V11.8888H76.7174V10.0296H69.3622Z" fill="white"/>
<path d="M83.7326 10.0296H81.9093L76.6418 23.9429H78.7777L80.316 19.8457H83.5437L82.9943 17.983H81.0302L82.8089 12.6601H82.8467L84.6116 17.983L85.2984 19.8457L86.8333 23.9429H88.9966L83.7326 10.0296Z" fill="white"/>
<path d="M17.1139 9.1344C15.5355 9.13372 13.9923 9.60243 12.6795 10.4812C11.3667 11.3601 10.3434 12.6095 9.73884 14.0715C9.13432 15.5336 8.9758 17.1426 9.28332 18.695C9.59085 20.2473 10.3506 21.6734 11.4665 22.7928C12.5824 23.9122 14.0043 24.6746 15.5524 24.9836C17.1005 25.2927 18.7052 25.1344 20.1636 24.5289C21.6219 23.9234 22.8684 22.8978 23.7455 21.5818C24.6225 20.2659 25.0906 18.7187 25.0906 17.136C25.091 16.0854 24.8851 15.045 24.4844 14.0742C24.0837 13.1034 23.4962 12.2213 22.7555 11.4782C22.0147 10.7352 21.1353 10.1457 20.1673 9.74356C19.1993 9.3414 18.1617 9.1344 17.1139 9.1344ZM17.1139 22.9066C15.9796 22.9038 14.8715 22.5642 13.9294 21.9306C12.9874 21.297 12.2537 20.3978 11.8208 19.3465C11.388 18.2951 11.2754 17.1388 11.4974 16.0233C11.7194 14.9079 12.2659 13.8834 13.068 13.0792C13.8701 12.2749 14.8918 11.7269 16.0042 11.5043C17.1167 11.2818 18.2699 11.3946 19.3184 11.8286C20.3669 12.2626 21.2637 12.9984 21.8956 13.9429C22.5275 14.8875 22.8662 15.9986 22.8689 17.136C22.8685 17.893 22.7192 18.6425 22.4297 19.3417C22.1401 20.0408 21.716 20.6759 21.1815 21.2105C20.647 21.7452 20.0127 22.169 19.3147 22.4576C18.6168 22.7463 17.8689 22.8941 17.1139 22.8928V22.9066Z" fill="white"/>
<path d="M17.1139 11.3793C15.979 11.382 14.8703 11.7219 13.928 12.3561C12.9857 12.9903 12.2519 13.8904 11.8195 14.9425C11.3871 15.9947 11.2753 17.1517 11.4984 18.2675C11.7215 19.3833 12.2693 20.4078 13.0728 21.2115C13.8763 22.0152 14.8993 22.5621 16.0126 22.7832C17.126 23.0042 18.2796 22.8894 19.3279 22.4532C20.3762 22.0171 21.272 21.2793 21.9023 20.3329C22.5326 19.3865 22.8689 18.274 22.8689 17.136C22.8689 16.3789 22.72 15.6292 22.4306 14.9298C22.1412 14.2305 21.7171 13.5952 21.1825 13.0605C20.6479 12.5258 20.0134 12.102 19.3152 11.8135C18.6171 11.525 17.869 11.3774 17.1139 11.3793ZM17.1139 21.0198C16.3491 21.0198 15.6014 20.7923 14.9655 20.3662C14.3296 19.94 13.834 19.3343 13.5415 18.6257C13.2489 17.9171 13.1726 17.1374 13.322 16.3853C13.4715 15.6332 13.8401 14.9424 14.3812 14.4003C14.9222 13.8583 15.6115 13.4893 16.3617 13.3401C17.112 13.1909 17.8895 13.2682 18.5959 13.5621C19.3024 13.8561 19.906 14.3535 20.3304 14.9915C20.7549 15.6295 20.981 16.3794 20.9804 17.1463C20.9767 18.1722 20.5678 19.1547 19.8431 19.8788C19.1184 20.6029 18.137 21.0094 17.1139 21.0094V21.0198Z" fill="white"/>
</g>
<defs>
<clipPath id="clip0_125_1842">
<rect width="89" height="34" fill="white"/>
</clipPath>
</defs>
</svg>
