<svg width="89" height="34" viewBox="0 0 89 34" fill="none" xmlns="http://www.w3.org/2000/svg">
<g clip-path="url(#clip0_206_2832)">
<path d="M1.18811 18.4237C1.48437 22.233 3.12841 25.8108 5.8237 28.5118L5.01333 29.3209C2.12566 26.4275 0.36463 22.5943 0.0480957 18.5132L1.18811 18.4237Z" fill="#252525"/>
<path d="M33.6922 12.7806C34.4546 15.6861 34.4435 18.7414 33.6602 21.6413C32.877 24.5412 31.3488 27.1845 29.2283 29.3072L28.4248 28.498C30.3982 26.5104 31.8195 24.0402 32.5476 21.3322C33.2758 18.6242 33.2857 15.7724 32.5762 13.0595L33.6922 12.7806Z" fill="#252525"/>
<path d="M22.9961 1.03636L22.6081 2.10714C19.9999 1.16082 17.1917 0.908261 14.4572 1.37409C11.7227 1.83992 9.15518 3.00825 7.00502 4.76517C6.59269 5.10214 6.1984 5.46072 5.8238 5.83939L5.01343 5.03028C5.41592 4.6266 5.83884 4.24391 6.28049 3.88374C8.60002 1.97435 11.3813 0.712994 14.343 0.22724C17.2489 -0.248671 20.228 0.0298927 22.9961 1.03636Z" fill="#252525"/>
<path d="M3.44404 8.8727C2.48067 10.4698 1.80317 12.2234 1.44215 14.0545L0.326172 13.8341C0.710456 11.8719 1.43696 9.99305 2.47228 8.28394L3.44404 8.8727Z" fill="#252525"/>
<path d="M1.16747 16.1995C1.14686 16.5851 1.13656 16.9776 1.14 17.3667H0.00341797C0.00341797 16.9501 0.00341802 16.53 0.034322 16.1134L1.16747 16.1995Z" fill="#252525"/>
<path d="M11.6474 31.7827C15.203 33.1576 19.1315 33.2137 22.7248 31.9411L23.1025 33.0187C19.254 34.389 15.0427 34.3279 11.2354 32.8466L11.6474 31.7827Z" fill="#252525"/>
<path d="M31.2681 14.7947C31.5888 16.7149 31.5175 18.6804 31.0586 20.5722C30.5758 22.5945 29.6556 24.4858 28.3631 26.112C28.0197 26.5384 27.6528 26.9453 27.2643 27.3308C25.327 29.2736 22.8749 30.6188 20.1986 31.2072C17.5222 31.7955 14.7338 31.6024 12.1636 30.6506C9.59334 29.6988 7.34906 28.0282 5.69659 25.8368C4.04413 23.6454 3.05273 21.025 2.83984 18.286L3.97299 18.1999C4.16936 20.7215 5.08242 23.1339 6.60401 25.1513C8.1256 27.1686 10.192 28.7064 12.5583 29.5825C14.9247 30.4585 17.4919 30.6361 19.9559 30.0943C22.4198 29.5524 24.6773 28.3138 26.4608 26.5252C28.1709 24.8082 29.3787 22.654 29.9529 20.2967C30.3769 18.5551 30.4423 16.7451 30.1452 14.9772L31.2681 14.7947Z" fill="#252525"/>
<path d="M27.2642 7.01691C28.7964 8.54638 29.9613 10.4055 30.6705 12.4535L29.5957 12.8288C29.2284 11.7668 28.7264 10.7566 28.102 9.82298C27.6205 9.1047 27.0708 8.43478 26.4607 7.82258L27.2642 7.01691Z" fill="#252525"/>
<path d="M27.0753 6.82411L26.2856 7.64699C25.3943 6.7819 24.385 6.04809 23.2879 5.46755C22.9892 5.30917 22.6801 5.16112 22.3711 5.02684C22.1341 4.92699 21.8938 4.83059 21.65 4.74107C19.2884 3.87897 16.7304 3.71066 14.2767 4.25591C11.8229 4.80117 9.5754 6.03733 7.79813 7.81915L6.99463 7.01692C7.33057 6.67881 7.68357 6.35819 8.05223 6.05631C9.97669 4.47622 12.278 3.42537 14.7301 3.00704C17.1822 2.5887 19.7007 2.81727 22.038 3.67028C22.3024 3.76669 22.5668 3.87342 22.8243 3.9836C23.1677 4.13165 23.4939 4.29003 23.8167 4.46218C24.3717 4.75499 24.9063 5.08512 25.4168 5.45033C26.0031 5.86606 26.5575 6.32527 27.0753 6.82411Z" fill="#252525"/>
<path d="M27.7517 12.963C28.1696 14.0263 28.4265 15.1462 28.514 16.2856L27.6075 16.3544C27.5259 15.307 27.2886 14.2776 26.9036 13.3005L27.7517 12.963Z" fill="#252525"/>
<path d="M25.2039 9.08273C26.0328 9.91468 26.7278 10.8706 27.2642 11.9164L26.4573 12.3364C25.9602 11.373 25.3174 10.4926 24.5515 9.72658L25.2039 9.08273Z" fill="#252525"/>
<path d="M28.5484 17.0396C28.5484 17.315 28.5484 17.5974 28.5278 17.8728C28.4971 18.3862 28.4317 18.897 28.3321 19.4015C28.0731 20.7088 27.5898 21.9612 26.9037 23.1028C26.4207 23.8926 25.8442 24.6209 25.1868 25.2719C24.9197 25.541 24.6389 25.7961 24.3455 26.0363C22.7979 27.3085 20.9431 28.1493 18.9682 28.4739C17.0322 28.7904 15.0476 28.6055 13.2029 27.9368C12.9935 27.8576 12.7806 27.775 12.578 27.6855C12.3101 27.5718 12.0423 27.441 11.7848 27.3067C11.3436 27.0718 10.918 26.8085 10.5108 26.5183C9.9908 26.1429 9.50372 25.7236 9.05491 25.265C7.62936 23.8357 6.60587 22.054 6.08813 20.1005C5.5777 18.1643 5.58307 16.1277 6.1037 14.1942C6.62433 12.2608 7.64197 10.4982 9.05491 9.08273L9.70046 9.72658C8.39978 11.0314 7.46198 12.6547 6.98011 14.4351C6.49824 16.2156 6.48905 18.0915 6.95344 19.8767C7.24674 21.0029 7.72734 22.0714 8.37502 23.0374C9.3508 24.4941 10.6739 25.6835 12.2243 26.4976C12.4612 26.625 12.705 26.7421 12.9522 26.8419C13.1411 26.9246 13.3334 27.0003 13.5257 27.0726C15.2404 27.6941 17.0864 27.8597 18.8839 27.5532C20.6813 27.2466 22.369 26.4785 23.7824 25.3235C24.0502 25.1032 24.3112 24.8656 24.5584 24.6349C25.1575 24.0348 25.6821 23.3643 26.1208 22.638C26.5067 21.996 26.8244 21.3151 27.0685 20.6066C27.2204 20.1559 27.3431 19.6959 27.4359 19.2294C27.5281 18.7647 27.5878 18.2942 27.6145 17.8212C27.6145 17.5664 27.6385 17.3081 27.6351 17.0534L28.5484 17.0396Z" fill="#252525"/>
<path opacity="0.5" d="M2.3282 18.3342C2.4409 19.8148 2.77424 21.2702 3.31713 22.6517L2.26639 23.0718C1.68194 21.5843 1.32201 20.0177 1.19849 18.4237L2.3282 18.3342Z" fill="#252525"/>
<path d="M3.93848 24.0186C4.64209 25.3778 5.55007 26.6204 6.63056 27.7027L5.82706 28.5083C4.6618 27.3448 3.68408 26.0067 2.92896 24.542L3.93848 24.0186Z" fill="#252525"/>
<path d="M28.4352 5.84284C29.1731 6.57979 29.8378 7.38696 30.4199 8.25297C31.4052 9.7273 32.1375 11.3565 32.5866 13.0732C33.3025 15.7847 33.2958 18.6372 32.5673 21.3453C31.8387 24.0534 30.4139 26.5222 28.4352 28.5049L27.6282 27.6992C30.0601 25.2646 31.5737 22.059 31.9106 18.6298C32.2476 15.2006 31.3869 11.7605 29.4756 8.89682C28.9361 8.08648 28.3172 7.33216 27.6282 6.64507C27.0368 6.05102 26.3971 5.50743 25.7156 5.01996C25.1867 4.6384 24.6326 4.2933 24.0571 3.98704C23.7137 3.80801 23.3704 3.64274 23.027 3.49125C22.7626 3.37418 22.4879 3.26745 22.2166 3.1676C19.7941 2.28936 17.1859 2.05546 14.6464 2.48871C12.1069 2.92195 9.72265 4.00756 7.72608 5.6397C7.34837 5.95302 6.98095 6.28699 6.63071 6.63818C5.78534 7.48658 5.04411 8.43325 4.42279 9.45803C3.87542 10.3633 3.42646 11.3248 3.08362 12.3261C2.6515 13.5961 2.39164 14.9186 2.31102 16.258C2.28699 16.6023 2.28012 16.9811 2.28355 17.3426H1.14697C1.14697 16.9535 1.14697 16.561 1.17444 16.1754C1.21605 15.456 1.30784 14.7404 1.44914 14.0338C1.80929 12.2079 2.48691 10.4598 3.45104 8.86927C4.1185 7.766 4.91633 6.74753 5.82721 5.83596C6.20149 5.45722 6.59981 5.09915 7.00499 4.76173C9.15301 3.00207 11.72 1.83197 14.4546 1.36603C17.1891 0.900083 19.9975 1.15427 22.6046 2.1037C22.8999 2.21044 23.1918 2.33094 23.4802 2.44801C23.8545 2.60983 24.2288 2.79231 24.5894 2.97824C25.2069 3.30768 25.8033 3.67566 26.3749 4.08001C27.1093 4.60924 27.7984 5.19889 28.4352 5.84284Z" fill="#252525"/>
<path d="M25.8563 8.42511C27.9338 10.5122 29.2011 13.2735 29.4308 16.2133L28.5174 16.2821C28.3032 13.5639 27.1296 11.0113 25.2073 9.08273L25.8563 8.42511Z" fill="#252525"/>
<path opacity="0.47" d="M8.40578 8.42512L9.05476 9.0793C7.64649 10.4979 6.632 12.2606 6.11165 14.193C5.59131 16.1254 5.58315 18.1605 6.08798 20.097L5.19863 20.3312C4.64601 18.2372 4.65138 16.0345 5.2142 13.9433C5.77702 11.8521 6.87757 9.94568 8.40578 8.41479V8.42512Z" fill="#252525"/>
<path d="M7.63339 23.5435C8.41224 24.7024 9.39276 25.7112 10.5281 26.5217L9.99583 27.2723C9.42811 26.8691 8.89619 26.4176 8.40599 25.9226C7.83415 25.3517 7.32002 24.7255 6.87109 24.0531L7.63339 23.5435Z" fill="#252525"/>
<path d="M12.5916 27.6751L12.2241 28.5325C11.9357 28.4085 11.6473 28.2708 11.3691 28.1227L11.7984 27.3067C12.0593 27.4445 12.3272 27.5718 12.5916 27.6751Z" fill="#252525"/>
<path d="M25.2073 25.265L25.8562 25.9157C25.5644 26.2084 25.2588 26.4873 24.9463 26.7455C23.2895 28.1064 21.3085 29.0122 19.1975 29.3744C17.0865 29.7365 14.9178 29.5425 12.9041 28.8113L13.2165 27.9437C15.0796 28.6198 17.0855 28.8004 19.0389 28.4679C20.9922 28.1354 22.8264 27.3012 24.3626 26.0466C24.6544 25.7987 24.9291 25.5405 25.2073 25.265Z" fill="#252525"/>
<path opacity="0.5" d="M29.2351 19.5805C28.9589 20.9949 28.4358 22.3493 27.6899 23.5814L26.9036 23.1062C27.5914 21.9676 28.0759 20.7174 28.3354 19.4118L29.2351 19.5805Z" fill="#252525"/>
<path d="M29.4687 17.0293C29.4687 17.3288 29.4687 17.6318 29.4481 17.9279L28.5312 17.8728C28.5312 17.5974 28.5519 17.315 28.5519 17.0396L29.4687 17.0293Z" fill="#252525"/>
<path d="M24.3729 9.91253C26.0958 11.6444 27.1455 13.9361 27.3328 16.3751L26.4263 16.4474C26.288 14.6636 25.6426 12.9569 24.5666 11.5296C23.4906 10.1023 22.0291 9.01424 20.3553 8.39428C18.6814 7.77432 16.8654 7.64849 15.1225 8.03168C13.3795 8.41488 11.7826 9.29105 10.521 10.5564C9.30867 11.7697 8.45324 13.2945 8.04872 14.9635C7.75432 16.1954 7.71227 17.4745 7.92511 18.7233L7.02546 18.8713C6.79563 17.4982 6.84586 16.0927 7.17311 14.7397C7.52434 13.3025 8.18409 11.9594 9.10632 10.8043C9.34866 10.4965 9.60894 10.2033 9.88579 9.9263C10.837 8.97238 11.9662 8.21568 13.2091 7.69941C14.4519 7.18314 15.7841 6.91742 17.1293 6.91742C18.4746 6.91742 19.8067 7.18314 21.0496 7.69941C22.2925 8.21568 23.4217 8.97238 24.3729 9.9263V9.91253Z" fill="#252525"/>
<path d="M8.31305 20.252C8.57364 21.0029 8.92784 21.7178 9.36722 22.3797C9.70993 22.8871 10.0997 23.361 10.5313 23.7948L9.88572 24.4387C9.41198 23.9636 8.98534 23.4436 8.61179 22.8859C8.12755 22.1604 7.73753 21.3759 7.45117 20.5515L8.31305 20.252Z" fill="#252525"/>
<path d="M23.7308 23.7948L24.3729 24.4387C24.1326 24.6797 23.8785 24.9104 23.6175 25.1273C22.241 26.2546 20.596 27.004 18.8438 27.3022C17.0916 27.6004 15.2921 27.437 13.6218 26.8281C13.4329 26.7593 13.2441 26.6835 13.0621 26.6044C12.8217 26.5011 12.5814 26.3874 12.3513 26.26C11.951 26.051 11.5644 25.8164 11.1941 25.5577C10.779 25.2615 10.3875 24.9334 10.0232 24.5764L10.655 23.9188C10.9911 24.2454 11.3516 24.5458 11.7332 24.8174C12.0631 25.0531 12.4071 25.2681 12.7633 25.4613C12.9762 25.5714 13.1926 25.6747 13.4123 25.7711C13.5806 25.8434 13.7557 25.9123 13.924 25.9743C15.4461 26.5263 17.0848 26.6737 18.6807 26.4022C20.2765 26.1307 21.775 25.4495 23.0303 24.4249C23.2776 24.2321 23.5111 24.0117 23.7308 23.7948Z" fill="#252525"/>
<path d="M49.6284 10.0296H47.805V18.4065C47.805 19.1441 47.5868 19.8652 47.1781 20.4785C46.7693 21.0917 46.1883 21.5697 45.5086 21.8518C44.8289 22.1339 44.081 22.2075 43.3595 22.0634C42.638 21.9192 41.9754 21.5638 41.4555 21.0419C40.9355 20.5201 40.5816 19.8554 40.4385 19.1318C40.2954 18.4083 40.3695 17.6584 40.6515 16.9771C40.9335 16.2958 41.4107 15.7137 42.0227 15.3044C42.6347 14.8951 43.354 14.677 44.0897 14.6777C44.6566 14.6773 45.2159 14.8081 45.7242 15.0598L45.9371 15.1666V13.1593L45.8375 13.1249C45.2741 12.9359 44.6837 12.8405 44.0897 12.8425C42.9929 12.8453 41.9216 13.1738 41.0109 13.7867C40.1003 14.3996 39.3912 15.2693 38.9732 16.286C38.5552 17.3027 38.4471 18.4208 38.6625 19.4991C38.8779 20.5774 39.4071 21.5675 40.1833 22.3444C40.9596 23.1213 41.948 23.6501 43.0238 23.8641C44.0996 24.078 45.2145 23.9675 46.2277 23.5466C47.2409 23.1256 48.107 22.4129 48.7165 21.4987C49.326 20.5845 49.6517 19.5096 49.6524 18.4099L49.6284 10.0296Z" fill="#252525"/>
<path d="M58.0205 20.462L53.9893 10.0296H51.8123L57.4024 23.9429H58.618L59.0919 22.7688L58.0205 20.462ZM62.0518 10.0296L59.0816 17.7248L60.225 19.9283L64.191 10.0296H62.0518Z" fill="#252525"/>
<path d="M65.822 10.0296V23.9429H67.8514V10.0296H65.822Z" fill="#252525"/>
<path d="M69.3623 10.0296V11.8888H72.0304V23.9394H74.0563V11.8888H76.7175V10.0296H69.3623Z" fill="#252525"/>
<path d="M83.7326 10.0296H81.9093L76.6418 23.9429H78.7777L80.316 19.8457H83.5437L82.9943 17.983H81.0302L82.8089 12.6601H82.8467L84.6116 17.983L85.2984 19.8457L86.8333 23.9429H88.9966L83.7326 10.0296Z" fill="#252525"/>
<path d="M17.1139 9.13437C15.5354 9.13369 13.9922 9.6024 12.6795 10.4812C11.3667 11.36 10.3433 12.6095 9.73881 14.0715C9.13429 15.5336 8.97577 17.1425 9.28329 18.6949C9.59082 20.2473 10.3506 21.6734 11.4665 22.7928C12.5824 23.9122 14.0043 24.6746 15.5524 24.9836C17.1004 25.2926 18.7052 25.1344 20.1635 24.5289C21.6219 23.9233 22.8684 22.8977 23.7454 21.5818C24.6224 20.2659 25.0906 18.7187 25.0906 17.136C25.091 16.0854 24.885 15.0449 24.4844 14.0742C24.0837 13.1034 23.4962 12.2213 22.7555 11.4782C22.0147 10.7351 21.1352 10.1457 20.1672 9.74353C19.1992 9.34136 18.1617 9.13437 17.1139 9.13437ZM17.1139 22.9065C15.9796 22.9038 14.8714 22.5642 13.9294 21.9306C12.9874 21.297 12.2536 20.3978 11.8208 19.3464C11.3879 18.2951 11.2754 17.1387 11.4974 16.0233C11.7193 14.9079 12.2659 13.8834 13.068 13.0791C13.8701 12.2749 14.8918 11.7269 16.0042 11.5043C17.1166 11.2817 18.2699 11.3946 19.3184 11.8286C20.3669 12.2626 21.2637 12.9983 21.8956 13.9429C22.5275 14.8875 22.8662 15.9986 22.8689 17.136C22.8685 17.893 22.7192 18.6425 22.4297 19.3417C22.1401 20.0408 21.716 20.6758 21.1815 21.2105C20.647 21.7452 20.0126 22.1689 19.3147 22.4576C18.6167 22.7462 17.8689 22.8941 17.1139 22.8928V22.9065Z" fill="#252525"/>
<path d="M17.114 11.3792C15.9791 11.382 14.8704 11.7219 13.9281 12.3561C12.9857 12.9903 12.252 13.8903 11.8196 14.9425C11.3871 15.9946 11.2754 17.1517 11.4985 18.2675C11.7216 19.3833 12.2694 20.4078 13.0729 21.2115C13.8764 22.0152 14.8994 22.5621 16.0127 22.7831C17.126 23.0041 18.2797 22.8893 19.328 22.4532C20.3763 22.0171 21.2721 21.2792 21.9024 20.3328C22.5326 19.3864 22.869 18.274 22.869 17.136C22.869 16.3788 22.7201 15.6291 22.4307 14.9298C22.1413 14.2304 21.7172 13.5952 21.1826 13.0605C20.648 12.5257 20.0135 12.102 19.3153 11.8135C18.6172 11.525 17.8691 11.3774 17.114 11.3792ZM17.114 21.0197C16.3492 21.0197 15.6015 20.7923 14.9656 20.3661C14.3297 19.94 13.8341 19.3343 13.5416 18.6257C13.249 17.9171 13.1727 17.1374 13.3221 16.3853C13.4716 15.6331 13.8402 14.9424 14.3812 14.4003C14.9223 13.8583 15.6116 13.4893 16.3618 13.3401C17.1121 13.1909 17.8896 13.2682 18.596 13.5621C19.3024 13.8561 19.9061 14.3535 20.3305 14.9915C20.7549 15.6295 20.9811 16.3794 20.9804 17.1463C20.9768 18.1721 20.5678 19.1547 19.8431 19.8788C19.1184 20.6028 18.1371 21.0094 17.114 21.0094V21.0197Z" fill="#252525"/>
</g>
<defs>
<clipPath id="clip0_206_2832">
<rect width="89" height="34" fill="white"/>
</clipPath>
</defs>
</svg>
