<svg width="16" height="18" viewBox="0 0 16 18" fill="none" xmlns="http://www.w3.org/2000/svg">
<path d="M7.99965 8.23469H7.99981H8.00019H8.00035C9.89412 8.23678 11.7109 8.96515 13.0517 10.2618C14.3927 11.5584 15.1478 13.3176 15.15 15.1536L15.15 15.1538L15.15 16.3845V16.3846H15C15.0001 16.5478 14.9331 16.7044 14.8138 16.8199L7.99965 8.23469ZM7.99965 8.23469C6.10571 8.2368 4.2889 8.96514 2.94827 10.2618C1.60729 11.5586 0.852158 13.3178 0.85 15.1536V15.1538V16.3845M7.99965 8.23469L0.85 16.3845M0.85 16.3845V16.3846H1L0.85 16.3845ZM7.99965 7.30391H7.99981C8.8819 7.30391 9.72873 6.9651 10.3539 6.36049C10.9793 5.75571 11.3316 4.93448 11.3316 4.07696C11.3316 3.21944 10.9793 2.39819 10.3539 1.79342C9.72873 1.18882 8.8819 0.85 7.99981 0.85C7.11773 0.85 6.2709 1.18881 5.64569 1.79342C5.02031 2.3982 4.668 3.21944 4.668 4.07696L4.668 4.07714C4.66904 4.93429 5.0216 5.75493 5.6468 6.35939C6.27169 6.96383 7.11791 7.30292 7.99965 7.30391ZM6.75479 2.88001L6.75484 2.87996C7.08416 2.56136 7.53195 2.38133 7.99987 2.38078C8.46803 2.3808 8.9159 2.56066 9.24552 2.87925C9.57484 3.19785 9.75891 3.62869 9.75891 4.07696C9.75891 4.52523 9.57484 4.95605 9.24552 5.27466C8.9159 5.59327 8.468 5.77313 7.99981 5.77313C7.53161 5.77313 7.0837 5.59325 6.75407 5.27461C6.42482 4.95606 6.24077 4.52532 6.24073 4.07713C6.24124 3.62905 6.42547 3.1983 6.75479 2.88001ZM14.3636 17.15V17L1.18622 16.8199C1.30568 16.9353 1.46761 17.0001 1.63637 17V17.15H1.63649H14.3635H14.3636ZM4.03164 13.9232V15.6194H2.42254V15.154C2.42254 13.2313 3.48326 11.452 5.20929 10.4884L5.20931 10.4884C6.93586 9.52436 9.06377 9.52436 10.7903 10.4884L10.7903 10.4884C12.5164 11.4521 13.5771 13.2313 13.5771 15.154V15.6194H11.968V13.9232C11.968 13.6472 11.8158 13.3948 11.5729 13.2593C11.3306 13.124 11.0327 13.124 10.7903 13.2593C10.5475 13.3948 10.3953 13.6472 10.3953 13.9232V15.6194H5.60436V13.9232C5.60436 13.6472 5.45213 13.3948 5.20929 13.2593C4.96697 13.124 4.66902 13.124 4.42671 13.2593L4.49982 13.3903L4.42671 13.2593C4.18387 13.3948 4.03164 13.6472 4.03164 13.9232Z" fill="white" stroke="white" stroke-width="0.3"/>
</svg>
