<?xml version="1.0" encoding="utf-8"?>
<!-- Generator: Adobe Illustrator 25.2.1, SVG Export Plug-In . SVG Version: 6.00 Build 0)  -->
<svg version="1.1" id="Layer_1" xmlns="http://www.w3.org/2000/svg" xmlns:xlink="http://www.w3.org/1999/xlink" x="0px" y="0px"
	 viewBox="0 0 389.1 110" style="enable-background:new 0 0 389.1 110;" xml:space="preserve">
<style type="text/css">
	.st0{fill:#0D0814;}
	.st1{fill:#FFFFFF;}
	.st2{fill:#ED0664;}
	.st3{fill:#5AF2F2;}
	.st4{fill:#FC4CB5;}
	.st5{fill:#6213D1;}
</style>
<path class="st0" d="M50,108.7h-0.2h-0.2L27.5,102l-0.2-0.1l-0.2-0.1H27l-0.2-0.1l-0.1-0.1l-10-7.6l0,0c-0.1,0-0.2,0-0.3,0
	c-0.3-0.1-0.6-0.3-0.8-0.6L4.3,75.1c-1.5-0.6-2.5-1.8-2.8-3.3c-0.5-1.6-0.1-3.3,1.1-4.5V44.7c-1-1.1-1.5-2.6-1.2-4
	c0.3-2.2,1.8-3.9,3.6-3.9h0.1l10.2-17.3c-0.3-1.1-0.2-2.3,0.3-3.4c0.6-1.3,1.9-2.2,3.3-2.3c0.3,0,0.7,0.1,1,0.2l6.7-5
	c0.2,0,0.4-0.1,0.6-0.2L42,2.7h0.1l0.3-0.1h0.2l15.9-1.3h0.4h0.2l0.3,0.1l22,6.7l0.2,0.1l0.2,0.1L82,8.4l0,0l10.5,8l0,0
	c0.1,0,0.2,0,0.3,0c0.3,0.1,0.6,0.3,0.8,0.6l1.3,2.2l1.2,1.6c0.2,0.3,0.3,0.6,0.3,0.9l7.6,13c1.8,0.3,3.2,1.7,3.5,3.5
	c0.5,1.6,0.1,3.3-1.1,4.5v22.6c1,1.1,1.4,2.6,1.2,4c-0.3,2.2-1.8,3.8-3.6,3.8h-0.1L93.6,90.4c0.3,1.1,0.2,2.3-0.3,3.3
	C92.7,95,91.4,95.9,90,96c-0.3,0-0.7-0.1-1-0.2l-6.7,5.1c-0.2,0.1-0.3,0.2-0.5,0.3l-14.9,6.1h-0.1h-0.2h-0.2l-15.9,1.3L50,108.7
	L50,108.7z M51,104.2l1.8-0.1l-2.6-0.7L51,104.2z M62,101.9l-4-7.6c-0.7,0-1.4-0.2-2-0.6l-8.1,4.6L62,101.9z M66.4,100.9
	c0.3,0,0.6,0.1,0.9,0.2l14.3-14.4l-19.2,4.6c-0.1,0.4-0.3,0.7-0.5,1.1L66.4,100.9z M76.4,98.1l3.5-1.4l7.8-5.5v-4.5L76.4,98.1z
	 M29.7,97.5l6.3-0.3l-9.3-7.1L29.7,97.5z M40.8,95.4c0.6-0.3,1.2-0.4,1.8-0.4s1.2,0.1,1.8,0.4l7.4-4.2l-20.9-3.4L40.8,95.4z
	 M23.2,93.3l-1.8-4.4L20.2,91L23.2,93.3z M51.7,86.7l-2.8-2.9l-6.1-6.1c-0.2-0.1-0.3-0.3-0.3-0.5l-2.6-2.6h-0.3
	c-0.6,0-1.2-0.1-1.7-0.3L27,82.5c0,0.1,0,0.1,0,0.2L51.7,86.7z M62.5,86.7l22.2-5.3l-14.2-8.7c-0.6,0.4-1.4,0.7-2.1,0.7L62.5,86.7z
	 M52,80.7l5,5h1l6.3-14.2l-0.1-0.2l-20.6,0.9L52,80.7z M17.7,81.2c0.2-0.3,0.4-0.6,0.6-0.9l-1.8-4.2L17.7,81.2z M13.2,81.2l-1.1-4.9
	L12,75.9v-0.1l-1-4.3l-1.9-8.3l-1.5,5.6c0.2,0.4,0.4,0.8,0.5,1.3c0.2,0.9,0.2,1.9,0,2.8L13.2,81.2z M22.4,78.7
	c0.6,0,1.3,0.2,1.8,0.5l10.9-8.4c0-0.2,0-0.4,0-0.6c0-0.3,0-0.6,0.1-0.9l-21.1-9.9L22.4,78.7z M85.3,76.7l-7.7-23.8l-6,13.4
	c0.6,0.7,0.9,1.6,0.9,2.6L85.3,76.7z M89.8,76.4l6.6-17.7c-0.5-0.6-0.9-1.2-1.1-2L81.5,51L89.8,76.4z M95.4,73.9l5.3-5.4
	c0-0.1,0-0.2,0-0.2c0.1-0.6,0.2-1.1,0.5-1.6l-1.6-4.2L95.4,73.9z M43.4,67.8L63.5,67L52.4,52.5h-0.3L43.4,67.8z M40.1,64.7l8.1-14.4
	c-0.4-0.7-0.6-1.4-0.6-2.2l0,0l-24-15.3L40.1,64.7z M67.3,64.6h0.2l6.3-14.2H56.3L67.3,64.6z M35,64.2L19.1,33.6l-6.6,17.8
	c0.8,0.8,1.2,1.8,1.2,3l0,0L35,64.2z M95.5,52l-8.7-19.9l-5.5,12.3c0.6,0.6,0.9,1.4,1.1,2.2L95.5,52z M99.2,49.5l2.2-8.2
	c-0.2-0.4-0.4-0.8-0.5-1.3c-0.1-0.3-0.1-0.5-0.2-0.8l-8.8-6.3L99.2,49.5z M9.3,47.5l4.2-11.4l-5.3,5.4v0.2c-0.1,0.6-0.2,1.1-0.5,1.6
	L9.3,47.5z M73,46L53.2,26l0.7,18.2c0.8,0.4,1.5,1,2,1.8h13.5h0.2H73z M49.5,44l-0.8-20.1c-0.4-0.2-0.8-0.5-1.1-0.8L25,28.5L49.5,44
	z M76.5,43.2c0.2-0.1,0.5-0.2,0.7-0.2l6.2-13.9c-0.5-0.5-0.8-1.1-1-1.8l-25.7-4.1L76.5,43.2z M96.6,30.7l-4.8-8.2l-1.1,1.9
	c0.2,0.5,0.3,1.1,0.3,1.7c0,0.2,0,0.4,0,0.6L96.6,30.7z M27.4,23.4l19.2-4.6c0.1-0.4,0.3-0.7,0.5-1.1l-4.5-8.6C42.3,9.1,42,9,41.7,9
	L27.4,23.4z M21.3,23.2L33,11.5l-4,1.4l-7.7,5.9v0.1V23.2z M78.1,22.2l-9.9-7.6c-1.1,0.5-2.4,0.5-3.6,0l-7.4,4.2L78.1,22.2z
	 M87.5,21.2l1.2-2.1l-3-2.3L87.5,21.2z M82.2,19.9l-3-7.4L73,12.8L82.2,19.9z M51,15.7c0.7,0,1.4,0.2,2,0.6l8.1-4.6L47,8.1L51,15.7z
	 M58.9,6.6L58,5.8l-1.8,0.1L58.9,6.6z"/>
<path class="st1" d="M58.6,2.6h0.2h0.1H59l22,6.7l0,0h0.1h0.1l0.1,0.1l0,0l10.9,8.3l0,0l0,0l0,0l0.3-0.2l1.5,2.4l1.2,1.6l0,0
	L95,21.7l8.4,14.3l0,0h0.1c0.1,0,0.2,0,0.4,0c1,0,2.1,1,2.4,2.5s-0.1,3.1-1.2,3.4v24c1,0.7,1.5,2,1.2,3.2c-0.2,1.6-1.2,2.7-2.3,2.7
	h-0.2c-0.2,0-0.4-0.1-0.6-0.2l-11,18.8c0.5,0.8,0.5,1.9,0,2.8c-0.4,0.8-1.2,1.3-2.1,1.4c-0.2,0-0.4,0-0.6-0.1s-0.3-0.2-0.4-0.3
	l-7.4,5.6l-0.2,0.1l-14.8,6h-0.1h-0.1h-0.1l-15.9,1.3h-0.3H50l-22-6.7l0,0h-0.1l0,0h-0.1l0,0L17,92.4l-0.2,0.2L5.2,74
	C4,73.8,3,72.8,2.8,71.5C2.4,69.9,2.9,68.4,4,68V44c-1-0.7-1.5-2-1.2-3.2C3,39.3,4,38.2,5,38.2h0.2c0.2,0,0.4,0.1,0.6,0.2l11.1-18.7
	c-0.5-0.9-0.5-1.9,0-2.8c0.4-0.9,1.2-1.5,2.1-1.6c0.2,0,0.4,0.1,0.6,0.1c0.2,0.1,0.3,0.2,0.4,0.3l7.4-5.6c0.1,0,0.1-0.1,0.2-0.1
	l14.8-6h0.1h0.1h0.1L58.6,2.6L58.6,2.6 M63.6,9.2l-5.2-4.8L48.1,5.2L63.6,9.2 M65,8c1.5-0.8,3.4-0.2,4.1,1.3
	c0.1,0.2,0.2,0.4,0.2,0.6l6.3-0.3L62.2,5.5L65,8 M50.2,17.1c0.2,0,0.4-0.1,0.6-0.1c0.8,0,1.5,0.3,2.1,0.9l10.7-6.1
	c-0.1-0.3-0.2-0.6-0.2-0.9L45.5,6.4c-0.2,0.3-0.4,0.5-0.6,0.7L50.2,17.1 M23.2,25.7l24.5-5.8c0-0.8,0.4-1.5,0.9-2L43.3,7.8
	c-0.2,0-0.4,0.1-0.6,0.1c-0.5,0-1-0.1-1.4-0.4L23.2,25.7 M20.7,25.7L38,8.4l-9.6,3.3l-8.2,6.2c-0.1,0.2-0.1,0.4-0.2,0.6v6.9
	C20.3,25.5,20.5,25.6,20.7,25.7 M84.9,23.5l0.2-0.1l-5-12.3l-10.8,0.5L84.9,23.5 M87.9,23.3l2.6-4.6l-7.8-5.9L86.8,23
	C87.2,23,87.5,23.1,87.9,23.3 M66.4,13.7c-0.6,0-1.2-0.2-1.8-0.6l-10.9,6.2c0,0.1,0,0.2,0,0.3L83,24.4L68.3,13.1
	C67.7,13.5,67.1,13.7,66.4,13.7 M100.9,35.4l-8.5-14.5L91.7,20l-2.5,4.4c0.3,0.5,0.5,1.1,0.5,1.7c0,0.4-0.1,0.8-0.2,1.1L100.9,35.4
	 M9.2,36.1l7-7.1c-0.1-0.2-0.1-0.5-0.1-0.7c0-1.4,0.9-2.5,2.2-2.9v-4.7L9.2,36.1 M76.2,44.8c0.5-0.4,1.2-0.6,1.8-0.6l0,0l7-15.5
	c-0.8-0.5-1.3-1.3-1.4-2.2c-0.1-0.1-0.2-0.2-0.2-0.3l0,0l-29.8-4.8l-0.1,0.1l-0.2,0.2L76.2,44.8 M50,45.9c0.3-0.2,0.5-0.4,0.9-0.6
	L50,23c-0.8-0.2-1.5-0.7-1.9-1.4l-26,6.2c0,0.1,0,0.3,0,0.4L50,45.9 M55,47.3h14.4l0,0H75c0-0.4,0.1-0.7,0.2-1.1L52,22.9L51.8,23
	l0.8,22.2C53.8,45.3,54.7,46.2,55,47.3 M99.7,52.5l3-11.5c-0.3-0.4-0.5-0.9-0.7-1.4c-0.1-0.4-0.2-0.8-0.1-1.2l-13.2-9.5L99,52.5
	H99.7 M96.7,53.9L96.7,53.9l0.7-0.9L87,29.2h-0.3l-6.9,15.5c0.9,0.6,1.4,1.6,1.4,2.6v0.2L96.7,53.9 M40.3,67.1l9.6-16.9L49.7,50
	c-0.4-0.5-0.7-1.2-0.7-1.9c0-0.2,0-0.5,0.1-0.7L21.7,30l-0.1,0.2L21,30.6L39.9,67C40,67,40.2,67,40.3,67.1 M9.3,51.2l7.6-20.4
	L7,40.9c0,0.2,0,0.4,0,0.6c-0.1,0.6-0.3,1.2-0.6,1.7L9.3,51.2 M37.9,67.1L19.4,31.3h-0.3c-0.2,0-0.4,0-0.5,0L11,51.8
	c0.9,0.5,1.5,1.5,1.5,2.5l-0.1,0.8L37.9,67.1 M103.3,63.4V45.9l-1.9,7.2c1.4,0.9,1.7,2.8,0.8,4.2c-0.2,0.3-0.5,0.6-0.9,0.8
	L103.3,63.4 M5.7,64.1l1.9-7.3c-1.3-1-1.6-2.9-0.6-4.3c0.2-0.3,0.4-0.5,0.7-0.7l-2-5.3V64.1 M66.8,66.1c0.4-0.2,0.8-0.3,1.2-0.3h0.3
	l7.3-16.5c-0.1-0.1-0.2-0.2-0.3-0.3H55c-0.1,0.4-0.3,0.8-0.6,1.1L66.8,66.1 M89.2,78.7c0.2,0,0.4-0.1,0.6-0.1s0.4,0,0.6,0.1L98,58.2
	c-0.9-0.5-1.4-1.5-1.5-2.5l-15.9-6.6c-0.2,0.3-0.5,0.5-0.8,0.8L89.2,78.7 M87.7,79.6l-9.6-29.2H78c-0.3,0-0.5,0-0.8-0.1L70,66.5
	c0.8,0.6,1.2,1.5,1.2,2.5c0,0.2,0,0.3,0,0.5L87.7,79.6 M52.1,51.2c-0.2,0-0.5,0-0.7-0.1L41.8,68c0.3,0.3,0.6,0.7,0.7,1.2L65,68.3
	c0.1-0.4,0.2-0.7,0.4-1L52.9,51.1l0,0C52.7,51.1,52.4,51.2,52.1,51.2 M21.6,80c0.2,0,0.3,0,0.5,0c0.8,0,1.6,0.3,2.3,0.8l12.3-9.4
	c-0.1-0.4-0.2-0.7-0.2-1.1c0-0.6,0.2-1.2,0.5-1.7L11.7,56.8l-0.1,0.1L21.6,80 M16.3,88.6l-2.9-12.7l0,0l-0.1-0.4l-1-4.3L9.2,57.7
	L6.2,69c0.3,0.4,0.5,0.9,0.7,1.4c0.2,0.7,0.2,1.4,0,2.1l-0.3,0.3L16.3,88.6 M92.1,79.2l10-10.1c0-0.2,0-0.4,0-0.6
	c0.1-0.6,0.3-1.2,0.6-1.7l-3-8.1L92.1,79.2 M18.1,88.4l1.3-2.2c-1.4-1.5-1.3-3.8,0.2-5.2c0.1-0.1,0.2-0.2,0.4-0.3l-7.9-18.3l1.9,8.4
	L18.1,88.4 M56.7,87.2c0.1-0.1,0.3-0.1,0.5-0.2H59l0,0l7-15.7c-0.4-0.3-0.6-0.8-0.8-1.3l-22.5,0.9c-0.1,0.5-0.4,0.9-0.7,1.3l9.2,9.4
	L56.7,87.2 M68.1,72.1c-0.2,0-0.4,0-0.6,0l-7.1,15.8c0.1,0.2,0.3,0.3,0.3,0.5l26-6.2c0-0.1,0-0.3,0-0.4l0.2-0.6L70.4,71.1
	C69.8,71.7,69,72.1,68.1,72.1 M25.8,84.1l0.5-0.2l29.1,4.7l-5.5-5.7l-6.1-6.1l0.1-0.1l-3.5-3.6c-0.3,0.1-0.5,0.1-0.8,0.1
	c-0.7,0-1.3-0.2-1.8-0.6L25.5,82c0.2,0.5,0.4,1,0.4,1.6C25.9,83.8,25.9,83.9,25.8,84.1 M90.8,89.3l9.1-15.4l-7,7.1
	c0.1,0.2,0.1,0.5,0.1,0.7c0,1.3-0.9,2.5-2.2,2.9V89.3 M85.8,84.3l-24.6,5.8c0,0.8-0.4,1.5-0.9,2l5.3,10.1c0.2,0,0.4,0,0.6,0
	c0.5,0,1,0.1,1.4,0.4L85.8,84.3 M71,101.6l9.5-3.8l8.3-5.8c0.1-0.2,0.1-0.4,0.2-0.6l0,0v-6.9c-0.3-0.1-0.5-0.2-0.7-0.3L71,101.6
	 M40.6,96.9c1.1-0.9,2.6-0.9,3.7-0.1l10.9-6.2c0-0.1,0-0.2,0-0.3l-29.3-4.7L40.6,96.9 M28.8,98.9l10.9-0.5L24.3,86.7
	c-0.1,0.1-0.2,0.2-0.4,0.2L28.8,98.9 M26.2,97.2l-4-9.8h-0.1c-0.4,0-0.9-0.1-1.3-0.2l-2.4,4.2L26.2,97.2 M63.4,103.6
	c0.2-0.3,0.4-0.5,0.6-0.7l-5.3-10c-0.2,0-0.4,0.1-0.6,0.1c-0.8,0-1.5-0.3-2.1-0.8l-10.7,6.1c0.1,0.3,0.2,0.6,0.2,0.9L63.4,103.6
	 M46.7,104.5L44,102c-0.4,0.2-0.9,0.4-1.4,0.4c-1.4,0-2.6-0.9-2.9-2.3l-6.3,0.3L46.7,104.5 M50.6,105.6l10.3-0.8l-15.6-3.9
	L50.6,105.6 M58.6,0h-0.2L42.5,1.3h-0.2h-0.1c-0.1,0-0.2,0-0.3,0.1l0,0h-0.1h-0.1l0,0h-0.1l-0.2,0.1l-14.8,6C26.3,7.6,26,7.8,25.8,8
	l-6.2,4.8c-0.2,0-0.5-0.1-0.7-0.1c-1.9,0.1-3.7,1.3-4.5,3c-0.6,1.2-0.8,2.5-0.6,3.8L4.4,35.6c-2.4,0.5-4.1,2.5-4.3,4.9
	c-0.3,1.7,0.1,3.4,1.2,4.8v21.5c-1.2,1.5-1.6,3.5-1.1,5.4c0.4,1.8,1.6,3.3,3.2,4.1L14.5,94c0.4,0.6,1,1,1.6,1.2h0.1l9.8,7.4l0,0
	l0.2,0.1l0.2,0.2l0.2,0.1l0.2,0.1l0.2,0.1l0,0l22,6.7l0.3,0.1h0.3h0.5h0.3l15.9-1.3h0.2h0.1l0.3-0.1H67h0.1h0.1h0.1l14.8-6
	c0.3-0.1,0.5-0.3,0.8-0.4l6.2-4.7c0.2,0,0.5,0.1,0.7,0.1c1.9-0.1,3.7-1.3,4.5-3c0.6-1.2,0.8-2.5,0.6-3.8l9.5-16.2
	c2.4-0.5,4.1-2.5,4.3-4.9c0.3-1.7-0.1-3.4-1.2-4.8V43.2c1.2-1.5,1.6-3.5,1.1-5.4c-0.4-2-1.9-3.7-3.9-4.3l-7.1-12.2
	c0-0.5-0.2-0.9-0.5-1.3l0,0L96,18.5l-1.2-2.1c-0.4-0.6-0.9-1-1.6-1.2H93L82.8,7.4l0,0l-0.1-0.1l-0.2-0.1L82.2,7L82,6.9l-0.2-0.1
	l-22-6.7L59.4,0h-0.2h-0.1h-0.3L58.6,0L58.6,0z M51.8,14.5l-2.3-4.4l8,2l-4.6,2.7C52.6,14.7,52.2,14.6,51.8,14.5z M31.6,21
	l10.3-10.4l3.7,7L31.6,21z M76.6,13.9l1.8-0.1l0.8,2.1L76.6,13.9L76.6,13.9z M61.2,18.2l3.6-2c0.5,0.2,1.1,0.2,1.6,0.2
	s1.1-0.1,1.6-0.2l5.2,4L61.2,18.2L61.2,18.2z M22.6,19.4l2.7-2.1L22.6,20V19.4z M28.4,29l18.9-4.5l0.2,0.1l0.6,16.9L28.4,29z
	 M76.4,41.3l-16-16.1l20.9,3.3c0.1,0.3,0.3,0.5,0.4,0.8L76.4,41.3L76.4,41.3z M55.2,43.4l-0.5-14.1l15.2,15.3h-0.2
	c-0.1,0-0.2,0-0.3,0H56.5C56.2,44.2,55.7,43.7,55.2,43.4L55.2,43.4z M82.9,44.2l3.9-8.8L93,49.5l-9.4-3.9
	C83.4,45.1,83.2,44.6,82.9,44.2L82.9,44.2z M40.2,61.9L27,36.5l19.5,12.4c0.1,0.5,0.2,1,0.4,1.4L40.2,61.9z M98.9,45.4L95,36.7
	l4.4,3.2l0.1,0.4c0.1,0.4,0.2,0.8,0.4,1.1L98.9,45.4L98.9,45.4z M14.1,51.1l5.3-14.2L32,61.4l-17-7.9C14.8,52.6,14.5,51.8,14.1,51.1
	L14.1,51.1z M9.5,42l0.7-0.7l-0.9,2.4l-0.1-0.4C9.3,42.9,9.4,42.5,9.5,42z M69.4,49.9L69.4,49.9z M67.1,62.2L59,51.7h12.8L67.1,62.2
	z M89.9,72.3l-6.2-19.1l10.6,4.3c0.2,0.4,0.4,0.9,0.7,1.2L89.9,72.3L89.9,72.3z M45.8,66.3l6.6-11.6l8.6,11L45.8,66.3L45.8,66.3z
	 M73.1,66.1l4.3-9.6L83,73.6L73.8,68C73.7,67.3,73.4,66.7,73.1,66.1L73.1,66.1z M23.4,77.4L16.8,62l17.1,8v0.1l-9.8,7.5
	C23.9,77.5,23.6,77.5,23.4,77.4z M98.8,68.6l0.9-2.4l0.2,0.4c-0.1,0.4-0.3,0.8-0.3,1.2C99.5,67.9,98.8,68.6,98.8,68.6z M9.5,72.6
	c0.1-0.4,0.1-0.9,0.1-1.3l0.1,0.5l0.4,1.9L9.5,72.6L9.5,72.6z M46.7,73.3l15.7-0.7L57.3,84L53,79.8L46.7,73.3L46.7,73.3z M69.3,74.5
	c0.4-0.1,0.8-0.2,1.2-0.4l10.8,6.6l-16.5,3.9L69.3,74.5L69.3,74.5z M30.1,81.8l8-6.2c0.4,0.1,0.8,0.2,1.2,0.2l2,2.1
	c0.1,0.3,0.3,0.5,0.5,0.8l6.1,6L30.1,81.8L30.1,81.8z M63.4,92.3l14-3.3L67.1,99.3L63.4,92.3L63.4,92.3z M41,93.8l-5.2-3.9l12,1.9
	l-3.6,2C43.1,93.5,42,93.5,41,93.8L41,93.8z M84.4,91.9l2-2v0.6L84.4,91.9L84.4,91.9z M30.5,96.2l-0.8-2.1l2.6,2L30.5,96.2
	L30.5,96.2z M51.4,97.8l4.6-2.7c0.4,0.2,0.7,0.3,1.1,0.3l2.3,4.3L51.4,97.8L51.4,97.8z"/>
<polygon class="st2" points="4.5,41 18.2,18.7 21,29 51.8,47.3 78,48.4 90.5,82.7 90.5,92.1 81.2,98.9 67.1,105.6 58.9,89.3 
	41.5,73 40.5,68.9 10.6,53.9 "/>
<polygon class="st3" points="42.7,5.5 51.3,20.7 87.8,26.1 86.6,27.7 99.8,55.3 103.9,66.9 103.9,41 96.3,24.4 83.7,12.1 60.3,3.7 
	"/>
<polygon class="st4" points="19,17.9 28.1,10.5 42.7,5.5 51.3,20.7 85.2,25.7 88.8,31.2 99.1,53.9 99.6,57.6 104.9,69.5 101.3,71.7 
	90.5,91.3 89.7,80.7 81.2,59.2 79,47.3 62.6,48.4 51.4,49.2 39.6,40.6 20,27.3 "/>
<polygon class="st5" points="4.9,41.8 9.2,54.6 15.5,57.6 40.2,69.5 43.7,75.3 58.9,90.6 65.8,104.5 57.7,105.6 50.3,106.2 
	29,100.1 17.3,91.3 11.6,82.6 4.9,70.1 "/>
<path class="st0" d="M105.1,65.9V42c1-0.4,1.6-1.9,1.2-3.4s-1.7-2.7-2.8-2.4h-0.1l0,0L95,21.9l0.2-0.2l0,0L93.8,20l-1.3-2.2L92.2,18
	l0,0l0,0l0,0l-11-8.4l0,0l-0.1-0.1H81h-0.1l0,0L59,2.7h-0.1h-0.1h-0.2L42.7,3.9h-0.1h-0.1h-0.1L27.6,10c-0.1,0-0.1,0.1-0.2,0.1
	L20,15.7c-0.1-0.1-0.3-0.3-0.4-0.3c-0.9-0.4-2.1,0.2-2.8,1.5c-0.5,0.9-0.5,1.9,0,2.8l-11,18.8c-0.2-0.1-0.4-0.2-0.6-0.2
	c-1.2-0.2-2.3,1-2.6,2.7c-0.3,1.2,0.2,2.5,1.2,3.2V68c-1,0.4-1.6,1.9-1.2,3.4C2.8,72.7,3.7,73.7,5,74l11.6,18.6l0.2-0.2l10.6,8.1
	l0,0h0.1l0,0h0.1l0,0l22,6.7h0.1H50l15.9-1.3H66h0.1h0.1l14.8-6l0.2-0.1l7.7-5.5c0.1,0.1,0.3,0.3,0.4,0.3c0.9,0.4,2.1-0.2,2.8-1.5
	c0.5-0.8,0.5-1.9,0-2.8l11-18.8c0.2,0.1,0.4,0.2,0.6,0.2c1.2,0.2,2.3-1,2.5-2.7C106.6,67.9,106.1,66.6,105.1,65.9z M102.1,39.6
	c0.1,0.5,0.3,1,0.7,1.4l-3,11.5h-0.7L88.8,28.9l13.2,9.5C102,38.8,102,39.2,102.1,39.6z M98,58.2l-7.6,20.5c-0.2,0-0.4,0-0.6-0.1
	c-0.2,0-0.4,0-0.6,0.1l-9.4-28.8c0.3-0.2,0.6-0.5,0.8-0.8l15.9,6.6C96.6,56.7,97.1,57.6,98,58.2z M86.9,82.2l-26,6.2
	c-0.1-0.2-0.2-0.3-0.3-0.5l7-15.9c0.2,0,0.4,0,0.6,0c0.9,0,1.7-0.4,2.3-1L87,81.2l-0.2,0.6C86.8,81.9,86.8,82.1,86.9,82.2L86.9,82.2
	z M26.3,83.9l-0.5,0.2c0-0.2,0-0.3,0-0.4c0-0.5-0.1-1.1-0.4-1.6l12.3-9.4c0.5,0.4,1.2,0.6,1.8,0.6c0.3,0,0.5,0,0.8-0.1l3.5,3.6
	l-0.1,0.1l6.1,6.1l5.5,5.7L26.3,83.9z M55.2,90.6l-10.9,6.2c-1.1-0.8-2.6-0.8-3.7,0.1L25.8,85.6l29.3,4.7
	C55.2,90.4,55.2,90.5,55.2,90.6z M6.9,70.4c-0.1-0.5-0.3-1-0.7-1.4l3-11.3l3.1,13.5l1,4.3l0.1,0.4l0,0l2.9,12.7L6.5,72.8l0.3-0.3
	C7,71.8,7,71.1,6.9,70.4z M11,51.8l7.6-20.5c0.2,0,0.4,0,0.5,0h0.3L37.9,67L12.4,55.1l0.1-0.8C12.5,53.3,11.9,52.3,11,51.8z
	 M83.3,26.2L83.3,26.2c0,0.1,0.1,0.3,0.2,0.3c0.1,0.9,0.7,1.8,1.5,2.2l-6.9,15.5l0,0c-0.7,0-1.3,0.2-1.8,0.6l-23-23.1l0.2-0.2
	l0.1-0.1L83.3,26.2z M53.8,19.4l10.9-6.2c0.5,0.4,1.1,0.6,1.8,0.6c0.7,0,1.4-0.2,1.9-0.7l14.8,11.3l-29.3-4.7
	C53.8,19.6,53.8,19.5,53.8,19.4z M92.4,20.9l8.5,14.5l-11.4-8.2c0.1-0.4,0.2-0.8,0.2-1.1c0-0.6-0.2-1.2-0.5-1.7l2.5-4.4L92.4,20.9z
	 M96.8,53.8L96.8,53.8l-15.6-6.3v-0.2c0-1.1-0.5-2-1.4-2.6l6.9-15.5H87L97.4,53L96.8,53.8z M71.2,69.5c0-0.2,0-0.3,0-0.5
	c0-1-0.4-1.9-1.2-2.5l7.2-16.2c0.3,0.1,0.5,0.1,0.8,0.1h0.1l9.6,29.2L71.2,69.5z M59,87L59,87h-1.8c-0.2,0.1-0.3,0.1-0.5,0.2
	l-5.6-5.6l-9.2-9.4c0.3-0.4,0.6-0.8,0.7-1.3L65.1,70c0.2,0.5,0.5,0.9,0.9,1.2L59,87z M24.4,80.7c-0.6-0.5-1.4-0.8-2.3-0.8
	c-0.2,0-0.3,0-0.5,0l-10-23.1l0.1-0.1L37,68.5c-0.3,0.5-0.5,1-0.5,1.6c0,0.4,0.1,0.8,0.2,1.1L24.4,80.7z M75.1,46.2
	c-0.1,0.3-0.2,0.7-0.2,1.1h-5.6l0,0H55c-0.3-1.1-1.3-1.9-2.4-2.1L51.8,23l0.2-0.1L75.1,46.2z M68.1,65.8c-0.4,0-0.9,0.1-1.2,0.3
	l-12.4-16c0.3-0.3,0.4-0.7,0.5-1.1h20.5c0.1,0.1,0.2,0.2,0.3,0.3l-7.3,16.5H68.1z M51.4,51.1c0.2,0.1,0.5,0.1,0.7,0.1
	c0.3,0,0.5,0,0.8-0.1l0,0l12.6,16.1c-0.2,0.3-0.3,0.6-0.4,1l-22.5,0.9c-0.1-0.4-0.4-0.8-0.7-1.2L51.4,51.1z M50.8,45.4
	c-0.3,0.1-0.6,0.3-0.9,0.6L22.2,28.2c0-0.1,0-0.3,0-0.4l26-6.2c0.4,0.7,1.1,1.2,1.8,1.4L50.8,45.4z M49.1,47.5
	C49,47.7,49,48,49,48.2c0,0.7,0.2,1.4,0.7,1.9l0.2,0.1l-9.6,16.9c-0.1,0-0.3-0.1-0.4-0.1L21,30.6l0.5-0.4l0.1-0.2L49.1,47.5z
	 M18.1,88.4L14,70.8l-1.9-8.4L20,80.6c-1.7,1.2-2.1,3.5-0.9,5.1c0.1,0.1,0.2,0.3,0.3,0.4L18.1,88.4z M90.5,18.7l-2.6,4.5
	c-0.3-0.1-0.7-0.2-1-0.2l-4.2-10.2L90.5,18.7z M85.1,23.4l-0.2,0.1L69.3,11.6l10.8-0.5L85.1,23.4z M75.6,9.6l-6.3,0.3
	c-0.5-1.6-2.2-2.6-3.8-2.1c-0.1,0-0.3,0.1-0.5,0.2l-2.8-2.5L75.6,9.6z M58.4,4.4l5.3,4.8l-15.6-4L58.4,4.4z M45.5,6.4l17.8,4.5
	c0,0.3,0.1,0.6,0.2,0.9l-10.7,6.1c-0.6-0.5-1.3-0.9-2.1-0.9c-0.2,0-0.4,0-0.6,0.1l-5.3-10C45.2,6.9,45.4,6.7,45.5,6.4L45.5,6.4z
	 M43.3,7.8l5.3,10.1c-0.5,0.5-0.9,1.2-0.9,2l-24.6,5.8L41.4,7.4C42,7.8,42.7,7.9,43.3,7.8z M20,18.5L20,18.5
	c0.1-0.2,0.2-0.4,0.2-0.6l8.2-6.2L38,8.4L20.7,25.7c-0.2-0.1-0.5-0.3-0.7-0.3V18.5z M18.2,20.7v4.7C16.9,25.8,16,27,16,28.3
	c0,0.2,0,0.5,0.1,0.7l-7,7.1L18.2,20.7z M6.9,41.5c0-0.2,0-0.4,0-0.6l10-10.1L9.3,51.3l-3-8.1C6.6,42.7,6.8,42.1,6.9,41.5z
	 M5.7,46.6l2,5.3c-1.4,1-1.7,2.9-0.8,4.2c0.2,0.3,0.4,0.5,0.7,0.7L5.7,64C5.7,64,5.7,46.6,5.7,46.6z M18.4,91.3l2.4-4.2
	c0.4,0.2,0.9,0.2,1.3,0.2h0.1l4,9.8L18.4,91.3z M23.9,86.9c0.1-0.1,0.2-0.2,0.4-0.2l15.3,11.7l-10.9,0.5L23.9,86.9z M33.3,100.4
	l6.3-0.3c0.3,1.3,1.6,2.3,2.9,2.3c0.5,0,1-0.1,1.5-0.4l2.8,2.5L33.3,100.4z M50.5,105.6l-5.3-4.8l15.6,3.9L50.5,105.6z M63.4,103.6
	l-17.8-4.5c0-0.3-0.1-0.6-0.2-0.9l10.7-6.1c0.6,0.5,1.3,0.8,2.1,0.8c0.2,0,0.4,0,0.6-0.1l5.3,10C63.8,103.1,63.6,103.3,63.4,103.6
	L63.4,103.6z M65.6,102.2l-5.3-10.1c0.5-0.5,0.9-1.2,0.9-2l24.6-5.8l-18.2,18.3C67,102.2,66.3,102.1,65.6,102.2L65.6,102.2z
	 M89,91.5L89,91.5c-0.1,0.2-0.2,0.4-0.2,0.6l-8.3,5.8l-9.5,3.8l17.2-17.4c0.2,0.1,0.5,0.3,0.7,0.3L89,91.5z M90.8,89.3v-4.7
	c1.3-0.4,2.2-1.6,2.2-2.9c0-0.2,0-0.5-0.1-0.7l7-7.1L90.8,89.3z M102.1,68.5c0,0.2,0,0.4,0,0.6l-10,10.1l7.6-20.5l3,8.1
	C102.3,67.3,102.1,67.9,102.1,68.5z M103.3,63.4l-2-5.3c1.4-0.9,1.8-2.7,0.9-4.1c-0.2-0.3-0.5-0.6-0.8-0.9l1.9-7.2V63.4z"/>
<g>
	<path d="M159.5,62.6c0,6.5-5.1,10.2-15,10.2h-19.4V35.3h18.3c9.4,0,14.2,3.9,14.2,9.8c0,3.8-1.9,6.6-5,8.2
		C156.8,54.6,159.5,57.9,159.5,62.6z M133.7,41.8v8.8h8.6c4.2,0,6.5-1.5,6.5-4.4s-2.3-4.4-6.5-4.4C142.3,41.8,133.7,41.8,133.7,41.8
		z M150.7,61.7c0-3.2-2.4-4.7-6.9-4.7h-10.1v9.3h10.1C148.3,66.3,150.7,64.9,150.7,61.7z"/>
	<path d="M188.9,56.4v16.4H181v-3.6c-1.6,2.6-4.6,4-8.8,4c-6.8,0-10.8-3.8-10.8-8.7c0-5.1,3.6-8.6,12.4-8.6h6.6
		c0-3.6-2.1-5.7-6.6-5.7c-3.1,0-6.2,1-8.3,2.7l-3-5.8c3.2-2.2,7.8-3.5,12.4-3.5C183.8,43.5,188.9,47.6,188.9,56.4z M180.5,63.7v-2.9
		h-5.7c-3.9,0-5.1,1.4-5.1,3.4c0,2.1,1.8,3.5,4.7,3.5C177.1,67.6,179.5,66.3,180.5,63.7z"/>
	<path d="M223.8,56.3v16.5h-8.4V57.6c0-4.7-2.1-6.8-5.8-6.8c-4,0-6.9,2.5-6.9,7.8v14.3h-8.4V44h8v3.4c2.2-2.5,5.6-3.8,9.5-3.8
		C218.7,43.5,223.8,47.5,223.8,56.3z"/>
	<path d="M241.5,61.5l-4,4v7.3h-8.4V33h8.4v22.5L249.7,44h10l-12,12.2l13.1,16.6h-10.1L241.5,61.5z"/>
	<path d="M258.9,58.4c0-8.7,6.7-14.8,15.9-14.8s15.8,6.2,15.8,14.8s-6.6,14.8-15.8,14.8S258.9,67.1,258.9,58.4z M282.1,58.4
		c0-5-3.2-8-7.3-8s-7.4,3-7.4,8s3.2,8,7.4,8S282.1,63.4,282.1,58.4z"/>
	<path d="M342.8,56.3v16.5h-8.4V57.6c0-4.7-2.1-6.8-5.5-6.8c-3.8,0-6.4,2.4-6.4,7.6v14.5h-8.4V57.6c0-4.7-2-6.8-5.5-6.8
		c-3.7,0-6.3,2.4-6.3,7.6v14.5h-8.4V44h8v3.3c2.1-2.5,5.4-3.8,9.1-3.8c4,0,7.4,1.6,9.5,4.7c2.3-2.9,6.1-4.7,10.4-4.7
		C337.8,43.5,342.8,47.5,342.8,56.3z"/>
	<path d="M347.2,35.3c0-2.6,2.1-4.7,5.2-4.7s5.2,1.9,5.2,4.5c0,2.8-2.1,4.8-5.2,4.8S347.2,37.9,347.2,35.3z M348.2,44h8.4v28.8h-8.4
		V44z"/>
	<path d="M387.7,56.4v16.4h-7.8v-3.6c-1.6,2.6-4.6,4-8.8,4c-6.8,0-10.8-3.8-10.8-8.7c0-5.1,3.6-8.6,12.4-8.6h6.6
		c0-3.6-2.1-5.7-6.6-5.7c-3.1,0-6.2,1-8.3,2.7l-3-5.8c3.2-2.2,7.8-3.5,12.4-3.5C382.6,43.5,387.7,47.6,387.7,56.4z M379.4,63.7v-2.9
		h-5.7c-3.9,0-5.1,1.4-5.1,3.4c0,2.1,1.8,3.5,4.7,3.5C376,67.6,378.4,66.3,379.4,63.7z"/>
</g>
</svg>
