<svg width="1117" height="257" viewBox="0 0 1117 257" fill="none" xmlns="http://www.w3.org/2000/svg">
    <path d="M324.883 164.262V179.077H263.131V99.3061H323.402V114.121H281.475V131.442H318.503V145.801H281.475V164.262H324.883Z"
          fill="#0E1A47"/>
    <path d="M376.502 179.077L363.058 160.274L349.158 179.077H329.789L353.374 148.194L330.587 117.767H350.525L363.514 135.659L376.844 117.767H395.757L372.97 147.738L396.668 179.077H376.502Z"
          fill="#0E1A47"/>
    <path d="M433.027 179.988C426.495 179.988 420.608 178.659 415.367 176C410.202 173.265 406.139 169.504 403.177 164.718C400.29 159.932 398.847 154.5 398.847 148.422C398.847 142.344 400.29 136.912 403.177 132.126C406.139 127.34 410.202 123.617 415.367 120.958C420.608 118.223 426.495 116.856 433.027 116.856C439.483 116.856 445.104 118.223 449.889 120.958C454.75 123.617 458.282 127.454 460.485 132.468L446.699 139.875C443.509 134.253 438.914 131.442 432.913 131.442C428.28 131.442 424.444 132.962 421.406 136.001C418.368 139.04 416.849 143.18 416.849 148.422C416.849 153.664 418.368 157.805 421.406 160.843C424.444 163.882 428.28 165.402 432.913 165.402C438.99 165.402 443.585 162.591 446.699 156.969L460.485 164.49C458.282 169.352 454.75 173.151 449.889 175.886C445.104 178.621 439.483 179.988 433.027 179.988Z"
          fill="#0E1A47"/>
    <path d="M507.53 116.856C515.125 116.856 521.24 119.135 525.873 123.693C530.582 128.251 532.937 135.013 532.937 143.978V179.077H515.163V146.713C515.163 141.85 514.1 138.242 511.973 135.887C509.846 133.456 506.77 132.24 502.744 132.24C498.263 132.24 494.693 133.645 492.035 136.456C489.376 139.191 488.047 143.294 488.047 148.764V179.077H470.273V94.5199H488.047V124.149C490.402 121.794 493.25 120.009 496.592 118.793C499.934 117.501 503.58 116.856 507.53 116.856Z"
          fill="#0E1A47"/>
    <path d="M573.771 116.856C583.266 116.856 590.557 119.135 595.646 123.693C600.735 128.176 603.28 134.975 603.28 144.092V179.077H586.646V171.442C583.303 177.139 577.075 179.988 567.96 179.988C563.251 179.988 559.15 179.191 555.656 177.595C552.238 176 549.617 173.797 547.794 170.986C545.971 168.175 545.06 164.984 545.06 161.413C545.06 155.715 547.187 151.233 551.44 147.966C555.77 144.699 562.416 143.066 571.378 143.066H585.506C585.506 139.191 584.329 136.229 581.974 134.177C579.62 132.05 576.088 130.986 571.378 130.986C568.112 130.986 564.884 131.518 561.694 132.582C558.58 133.57 555.922 134.937 553.719 136.684L547.339 124.263C550.681 121.908 554.668 120.084 559.302 118.793C564.011 117.501 568.834 116.856 573.771 116.856ZM572.404 168.023C575.442 168.023 578.138 167.339 580.493 165.972C582.848 164.528 584.519 162.439 585.506 159.704V153.436H573.315C566.024 153.436 562.378 155.829 562.378 160.616C562.378 162.895 563.251 164.718 564.998 166.086C566.821 167.377 569.29 168.023 572.404 168.023Z"
          fill="#0E1A47"/>
    <path d="M656.622 116.856C664.217 116.856 670.332 119.135 674.965 123.693C679.674 128.251 682.029 135.013 682.029 143.978V179.077H664.255V146.713C664.255 141.85 663.192 138.242 661.065 135.887C658.939 133.456 655.862 132.24 651.837 132.24C647.355 132.24 643.785 133.645 641.127 136.456C638.468 139.191 637.139 143.294 637.139 148.764V179.077H619.366V117.767H636.342V124.947C638.696 122.364 641.621 120.388 645.115 119.021C648.609 117.577 652.444 116.856 656.622 116.856Z"
          fill="#0E1A47"/>
    <path d="M762.04 117.767V168.821C762.04 180.064 759.116 188.421 753.267 193.891C747.419 199.361 738.874 202.096 727.632 202.096C721.708 202.096 716.087 201.375 710.77 199.931C705.453 198.488 701.048 196.398 697.554 193.663L704.618 180.9C707.2 183.027 710.467 184.699 714.416 185.914C718.366 187.206 722.316 187.852 726.265 187.852C732.418 187.852 736.937 186.446 739.823 183.635C742.786 180.9 744.267 176.722 744.267 171.1V168.479C739.633 173.569 733.177 176.114 724.898 176.114C719.277 176.114 714.112 174.898 709.403 172.467C704.77 169.96 701.086 166.465 698.352 161.983C695.617 157.501 694.25 152.335 694.25 146.485C694.25 140.635 695.617 135.469 698.352 130.986C701.086 126.504 704.77 123.047 709.403 120.616C714.112 118.109 719.277 116.856 724.898 116.856C733.785 116.856 740.545 119.781 745.178 125.63V117.767H762.04ZM728.43 161.527C733.139 161.527 736.975 160.16 739.937 157.425C742.975 154.614 744.495 150.967 744.495 146.485C744.495 142.002 742.975 138.394 739.937 135.659C736.975 132.848 733.139 131.442 728.43 131.442C723.721 131.442 719.847 132.848 716.809 135.659C713.771 138.394 712.252 142.002 712.252 146.485C712.252 150.967 713.771 154.614 716.809 157.425C719.847 160.16 723.721 161.527 728.43 161.527Z"
          fill="#0E1A47"/>
    <path d="M838.626 148.65C838.626 148.878 838.512 150.473 838.284 153.436H791.913C792.749 157.235 794.723 160.236 797.838 162.439C800.952 164.642 804.825 165.744 809.459 165.744C812.649 165.744 815.459 165.288 817.89 164.376C820.396 163.389 822.713 161.869 824.84 159.818L834.296 170.074C828.524 176.684 820.093 179.988 809.003 179.988C802.091 179.988 795.977 178.659 790.66 176C785.343 173.265 781.241 169.504 778.355 164.718C775.469 159.932 774.026 154.5 774.026 148.422C774.026 142.42 775.431 137.026 778.241 132.24C781.127 127.378 785.039 123.617 789.976 120.958C794.989 118.223 800.572 116.856 806.724 116.856C812.725 116.856 818.156 118.147 823.017 120.73C827.878 123.313 831.676 127.036 834.41 131.898C837.22 136.684 838.626 142.268 838.626 148.65ZM806.838 130.303C802.813 130.303 799.433 131.442 796.698 133.721C793.964 136.001 792.293 139.115 791.685 143.066H821.877C821.27 139.191 819.599 136.115 816.864 133.835C814.13 131.48 810.788 130.303 806.838 130.303Z"
          fill="#0E1A47"/>
    <path d="M905.602 137.938H922.464V170.302C918.135 173.569 913.122 176.076 907.425 177.823C901.729 179.571 895.994 180.444 890.221 180.444C881.942 180.444 874.499 178.697 867.89 175.202C861.282 171.632 856.079 166.731 852.282 160.502C848.56 154.196 846.699 147.093 846.699 139.191C846.699 131.29 848.56 124.225 852.282 117.995C856.079 111.69 861.32 106.789 868.004 103.295C874.688 99.724 882.208 97.9386 890.563 97.9386C897.551 97.9386 903.893 99.1162 909.59 101.471C915.287 103.826 920.072 107.245 923.946 111.728L912.097 122.668C906.4 116.666 899.526 113.665 891.475 113.665C886.386 113.665 881.866 114.728 877.917 116.856C873.967 118.983 870.891 121.984 868.688 125.858C866.485 129.733 865.384 134.177 865.384 139.191C865.384 144.13 866.485 148.536 868.688 152.411C870.891 156.285 873.929 159.324 877.803 161.527C881.752 163.654 886.234 164.718 891.247 164.718C896.564 164.718 901.349 163.578 905.602 161.299V137.938Z"
          fill="#0E1A47"/>
    <path d="M963.08 116.856C972.574 116.856 979.866 119.135 984.955 123.693C990.044 128.176 992.589 134.975 992.589 144.092V179.077H975.954V171.442C972.612 177.139 966.384 179.988 957.269 179.988C952.56 179.988 948.458 179.191 944.964 177.595C941.546 176 938.926 173.797 937.103 170.986C935.28 168.175 934.369 164.984 934.369 161.413C934.369 155.715 936.495 151.233 940.749 147.966C945.078 144.699 951.725 143.066 960.687 143.066H974.815C974.815 139.191 973.638 136.229 971.283 134.177C968.928 132.05 965.396 130.986 960.687 130.986C957.421 130.986 954.193 131.518 951.003 132.582C947.889 133.57 945.23 134.937 943.028 136.684L936.647 124.263C939.989 121.908 943.977 120.084 948.61 118.793C953.32 117.501 958.143 116.856 963.08 116.856ZM961.713 168.023C964.751 168.023 967.447 167.339 969.802 165.972C972.157 164.528 973.828 162.439 974.815 159.704V153.436H962.624C955.332 153.436 951.687 155.829 951.687 160.616C951.687 162.895 952.56 164.718 954.307 166.086C956.13 167.377 958.599 168.023 961.713 168.023Z"
          fill="#0E1A47"/>
    <path d="M1048.21 176.114C1046.46 177.405 1044.3 178.393 1041.72 179.077C1039.21 179.685 1036.55 179.988 1033.74 179.988C1026.45 179.988 1020.79 178.127 1016.76 174.404C1012.81 170.682 1010.84 165.212 1010.84 157.995V132.81H1001.38V119.135H1010.84V104.206H1028.61V119.135H1043.88V132.81H1028.61V157.767C1028.61 160.35 1029.26 162.363 1030.55 163.806C1031.92 165.174 1033.82 165.858 1036.25 165.858C1039.06 165.858 1041.45 165.098 1043.42 163.578L1048.21 176.114Z"
          fill="#0E1A47"/>
    <path d="M1116.34 148.65C1116.34 148.878 1116.22 150.473 1116 153.436H1069.63C1070.46 157.235 1072.44 160.236 1075.55 162.439C1078.66 164.642 1082.54 165.744 1087.17 165.744C1090.36 165.744 1093.17 165.288 1095.6 164.376C1098.11 163.389 1100.43 161.869 1102.55 159.818L1112.01 170.074C1106.24 176.684 1097.8 179.988 1086.72 179.988C1079.8 179.988 1073.69 178.659 1068.37 176C1063.06 173.265 1058.95 169.504 1056.07 164.718C1053.18 159.932 1051.74 154.5 1051.74 148.422C1051.74 142.42 1053.14 137.026 1055.95 132.24C1058.84 127.378 1062.75 123.617 1067.69 120.958C1072.7 118.223 1078.28 116.856 1084.44 116.856C1090.44 116.856 1095.87 118.147 1100.73 120.73C1105.59 123.313 1109.39 127.036 1112.12 131.898C1114.93 136.684 1116.34 142.268 1116.34 148.65ZM1084.55 130.303C1080.52 130.303 1077.14 131.442 1074.41 133.721C1071.68 136.001 1070.01 139.115 1069.4 143.066H1099.59C1098.98 139.191 1097.31 136.115 1094.58 133.835C1091.84 131.48 1088.5 130.303 1084.55 130.303Z"
          fill="#0E1A47"/>
    <path d="M0.140062 76.1084L113.416 -3.11725e-05L113.696 151.833L0.140062 76.1084Z" fill="#0094FC"/>
    <path opacity="0.3" d="M0.140062 76.1084L113.416 -3.11725e-05L113.696 151.833L0.140062 76.1084Z"
          fill="url(#paint0_linear_16_46)"/>
    <path d="M227.165 180.187L113.889 256.296L113.609 104.462L227.165 180.187Z" fill="#440EAA"/>
    <path d="M113.503 47.1211L226.914 122.559L227.021 180.15L113.609 104.712L113.503 47.1211Z" fill="#0094FC"/>
    <path opacity="0.3" d="M113.503 47.1211L226.914 122.559L227.021 180.15L113.609 104.712L113.503 47.1211Z"
          fill="url(#paint1_linear_16_46)"/>
    <path d="M0.283447 76.1082L113.695 151.546L113.801 209.137L0.389624 133.699L0.283447 76.1082Z" fill="#440EAA"/>
    <path opacity="0.5" d="M0.283447 76.1082L113.695 151.546L113.801 209.137L0.389624 133.699L0.283447 76.1082Z"
          fill="url(#paint2_linear_16_46)"/>
    <path opacity="0.5" d="M227.021 180.188L113.745 256.296L113.465 104.463L227.021 180.188Z"
          fill="url(#paint3_linear_16_46)"/>
    <defs>
        <linearGradient id="paint0_linear_16_46" x1="0.140062" y1="76.1084" x2="113.556" y2="75.8993"
                        gradientUnits="userSpaceOnUse">
            <stop stop-color="#0094FC" stop-opacity="0"/>
            <stop offset="1"/>
        </linearGradient>
        <linearGradient id="paint1_linear_16_46" x1="227.017" y1="178.344" x2="238.01" y2="109.109"
                        gradientUnits="userSpaceOnUse">
            <stop/>
            <stop offset="1" stop-color="#0094FC" stop-opacity="0"/>
        </linearGradient>
        <linearGradient id="paint2_linear_16_46" x1="113.729" y1="170.045" x2="58.8795" y2="211.501"
                        gradientUnits="userSpaceOnUse">
            <stop/>
            <stop offset="1" stop-color="#361090" stop-opacity="0"/>
        </linearGradient>
        <linearGradient id="paint3_linear_16_46" x1="227.021" y1="180.188" x2="113.605" y2="180.397"
                        gradientUnits="userSpaceOnUse">
            <stop/>
            <stop offset="1" stop-color="#0094FC" stop-opacity="0"/>
        </linearGradient>
    </defs>
</svg>
