<svg id="Layer_1" data-name="Layer 1" xmlns="http://www.w3.org/2000/svg" viewBox="0 0 590.43 111.88">
  <defs>
    <style>
      .cls-1, .cls-3 {
        fill: #fff;
      }

      .cls-2, .cls-4 {
        fill: #007be9;
      }

      .cls-3, .cls-4 {
        fill-rule: evenodd;
      }
    </style>
  </defs>
  <path class="cls-1" d="M264.57,247.68a17.55,17.55,0,0,0-6.86-6.76,20.65,20.65,0,0,0-10.15-2.42H225.67v58.71h9.12V277.15h12.77a20.54,20.54,0,0,0,10.15-2.42,17.43,17.43,0,0,0,6.86-6.79,20.09,20.09,0,0,0,2.48-10.11v-.08A19.81,19.81,0,0,0,264.57,247.68Zm-6.83,10.23c0,3.63-1.1,6.47-3.28,8.52s-5.24,3.07-9.18,3.07H234.79V246.19h10.49q5.91,0,9.18,3.05c2.18,2,3.28,4.9,3.28,8.59Z" transform="translate(-139.32 -207.19)"/>
  <path class="cls-1" d="M275,238.5h22.82a22.89,22.89,0,0,1,10.38,2.2,15.89,15.89,0,0,1,6.77,6.22,18.45,18.45,0,0,1,2.38,9.56v.09a18.19,18.19,0,0,1-3,10.45,15.91,15.91,0,0,1-8.32,6.27l13.14,23.92H308.64l-12-22.5H284.14v22.5H275ZM297,267.19q5.25,0,8.14-2.75t2.88-7.79v-.08a9.84,9.84,0,0,0-3-7.63q-3-2.79-8.28-2.79H284.14v21Z" transform="translate(-139.32 -207.19)"/>
  <path class="cls-1" d="M326.21,238.5h37.27v7.89H335.33v17.09H362v7.65H335.33v18.19h28.15v7.89H326.21Z" transform="translate(-139.32 -207.19)"/>
  <path class="cls-1" d="M372.88,238.5h10.54l19,46.83h.25l19-46.83h10.58v58.71H423.9V253.92l-18,43.29h-6.75l-17.95-43.29v43.29h-8.34Z" transform="translate(-139.32 -207.19)"/>
  <path class="cls-1" d="M443.07,238.5h9.11v58.71h-9.11Z" transform="translate(-139.32 -207.19)"/>
  <path class="cls-1" d="M501.62,297.21h9.6L489.9,238.5H480l-21.36,58.71h9.6l5.38-15.87h22.62ZM476.11,274l8.74-25.8h.21l8.72,25.8Z" transform="translate(-139.32 -207.19)"/>
  <path class="cls-2" d="M559.62,273.55a13.59,13.59,0,0,0-4.8-5,16.69,16.69,0,0,0-7.31-2.34V266a12,12,0,0,0,5.6-2.3,13.17,13.17,0,0,0,3.86-4.62,12.75,12.75,0,0,0,1.41-5.86v-.08a13.56,13.56,0,0,0-8.14-12.84,21.28,21.28,0,0,0-9.11-1.81H517.69v58.71h23.56a26.3,26.3,0,0,0,10.74-2,15.51,15.51,0,0,0,6.89-5.72,15.89,15.89,0,0,0,2.43-8.89v-.08A14.33,14.33,0,0,0,559.62,273.55ZM538.93,246q4.92,0,7.63,2.15a7.46,7.46,0,0,1,2.7,6.19v.08a7.88,7.88,0,0,1-3.15,6.71c-2.1,1.58-5.13,2.36-9.09,2.36H526.8V246Zm13,34.17a8.5,8.5,0,0,1-3.22,7.19c-2.14,1.64-5.25,2.46-9.31,2.46H526.8V270.48h12.05a20.92,20.92,0,0,1,7.22,1.08A8.33,8.33,0,0,1,552,280Z" transform="translate(-139.32 -207.19)"/>
  <path class="cls-2" d="M607.73,297.21h9.6L596,238.5h-9.88l-21.37,58.71h9.61l5.37-15.87h22.63ZM582.23,274l8.74-25.8h.2l8.72,25.8Z" transform="translate(-139.32 -207.19)"/>
  <polygon class="cls-2" points="523.34 31.31 523.34 74.64 523.08 74.64 492.9 31.31 484.48 31.31 484.48 90.02 493.55 90.02 493.55 46.57 493.77 46.57 523.99 90.02 532.41 90.02 532.41 31.31 523.34 31.31"/>
  <polygon class="cls-2" points="570.49 60.65 590.43 31.31 580.09 31.31 565.53 54.06 565.2 54.06 550.68 31.31 539.77 31.31 559.1 60.36 559.1 60.49 539.57 90.02 549.7 90.02 564.39 67.65 564.71 67.65 579.36 90.02 590.06 90.02 570.49 60.78 570.49 60.65"/>
  <g>
    <polygon class="cls-3" points="1.4 67.08 1.4 93.26 28.01 111.88 28.01 67.08 1.4 67.08"/>
    <polygon class="cls-4" points="0 34.12 0 0 59.83 31.41 59.83 64.47 1.4 93.26 1.4 62.29 34.64 47.68 0 34.12"/>
  </g>
</svg>
